<svg width="55" height="54" viewBox="0 0 55 54" fill="none" xmlns="http://www.w3.org/2000/svg">
<path d="M53.9902 28.9998C55.333 27.6986 55.333 25.5855 53.9902 24.2843L40.2402 10.9602C38.8975 9.65903 36.7168 9.65903 35.374 10.9602C34.0312 12.2614 34.0312 14.3745 35.374 15.6757L43.2588 23.3162H20.625C18.7236 23.3162 17.1875 24.8048 17.1875 26.6473C17.1875 28.4898 18.7236 29.9783 20.625 29.9783H43.2588L35.374 37.6189C34.0312 38.92 34.0312 41.0332 35.374 42.3343C36.7168 43.6355 38.8975 43.6355 40.2402 42.3343L53.9902 29.0102V28.9998ZM17.1875 9.99214C19.0889 9.99214 20.625 8.50358 20.625 6.66111C20.625 4.81863 19.0889 3.33008 17.1875 3.33008H10.3125C4.61914 3.33008 0 7.80615 0 13.3232V39.9714C0 45.4884 4.61914 49.9645 10.3125 49.9645H17.1875C19.0889 49.9645 20.625 48.4759 20.625 46.6334C20.625 44.791 19.0889 43.3024 17.1875 43.3024H10.3125C8.41113 43.3024 6.875 41.8139 6.875 39.9714V13.3232C6.875 11.4807 8.41113 9.99214 10.3125 9.99214H17.1875Z" fill="black" fill-opacity="0.49"/>
</svg>
