<svg width="43" height="44" viewBox="0 0 43 44" fill="none" xmlns="http://www.w3.org/2000/svg">
<path d="M41.9796 23.4543C43.0236 22.389 43.0236 20.6589 41.9796 19.5936L31.2884 8.68459C30.2443 7.61926 28.5488 7.61926 27.5047 8.68459C26.4607 9.74992 26.4607 11.48 27.5047 12.5453L33.6355 18.801H16.0368C14.5584 18.801 13.364 20.0197 13.364 21.5282C13.364 23.0367 14.5584 24.2554 16.0368 24.2554H33.6355L27.5047 30.5111C26.4607 31.5764 26.4607 33.3065 27.5047 34.3718C28.5488 35.4371 30.2443 35.4371 31.2884 34.3718L41.9796 23.4628V23.4543ZM13.364 7.89199C14.8424 7.89199 16.0368 6.67325 16.0368 5.16474C16.0368 3.65624 14.8424 2.4375 13.364 2.4375H8.01838C3.59157 2.4375 0 6.10223 0 10.6192V32.4372C0 36.9542 3.59157 40.6189 8.01838 40.6189H13.364C14.8424 40.6189 16.0368 39.4002 16.0368 37.8917C16.0368 36.3832 14.8424 35.1644 13.364 35.1644H8.01838C6.53999 35.1644 5.34559 33.9457 5.34559 32.4372V10.6192C5.34559 9.11072 6.53999 7.89199 8.01838 7.89199H13.364Z" fill="black" fill-opacity="0.49"/>
</svg>
