<svg width="26" height="27" viewBox="0 0 26 27" fill="none" xmlns="http://www.w3.org/2000/svg">
<g clip-path="url(#clip0_312_127)">
<path d="M13 0.28125C20.1801 0.28125 26 6.102 26 13.2813C26 20.4614 20.1801 26.2813 13 26.2813C5.81985 26.2813 0 20.4613 0 13.2813C0 6.102 5.81994 0.28125 13 0.28125Z" fill="#3B5998"/>
<path d="M14.5847 9.23074H16.2601V6.75586H14.2906V6.76478C11.9043 6.8493 11.4152 8.19072 11.3721 9.59961H11.3671V10.8354H9.74219V13.2591H11.3671V19.7558H13.8161V13.2591H15.8221L16.2096 10.8354H13.8169V10.0888C13.8169 9.61264 14.1337 9.23074 14.5847 9.23074Z" fill="white"/>
</g>
<defs>
<clipPath id="clip0_312_127">
<rect width="26" height="26" fill="white" transform="translate(0 0.28125)"/>
</clipPath>
</defs>
</svg>
