<svg width="57" height="54" viewBox="0 0 57 54" fill="none" xmlns="http://www.w3.org/2000/svg">
<path opacity="0.4" d="M28.7948 48.8229C41.6814 48.8229 52.1281 38.9359 52.1281 26.7396C52.1281 14.5433 41.6814 4.65625 28.7948 4.65625C15.9081 4.65625 5.46143 14.5433 5.46143 26.7396C5.46143 38.9359 15.9081 48.8229 28.7948 48.8229Z" fill="black"/>
<path d="M21.0483 26.5412L24.8983 27.4467L22.6816 35.9266C22.1683 37.9141 23.1949 38.5767 24.9683 37.4063L37.055 29.4784C38.525 28.5067 38.3149 27.3804 36.5649 26.9608L32.7149 26.0555L34.9316 17.5754C35.445 15.5879 34.4183 14.9254 32.6449 16.0959L20.5583 24.0238C19.0883 24.9955 19.2983 26.1216 21.0483 26.5412Z" fill="black"/>
</svg>
