<svg width="63" height="63" viewBox="0 0 63 63" fill="none" xmlns="http://www.w3.org/2000/svg">
<path d="M0.710938 12.3027C0.710938 5.67532 6.08352 0.302734 12.7109 0.302734H50.8509C57.4784 0.302734 62.8509 5.67532 62.8509 12.3027V50.4396C62.8509 57.067 57.4784 62.4396 50.8509 62.4396H12.7109C6.08352 62.4396 0.710938 57.067 0.710938 50.4396V12.3027Z" fill="#FBF0F3"/>
<path fill-rule="evenodd" clip-rule="evenodd" d="M31.7818 18.45C39.5489 14.4743 44.2986 16.7576 46.2895 20.6723C47.3534 22.7646 48.2102 26.4762 47.7018 30.3492H40.5043L39.5645 28.3915C39.1758 27.4667 37.8745 27.3697 37.3681 28.2623L36.6014 29.613L35.0306 23.3659C34.778 22.108 32.9783 22.0333 32.6386 23.2854L30.9564 29.4739L30.3993 27.4126C30.1517 26.4824 28.9515 26.1783 28.2978 26.917L25.2521 30.3492H15.8615C15.353 26.4762 16.2098 22.7646 17.2742 20.6723C19.2646 16.7576 24.0144 14.4743 31.7818 18.45ZM47.1863 32.8084C45.5219 38.4873 36.9427 45.1153 31.7818 46.0294C26.621 45.1149 18.0418 38.4877 16.3774 32.8088H25.7989C26.2034 32.8088 26.562 32.6132 26.7861 32.3123L28.6205 30.2452L29.7641 34.4991C30.0885 35.7124 31.8103 35.7 32.1363 34.5033L33.7797 28.4616L34.9654 33.1781C35.2432 34.2899 36.7516 34.436 37.2555 33.4295L38.3446 31.5101L38.6314 32.1072C38.8415 32.5467 39.2794 32.8034 39.7362 32.8038L47.1863 32.8084Z" fill="#CA6B6E"/>
</svg>
