<svg width="63" height="63" viewBox="0 0 63 63" fill="none" xmlns="http://www.w3.org/2000/svg">
<path d="M0.773438 12.3477C0.773438 5.72024 6.14602 0.347656 12.7734 0.347656H50.9134C57.5409 0.347656 62.9134 5.72024 62.9134 12.3477V50.4845C62.9134 57.1119 57.5409 62.4845 50.9134 62.4845H12.7734C6.14602 62.4845 0.773438 57.1119 0.773438 50.4845V12.3477Z" fill="#F8DEBD"/>
<path d="M39.2745 14.6348H25.0927C24.3002 14.6348 23.6328 15.3021 23.6328 16.0946V32.3611C23.6328 33.1536 24.3002 33.8209 25.0927 33.8209H39.2745C40.067 33.8209 40.7344 33.1536 40.7344 32.3611V16.0946C40.7344 15.3021 40.067 14.6348 39.2745 14.6348ZM28.6381 27.5645H25.3013V26.3133H28.6381V27.5645ZM34.0606 27.5645H30.3066V26.3133H34.0606V27.5645ZM39.0659 27.5645H35.729V26.3133H39.0659V27.5645Z" fill="#E79B38"/>
<path d="M40.9417 12.1328H23.423C22.1717 12.1328 21.1289 13.1755 21.1289 14.4268V34.7808C21.1289 35.9904 21.5877 37.1165 22.3802 37.9924L24.5075 40.3281L24.5492 40.3698C26.0091 41.9547 26.1759 42.1216 26.5513 42.1216H29.8882V47.6272L30.4722 49.6292H33.9342L34.5182 47.6272V42.1633H37.8551C38.2305 42.1633 38.3973 41.9964 39.8572 40.4115L42.0262 37.9924C42.8187 37.1165 43.2775 35.9486 43.2775 34.7808V14.4268C43.2358 13.1755 42.193 12.1328 40.9417 12.1328ZM27.3856 40.912V39.6607H29.8882V40.912H27.3856ZM32.808 46.3342V43.8316H31.5567V46.3342H31.1396V39.6607H33.2251V46.3342H32.808ZM31.3898 48.4196L31.1396 47.5854H33.1834L32.9331 48.4196H31.3898ZM34.4765 39.6607H36.9791V40.912H34.4765V39.6607ZM41.9845 34.7808C41.9845 35.6567 41.6508 36.4909 41.0668 37.1582L38.9395 39.4939L38.8978 39.5356C38.6893 39.7859 38.439 40.0361 38.2305 40.2447V38.9934C38.2305 38.6597 37.9385 38.3678 37.6048 38.3678H26.7599C26.4262 38.3678 26.1342 38.6597 26.1342 38.9934V40.2447C25.9257 39.9944 25.6754 39.7442 25.4669 39.5356L23.2979 37.1582C22.7139 36.4909 22.3802 35.6567 22.3802 34.7808V14.4268C22.3802 13.8429 22.8391 13.3841 23.423 13.3841H40.9417C41.5256 13.3841 41.9845 13.8429 41.9845 14.4268V34.7808Z" fill="#E79B38"/>
<path d="M27.5702 35.2582C26.9838 35.8446 26.7989 36.6104 27.1573 36.9688C27.5156 37.3271 28.2815 37.1422 28.8679 36.5559C29.4543 35.9695 29.6392 35.2036 29.2808 34.8453C28.9225 34.487 28.1566 34.6718 27.5702 35.2582Z" fill="#E79B38"/>
<path d="M35.078 35.2582C34.4916 35.8446 34.3067 36.6104 34.6651 36.9688C35.0234 37.3271 35.7893 37.1422 36.3757 36.5559C36.9621 35.9695 37.147 35.2036 36.7886 34.8453C36.4303 34.487 35.6644 34.6718 35.078 35.2582Z" fill="#E79B38"/>
<path d="M31.3241 35.2582C30.7377 35.8446 30.5528 36.6104 30.9112 36.9688C31.2695 37.3271 32.0354 37.1422 32.6218 36.5559C33.2082 35.9695 33.3931 35.2036 33.0347 34.8453C32.6764 34.487 31.9105 34.6718 31.3241 35.2582Z" fill="#E79B38"/>
</svg>
