<svg width="63" height="63" viewBox="0 0 63 63" fill="none" xmlns="http://www.w3.org/2000/svg">
<path d="M0.304688 12.3027C0.304688 5.67532 5.67727 0.302734 12.3047 0.302734H50.4447C57.0721 0.302734 62.4447 5.67532 62.4447 12.3027V50.4396C62.4447 57.067 57.0721 62.4396 50.4447 62.4396H12.3047C5.67727 62.4396 0.304688 57.067 0.304688 50.4396V12.3027Z" fill="#F8DEBD"/>
<path d="M38.8057 14.5898H24.624C23.8314 14.5898 23.1641 15.2572 23.1641 16.0497V32.3162C23.1641 33.1086 23.8314 33.776 24.624 33.776H38.8057C39.5982 33.776 40.2656 33.1086 40.2656 32.3162V16.0497C40.2656 15.2572 39.5982 14.5898 38.8057 14.5898ZM28.1694 27.5196H24.8325V26.2684H28.1694V27.5196ZM33.5918 27.5196H29.8378V26.2684H33.5918V27.5196ZM38.5972 27.5196H35.2603V26.2684H38.5972V27.5196Z" fill="#E79B38"/>
<path d="M40.4729 12.0879H22.9543C21.7029 12.0879 20.6602 13.1306 20.6602 14.3819V34.7359C20.6602 35.9454 21.119 37.0716 21.9115 37.9475L24.0388 40.2832L24.0805 40.3249C25.5404 41.9098 25.7072 42.0766 26.0826 42.0766H29.4195V47.5822L30.0034 49.5843H33.4655L34.0494 47.5822V42.1184H37.3863C37.7617 42.1184 37.9286 41.9515 39.3884 40.3666L41.5574 37.9475C42.3499 37.0716 42.8087 35.9037 42.8087 34.7359V14.3819C42.767 13.1306 41.7243 12.0879 40.4729 12.0879ZM26.9168 40.8671V39.6158H29.4195V40.8671H26.9168ZM32.3393 46.2893V43.7867H31.0879V46.2893H30.6708V39.6158H32.7564V46.2893H32.3393ZM30.9211 48.3747L30.6708 47.5405H32.7147L32.4644 48.3747H30.9211ZM34.0077 39.6158H36.5104V40.8671H34.0077V39.6158ZM41.5157 34.7359C41.5157 35.6118 41.182 36.4459 40.5981 37.1133L38.4708 39.449L38.4291 39.4907C38.2205 39.7409 37.9703 39.9912 37.7617 40.1997V38.9485C37.7617 38.6148 37.4697 38.3228 37.136 38.3228H26.2912C25.9575 38.3228 25.6655 38.6148 25.6655 38.9485V40.1997C25.4569 39.9495 25.2067 39.6992 24.9981 39.4907L22.8291 37.1133C22.2452 36.4459 21.9115 35.6118 21.9115 34.7359V14.3819C21.9115 13.798 22.3703 13.3392 22.9543 13.3392H40.4729C41.0569 13.3392 41.5157 13.798 41.5157 14.3819V34.7359Z" fill="#E79B38"/>
<path d="M27.1014 35.2133C26.515 35.7997 26.3302 36.5655 26.6885 36.9238C27.0469 37.2822 27.8128 37.0973 28.3992 36.5109C28.9856 35.9246 29.1704 35.1587 28.8121 34.8004C28.4537 34.442 27.6878 34.6269 27.1014 35.2133Z" fill="#E79B38"/>
<path d="M34.6092 35.2133C34.0228 35.7997 33.838 36.5655 34.1963 36.9238C34.5547 37.2822 35.3206 37.0973 35.907 36.5109C36.4934 35.9246 36.6782 35.1587 36.3199 34.8004C35.9615 34.442 35.1956 34.6269 34.6092 35.2133Z" fill="#E79B38"/>
<path d="M30.8553 35.2133C30.2689 35.7997 30.0841 36.5655 30.4424 36.9238C30.8008 37.2822 31.5667 37.0973 32.1531 36.5109C32.7395 35.9246 32.9243 35.1587 32.566 34.8004C32.2076 34.442 31.4417 34.6269 30.8553 35.2133Z" fill="#E79B38"/>
</svg>
