<svg width="197" height="50" viewBox="0 0 197 50" fill="none" xmlns="http://www.w3.org/2000/svg">
<path d="M186.04 6.25C187.145 6.25 188.205 6.68899 188.987 7.47039C189.768 8.25179 190.207 9.3116 190.207 10.4167V39.5833C190.207 40.6884 189.768 41.7482 188.987 42.5296C188.205 43.311 187.145 43.75 186.04 43.75H156.874C155.769 43.75 154.709 43.311 153.927 42.5296C153.146 41.7482 152.707 40.6884 152.707 39.5833V10.4167C152.707 9.3116 153.146 8.25179 153.927 7.47039C154.709 6.68899 155.769 6.25 156.874 6.25H186.04ZM184.999 38.5417V27.5C184.999 25.6987 184.283 23.9713 183.009 22.6976C181.736 21.4239 180.008 20.7083 178.207 20.7083C176.436 20.7083 174.374 21.7917 173.374 23.4167V21.1042H167.561V38.5417H173.374V28.2708C173.374 26.6667 174.665 25.3542 176.27 25.3542C177.043 25.3542 177.785 25.6615 178.332 26.2084C178.879 26.7554 179.186 27.4973 179.186 28.2708V38.5417H184.999ZM160.79 17.8333C161.719 17.8333 162.609 17.4646 163.265 16.8082C163.922 16.1518 164.29 15.2616 164.29 14.3333C164.29 12.3958 162.728 10.8125 160.79 10.8125C159.857 10.8125 158.961 11.1834 158.301 11.8437C157.64 12.504 157.27 13.3996 157.27 14.3333C157.27 16.2708 158.853 17.8333 160.79 17.8333ZM163.686 38.5417V21.1042H157.915V38.5417H163.686Z" fill="black"/>
<path d="M98.4583 4.16602C86.9479 4.16602 77.625 13.4889 77.625 24.9993C77.6225 29.3726 78.9971 33.6356 81.5538 37.1836C84.1105 40.7316 87.7194 43.3846 91.8688 44.766C92.9104 44.9473 93.3021 44.3223 93.3021 43.7743C93.3021 43.2806 93.275 41.641 93.275 39.8952C88.0417 40.8598 86.6875 38.6202 86.2708 37.4473C86.0354 36.8473 85.0208 34.9993 84.1354 34.5035C83.4063 34.1139 82.3646 33.1493 84.1083 33.1243C85.75 33.0973 86.9208 34.6348 87.3125 35.2598C89.1875 38.4098 92.1813 37.5243 93.3792 36.9785C93.5625 35.6243 94.1083 34.7139 94.7083 34.1931C90.0729 33.6723 85.2292 31.8743 85.2292 23.9056C85.2292 21.6389 86.0354 19.766 87.3646 18.3056C87.1563 17.7848 86.4271 15.6493 87.5729 12.7848C87.5729 12.7848 89.3167 12.2389 93.3021 14.9223C94.9981 14.4516 96.7503 14.2146 98.5104 14.2181C100.281 14.2181 102.052 14.4514 103.719 14.9202C107.704 12.2118 109.448 12.7868 109.448 12.7868C110.594 15.6514 109.865 17.7868 109.656 18.3077C110.983 19.766 111.792 21.6139 111.792 23.9056C111.792 31.9014 106.923 33.6723 102.285 34.1931C103.042 34.8431 103.694 36.0931 103.694 38.0473C103.694 40.8327 103.667 43.0723 103.667 43.7764C103.667 44.3223 104.058 44.9723 105.1 44.7639C109.235 43.3673 112.828 40.7092 115.374 37.1638C117.919 33.6183 119.289 29.3639 119.29 24.9993C119.29 13.4889 109.967 4.16602 98.4563 4.16602H98.4583Z" fill="black"/>
<path d="M35.3213 9.03951L32.6546 11.1228L21.3004 19.5603L9.94627 11.0395L7.2796 8.95617C6.65138 8.43647 5.8845 8.11251 5.07395 8.0244C4.26341 7.9363 3.44483 8.08793 2.71962 8.46051C1.99441 8.8331 1.39445 9.41026 0.994062 10.1205C0.593673 10.8307 0.410454 11.6428 0.467103 12.4562V36.602C0.467103 37.3534 0.765614 38.0741 1.29697 38.6055C1.82832 39.1368 2.54899 39.4353 3.30044 39.4353H9.94627V23.352L21.3004 31.8728L32.6546 23.352V39.4353H39.3004C40.0519 39.4353 40.7726 39.1368 41.3039 38.6055C41.8353 38.0741 42.1338 37.3534 42.1338 36.602V12.4562C42.1729 11.6498 41.9769 10.8495 41.5697 10.1525C41.1625 9.45543 40.5616 8.89169 39.8399 8.52978C39.1183 8.16787 38.3071 8.02338 37.5049 8.11387C36.7028 8.20436 35.9441 8.52594 35.3213 9.03951Z" fill="black"/>
</svg>
