<svg width="54" height="63" viewBox="0 0 54 63" fill="none" xmlns="http://www.w3.org/2000/svg">
<path d="M0.484375 12.623C0.484375 5.99563 5.85696 0.623047 12.4844 0.623047H41.9368C48.5642 0.623047 53.9368 5.99563 53.9368 12.623V50.7631C53.9368 57.3905 48.5642 62.763 41.9368 62.763H12.4844C5.85696 62.763 0.484375 57.3905 0.484375 50.763V12.623Z" fill="#D0FBFF"/>
<path d="M27.2437 14.3359C27.2437 24.4871 18.3555 31.7883 18.3555 39.09C18.3555 44.6961 22.3348 49.2407 27.2437 49.2407C32.1519 49.2407 36.1309 44.6961 36.1309 39.09C36.1309 31.7883 27.2437 24.4871 27.2437 14.3359ZM30.8192 44.3192H23.6668V42.1053L30.8192 42.1069V44.3192ZM30.8192 36.6597L28.2134 36.6581V39.6376H26.2719V36.6581H23.6665V34.4442H26.2719V31.4678H28.2134V34.4442H30.8192V36.6597Z" fill="#478F96"/>
</svg>
