<svg width="63" height="63" viewBox="0 0 63 63" fill="none" xmlns="http://www.w3.org/2000/svg">
<path d="M0 12.8359C0 6.20852 5.37258 0.835938 12 0.835938H50.2606C56.888 0.835938 62.2606 6.20852 62.2606 12.8359V50.8359C62.2606 57.4634 56.888 62.8359 50.2606 62.8359H12C5.37257 62.8359 0 57.4634 0 50.8359V12.8359Z" fill="#D0FBFF"/>
<path d="M31.1693 14.5176C31.1693 24.6459 20.8164 31.9306 20.8164 39.2158C20.8164 44.8093 25.4514 49.3437 31.1693 49.3437C36.8863 49.3437 41.521 44.8093 41.521 39.2158C41.521 31.9306 31.1693 24.6459 31.1693 14.5176ZM35.334 44.4333H27.003V42.2244L35.334 42.2259V44.4333ZM35.334 36.791L32.2988 36.7895V39.7623H30.0374V36.7895H27.0026V34.5806H30.0374V31.6109H32.2988V34.5806H35.334V36.791Z" fill="#478F96"/>
</svg>
