<svg width="63" height="63" viewBox="0 0 63 63" fill="none" xmlns="http://www.w3.org/2000/svg">
<path d="M0.714844 12.1035C0.714844 5.47609 6.08743 0.103516 12.7148 0.103516H50.8548C57.4823 0.103516 62.8548 5.4761 62.8548 12.1035V50.2435C62.8548 56.8709 57.4823 62.2435 50.8548 62.2435H12.7148C6.08742 62.2435 0.714844 56.8709 0.714844 50.2435V12.1035Z" fill="#D0FBFF"/>
<path d="M31.825 13.8164C31.825 23.9676 21.4922 31.2688 21.4922 38.5704C21.4922 44.1765 26.1182 48.7212 31.825 48.7212C37.531 48.7212 42.1566 44.1765 42.1566 38.5704C42.1566 31.2688 31.825 23.9676 31.825 13.8164ZM35.9816 43.7997H27.6668V41.5858L35.9816 41.5873V43.7997ZM35.9816 36.1401L32.9524 36.1386V39.1181H30.6953V36.1386H27.6664V33.9247H30.6953V30.9483H32.9524V33.9247H35.9816V36.1401Z" fill="#478F96"/>
</svg>
