<svg width="55" height="63" viewBox="0 0 55 63" fill="none" xmlns="http://www.w3.org/2000/svg">
<path d="M0.882812 12.5723C0.882812 5.94484 6.25539 0.572266 12.8828 0.572266H42.3352C48.9626 0.572266 54.3352 5.94485 54.3352 12.5723V50.7123C54.3352 57.3397 48.9626 62.7123 42.3352 62.7123H12.8828C6.25539 62.7123 0.882812 57.3397 0.882812 50.7123V12.5723Z" fill="#D0FBFF"/>
<path d="M27.6421 14.2852C27.6421 24.4363 18.7539 31.7375 18.7539 39.0392C18.7539 44.6453 22.7332 49.1899 27.6421 49.1899C32.5504 49.1899 36.5293 44.6453 36.5293 39.0392C36.5293 31.7375 27.6421 24.4363 27.6421 14.2852ZM31.2176 44.2684H24.0653V42.0545L31.2176 42.0561V44.2684ZM31.2176 36.6089L28.6119 36.6074V39.5869H26.6703V36.6074H24.0649V34.3935H26.6703V31.417H28.6119V34.3935H31.2176V36.6089Z" fill="#478F96"/>
</svg>
