<svg width="63" height="64" viewBox="0 0 63 64" fill="none" xmlns="http://www.w3.org/2000/svg">
<path d="M0.710938 12.9395C0.710938 6.31204 6.08352 0.939453 12.7109 0.939453H50.8509C57.4784 0.939453 62.8509 6.31204 62.8509 12.9395V51.0763C62.8509 57.7037 57.4784 63.0763 50.8509 63.0763H12.7109C6.08352 63.0763 0.710938 57.7037 0.710938 51.0763V12.9395Z" fill="#FBF0F3"/>
<path fill-rule="evenodd" clip-rule="evenodd" d="M31.7818 19.0867C39.5489 15.111 44.2986 17.3943 46.2895 21.309C47.3534 23.4013 48.2102 27.1129 47.7018 30.9859H40.5043L39.5645 29.0282C39.1758 28.1034 37.8745 28.0064 37.3681 28.899L36.6014 30.2497L35.0306 24.0026C34.778 22.7447 32.9783 22.67 32.6386 23.9221L30.9564 30.1106L30.3993 28.0493C30.1517 27.1191 28.9515 26.815 28.2978 27.5537L25.2521 30.9859H15.8615C15.353 27.1129 16.2098 23.4013 17.2742 21.309C19.2646 17.3943 24.0144 15.111 31.7818 19.0867ZM47.1863 33.4451C45.5219 39.124 36.9427 45.752 31.7818 46.6661C26.621 45.7516 18.0418 39.1244 16.3774 33.4455H25.7989C26.2034 33.4455 26.562 33.2499 26.7861 32.9491L28.6205 30.8819L29.7641 35.1358C30.0885 36.3491 31.8103 36.3367 32.1363 35.14L33.7797 29.0983L34.9654 33.8149C35.2432 34.9266 36.7516 35.0727 37.2555 34.0662L38.3446 32.1468L38.6314 32.744C38.8415 33.1835 39.2794 33.4401 39.7362 33.4406L47.1863 33.4451Z" fill="#CA6B6E"/>
</svg>
