<svg width="63" height="63" viewBox="0 0 63 63" fill="none" xmlns="http://www.w3.org/2000/svg">
<path d="M0.242188 12.3477C0.242188 5.72024 5.61477 0.347656 12.2422 0.347656H50.3822C57.0096 0.347656 62.3822 5.72024 62.3822 12.3477V50.4845C62.3822 57.1119 57.0096 62.4845 50.3822 62.4845H12.2422C5.61477 62.4845 0.242188 57.1119 0.242188 50.4845V12.3477Z" fill="#FBF0F3"/>
<path fill-rule="evenodd" clip-rule="evenodd" d="M31.3131 18.4949C39.0801 14.5192 43.8299 16.8025 45.8207 20.7172C46.8847 22.8095 47.7415 26.5211 47.233 30.3941H40.0355L39.0958 28.4364C38.707 27.5116 37.4058 27.4146 36.8994 28.3072L36.1326 29.6579L34.5619 23.4108C34.3093 22.1529 32.5095 22.0782 32.1698 23.3303L30.4877 29.5188L29.9305 27.4575C29.6829 26.5273 28.4828 26.2232 27.8291 26.9619L24.7833 30.3941H15.3927C14.8843 26.5211 15.7411 22.8095 16.8054 20.7172C18.7959 16.8025 23.5456 14.5192 31.3131 18.4949ZM46.7175 32.8533C45.0531 38.5322 36.4739 45.1602 31.3131 46.0743C26.1523 45.1598 17.573 38.5326 15.9086 32.8537H25.3302C25.7346 32.8537 26.0932 32.6581 26.3173 32.3573L28.1518 30.2901L29.2954 34.5441C29.6198 35.7573 31.3416 35.7449 31.6676 34.5482L33.311 28.5065L34.4967 33.2231C34.7744 34.3348 36.2828 34.4809 36.7867 33.4744L37.8758 31.555L38.1627 32.1522C38.3727 32.5917 38.8106 32.8484 39.2675 32.8488L46.7175 32.8533Z" fill="#CA6B6E"/>
</svg>
