<svg width="63" height="63" viewBox="0 0 63 63" fill="none" xmlns="http://www.w3.org/2000/svg">
<path d="M0.242188 12.1035C0.242188 5.4761 5.61477 0.103516 12.2422 0.103516H50.3822C57.0096 0.103516 62.3822 5.4761 62.3822 12.1035V50.2404C62.3822 56.8678 57.0096 62.2404 50.3822 62.2404H12.2422C5.61477 62.2404 0.242188 56.8678 0.242188 50.2404V12.1035Z" fill="#FBF0F3"/>
<path fill-rule="evenodd" clip-rule="evenodd" d="M31.3131 18.2508C39.0801 14.275 43.8299 16.5584 45.8207 20.4731C46.8847 22.5654 47.7415 26.277 47.233 30.15H40.0355L39.0958 28.1922C38.707 27.2674 37.4058 27.1705 36.8994 28.0631L36.1326 29.4138L34.5619 23.1666C34.3093 21.9088 32.5095 21.8341 32.1698 23.0862L30.4877 29.2747L29.9305 27.2134C29.6829 26.2832 28.4828 25.979 27.8291 26.7177L24.7833 30.15H15.3927C14.8843 26.277 15.7411 22.5654 16.8054 20.4731C18.7959 16.5584 23.5456 14.275 31.3131 18.2508ZM46.7175 32.6092C45.0531 38.288 36.4739 44.9161 31.3131 45.8302C26.1523 44.9157 17.573 38.2885 15.9086 32.6096H25.3302C25.7346 32.6096 26.0932 32.414 26.3173 32.1131L28.1518 30.046L29.2954 34.2999C29.6198 35.5132 31.3416 35.5008 31.6676 34.304L33.311 28.2624L34.4967 32.9789C34.7744 34.0907 36.2828 34.2368 36.7867 33.2302L37.8758 31.3109L38.1627 31.908C38.3727 32.3475 38.8106 32.6042 39.2675 32.6046L46.7175 32.6092Z" fill="#CA6B6E"/>
</svg>
