<svg width="42" height="50" viewBox="0 0 42 50" fill="none" xmlns="http://www.w3.org/2000/svg">
<path d="M40.6797 16.2695C40.9422 17.1191 40.7207 18.0664 40.1547 18.6719L36.6027 22.5195C36.6929 23.3301 36.7422 24.1602 36.7422 25C36.7422 25.8398 36.6929 26.6699 36.6027 27.4805L40.1547 31.3281C40.7207 31.9336 40.9422 32.8809 40.6797 33.7305C40.3187 34.8926 39.884 36.0059 39.3836 37.0801L38.998 37.8711C38.4566 38.9453 37.8496 39.9609 37.1851 40.918C36.7011 41.6211 35.8972 41.8555 35.1754 41.582L30.6062 39.8535C29.507 40.8594 28.2929 41.6992 26.9968 42.334L25.9715 47.9102C25.8074 48.7988 25.2332 49.502 24.4785 49.6484C23.3465 49.873 22.1816 49.9902 20.9922 49.9902C19.8027 49.9902 18.6379 49.873 17.5058 49.6484C16.7511 49.502 16.1769 48.7988 16.0129 47.9102L14.9875 42.334C13.6914 41.6992 12.4773 40.8594 11.3781 39.8535L6.81716 41.5918C6.09528 41.8652 5.29138 41.6211 4.80739 40.9277C4.14294 39.9707 3.53591 38.9551 2.9945 37.8809L2.60896 37.0898C2.10857 36.0156 1.6738 34.9023 1.31286 33.7402C1.05036 32.8906 1.27185 31.9434 1.83786 31.3379L5.38982 27.4902C5.29958 26.6699 5.25036 25.8398 5.25036 25C5.25036 24.1602 5.29958 23.3301 5.38982 22.5195L1.83786 18.6719C1.27185 18.0664 1.05036 17.1191 1.31286 16.2695C1.6738 15.1074 2.10857 13.9941 2.60896 12.9199L2.9945 12.1289C3.53591 11.0547 4.14294 10.0391 4.80739 9.08203C5.29138 8.37891 6.09528 8.14453 6.81716 8.41797L11.3863 10.1465C12.4855 9.14063 13.6996 8.30078 14.9957 7.66602L16.0211 2.08984C16.1851 1.20117 16.7593 0.498047 17.514 0.351562C18.6461 0.117187 19.8109 0 21.0004 0C22.1898 0 23.3547 0.117188 24.4867 0.341797C25.2414 0.488281 25.8156 1.19141 25.9797 2.08008L27.005 7.65625C28.3011 8.29102 29.5152 9.13086 30.6144 10.1367L35.1836 8.4082C35.9054 8.13477 36.7093 8.37891 37.1933 9.07227C37.8578 10.0293 38.4648 11.0449 39.0062 12.1191L39.3918 12.9102C39.8922 13.9844 40.3269 15.0977 40.6879 16.2598L40.6797 16.2695ZM21.0004 32.8125C22.7408 32.8125 24.41 31.9894 25.6407 30.5243C26.8715 29.0591 27.5629 27.072 27.5629 25C27.5629 22.928 26.8715 20.9409 25.6407 19.4757C24.41 18.0106 22.7408 17.1875 21.0004 17.1875C19.2599 17.1875 17.5907 18.0106 16.36 19.4757C15.1293 20.9409 14.4379 22.928 14.4379 25C14.4379 27.072 15.1293 29.0591 16.36 30.5243C17.5907 31.9894 19.2599 32.8125 21.0004 32.8125Z" fill="black" fill-opacity="0.49"/>
</svg>
