<svg width="38" height="48" viewBox="0 0 38 48" fill="none" xmlns="http://www.w3.org/2000/svg">
<g clip-path="url(#clip0_395_1897)">
<path d="M36.4171 15.8132C36.6426 16.617 36.4465 17.5114 35.9519 18.0817L32.8477 21.7062C32.9233 22.4725 32.9632 23.257 32.9603 24.0507C32.9573 24.8443 32.9116 25.6286 32.8302 26.3943L35.9073 30.0418C36.3976 30.6158 36.587 31.5117 36.3556 32.3137C36.0375 33.4107 35.6552 34.4614 35.216 35.4749L34.8778 36.2211C34.4029 37.2345 33.8711 38.1923 33.2896 39.0945C32.866 39.7574 32.1657 39.9763 31.5385 39.7155L27.5689 38.0673C26.6089 39.0142 25.5495 39.8039 24.4196 40.3996L23.5077 45.6657C23.3618 46.5049 22.8597 47.1675 22.2025 47.3035C21.2167 47.5121 20.2027 47.6191 19.1677 47.6152C18.1328 47.6113 17.1196 47.4968 16.1354 47.2809C15.4793 47.14 14.9821 46.4737 14.8425 45.6334L13.9699 40.3606C12.8444 39.7566 11.791 38.959 10.838 38.0049L6.86334 39.6327C6.23426 39.8888 5.53562 39.6555 5.11693 38.9987C4.54215 38.0921 4.01754 37.1304 3.55023 36.1135L3.21755 35.3648C2.78593 34.348 2.41155 33.2946 2.10159 32.1952C1.87617 31.3915 2.07223 30.497 2.56687 29.9267L5.67107 26.3022C5.59544 25.5267 5.55554 24.7422 5.5585 23.9485C5.56146 23.1549 5.60721 22.3706 5.68858 21.6049L2.6115 17.9574C2.12113 17.3834 1.93175 16.4875 2.16315 15.6855C2.48131 14.5885 2.86353 13.5379 3.30272 12.5243L3.64098 11.7781C4.11586 10.7647 4.64763 9.80693 5.22916 8.9047C5.65276 8.24182 6.35308 8.02295 6.98024 8.28369L10.9499 9.93195C11.9099 8.98498 12.9692 8.19528 14.0992 7.59963L15.0111 2.33352C15.157 1.49426 15.6591 0.831673 16.3163 0.695695C17.3021 0.477885 18.3161 0.370924 19.351 0.374783C20.386 0.378643 21.3992 0.493164 22.3834 0.709091C23.0395 0.849966 23.5367 1.51628 23.6763 2.3566L24.5489 7.62937C25.6744 8.23343 26.7278 9.03101 27.6808 9.98511L31.6626 8.3665C32.2916 8.11044 32.9903 8.34376 33.409 9.00056C33.9837 9.9071 34.5084 10.8688 34.9757 11.8857L35.3084 12.6345C35.74 13.6512 36.1143 14.7047 36.4243 15.804L36.4171 15.8132ZM19.2354 31.3824C20.7499 31.388 22.2052 30.6156 23.2812 29.2351C24.3572 27.8545 24.9658 25.9789 24.9731 24.0209C24.9804 22.0629 24.3858 20.1828 23.3201 18.7943C22.2544 17.4057 20.8049 16.6225 19.2905 16.6169C17.776 16.6112 16.3207 17.3836 15.2447 18.7642C14.1687 20.1447 13.5601 22.0203 13.5528 23.9783C13.5455 25.9364 14.1401 27.8164 15.2058 29.205C16.2715 30.5935 17.721 31.3767 19.2354 31.3824Z" fill="white"/>
</g>
<defs>
<clipPath id="clip0_395_1897">
<rect width="36.5455" height="47.25" fill="white" transform="translate(1.07812 0.306641) rotate(0.213656)"/>
</clipPath>
</defs>
</svg>
