<svg width="38" height="48" viewBox="0 0 38 48" fill="none" xmlns="http://www.w3.org/2000/svg">
<g clip-path="url(#clip0_405_2363)">
<path d="M36.1896 15.4997C36.418 16.3026 36.2252 17.1978 35.7327 17.7699L32.6421 21.406C32.7206 22.1719 32.7634 22.9563 32.7634 23.75C32.7634 24.5437 32.7206 25.3281 32.6421 26.094L35.7327 29.7301C36.2252 30.3022 36.418 31.1974 36.1896 32.0003C35.8755 33.0985 35.4972 34.1505 35.0618 35.1657L34.7263 35.9132C34.2552 36.9283 33.727 37.8881 33.1489 38.7925C32.7277 39.4569 32.0282 39.6784 31.4001 39.42L27.4244 37.7866C26.4679 38.7371 25.4115 39.5308 24.2837 40.1306L23.3915 45.4001C23.2488 46.2399 22.7491 46.9043 22.0924 47.0428C21.1074 47.255 20.0939 47.3658 19.0589 47.3658C18.0239 47.3658 17.0103 47.255 16.0253 47.0428C15.3686 46.9043 14.869 46.2399 14.7262 45.4001L13.834 40.1306C12.7062 39.5308 11.6499 38.7371 10.6934 37.7866L6.72478 39.4292C6.09666 39.6876 5.39716 39.4569 4.97603 38.8017C4.39787 37.8973 3.86967 36.9375 3.39858 35.9224L3.0631 35.1749C2.6277 34.1598 2.24939 33.1077 1.93533 32.0095C1.70692 31.2066 1.89964 30.3115 2.39215 29.7393L5.48281 26.1033C5.40429 25.3281 5.36147 24.5437 5.36147 23.75C5.36147 22.9563 5.40429 22.1719 5.48281 21.406L2.39215 17.7699C1.89964 17.1978 1.70692 16.3026 1.93533 15.4997C2.24939 14.4015 2.6277 13.3495 3.0631 12.3343L3.39858 11.5868C3.86967 10.5717 4.39787 9.61191 4.97603 8.70752C5.39716 8.04307 6.09666 7.82158 6.72478 8.07998L10.7005 9.71343C11.657 8.76289 12.7134 7.96924 13.8412 7.36938L14.7334 2.0999C14.8761 1.26011 15.3758 0.595654 16.0325 0.457227C17.0175 0.235742 18.031 0.125 19.066 0.125C20.101 0.125 21.1146 0.235742 22.0996 0.447998C22.7562 0.586426 23.2559 1.25088 23.3986 2.09067L24.2909 7.36016C25.4186 7.96001 26.475 8.75366 27.4315 9.7042L31.4072 8.07075C32.0354 7.81235 32.7349 8.04307 33.156 8.69829C33.7342 9.60268 34.2624 10.5625 34.7334 11.5776L35.0689 12.3251C35.5043 13.3402 35.8826 14.3923 36.1967 15.4905L36.1896 15.4997ZM19.066 31.1328C20.5805 31.1328 22.0329 30.355 23.1038 28.9704C24.1746 27.5859 24.7762 25.708 24.7762 23.75C24.7762 21.792 24.1746 19.9141 23.1038 18.5296C22.0329 17.145 20.5805 16.3672 19.066 16.3672C17.5516 16.3672 16.0991 17.145 15.0283 18.5296C13.9574 19.9141 13.3558 21.792 13.3558 23.75C13.3558 25.708 13.9574 27.5859 15.0283 28.9704C16.0991 30.355 17.5516 31.1328 19.066 31.1328Z" fill="white"/>
</g>
<defs>
<clipPath id="clip0_405_2363">
<rect width="36.5455" height="47.25" fill="white" transform="translate(0.792969 0.125)"/>
</clipPath>
</defs>
</svg>
