<svg width="37" height="38" viewBox="0 0 37 38" fill="none" xmlns="http://www.w3.org/2000/svg">
<g clip-path="url(#clip0_454_339)">
<path d="M35.2351 12.3994C35.4586 13.0417 35.27 13.7578 34.788 14.2155L31.7636 17.1244C31.8404 17.7371 31.8823 18.3647 31.8823 18.9996C31.8823 19.6345 31.8404 20.2621 31.7636 20.8748L34.788 23.7837C35.27 24.2414 35.4586 24.9575 35.2351 25.5998C34.9277 26.4784 34.5575 27.32 34.1315 28.1321L33.8032 28.7302C33.3422 29.5423 32.8253 30.3101 32.2595 31.0336C31.8474 31.5652 31.1629 31.7423 30.5482 31.5356L26.6576 30.2289C25.7216 30.9893 24.6879 31.6242 23.5843 32.1041L22.7111 36.3197C22.5714 36.9915 22.0825 37.5231 21.4399 37.6338C20.476 37.8036 19.4841 37.8922 18.4713 37.8922C17.4585 37.8922 16.4666 37.8036 15.5027 37.6338C14.8601 37.5231 14.3712 36.9915 14.2315 36.3197L13.3584 32.1041C12.2547 31.6242 11.221 30.9893 10.285 30.2289L6.4014 31.543C5.78673 31.7497 5.10221 31.5652 4.6901 31.041C4.12432 30.3175 3.60744 29.5496 3.14644 28.7375L2.81815 28.1395C2.39207 27.3274 2.02187 26.4858 1.71453 25.6072C1.49102 24.9649 1.67961 24.2488 2.16157 23.7911L5.18603 20.8822C5.1092 20.2621 5.06729 19.6345 5.06729 18.9996C5.06729 18.3647 5.1092 17.7371 5.18603 17.1244L2.16157 14.2155C1.67961 13.7578 1.49102 13.0417 1.71453 12.3994C2.02187 11.5208 2.39207 10.6792 2.81815 9.86707L3.14644 9.26906C3.60744 8.45695 4.12432 7.68914 4.6901 6.96562C5.10221 6.43406 5.78673 6.25687 6.4014 6.46359L10.292 7.77035C11.228 7.00992 12.2617 6.375 13.3653 5.89512L14.2385 1.67953C14.3782 1.0077 14.8671 0.476133 15.5097 0.365391C16.4736 0.188203 17.4655 0.0996094 18.4783 0.0996094C19.4911 0.0996094 20.483 0.188203 21.4469 0.358008C22.0895 0.46875 22.5784 1.00031 22.7181 1.67215L23.5912 5.88773C24.6949 6.36762 25.7286 7.00254 26.6646 7.76297L30.5552 6.45621C31.1699 6.24949 31.8544 6.43406 32.2665 6.95824C32.8323 7.68176 33.3491 8.44957 33.8101 9.26168L34.1384 9.85969C34.5645 10.6718 34.9347 11.5134 35.2421 12.392L35.2351 12.3994ZM18.4783 24.9059C19.9603 24.9059 21.3816 24.2836 22.4296 23.176C23.4775 22.0683 24.0662 20.566 24.0662 18.9996C24.0662 17.4332 23.4775 15.9309 22.4296 14.8233C21.3816 13.7156 19.9603 13.0934 18.4783 13.0934C16.9963 13.0934 15.575 13.7156 14.527 14.8233C13.4791 15.9309 12.8904 17.4332 12.8904 18.9996C12.8904 20.566 13.4791 22.0683 14.527 23.176C15.575 24.2836 16.9963 24.9059 18.4783 24.9059Z" fill="white"/>
</g>
<defs>
<clipPath id="clip0_454_339">
<rect width="35.7627" height="37.8" fill="white" transform="translate(0.597656 0.0996094)"/>
</clipPath>
</defs>
</svg>