<svg width="38" height="48" viewBox="0 0 38 48" fill="none" xmlns="http://www.w3.org/2000/svg">
<g clip-path="url(#clip0_379_518)">
<path d="M36.1817 15.4997C36.4102 16.3026 36.2174 17.1978 35.7249 17.7699L32.6343 21.406C32.7128 22.1719 32.7556 22.9563 32.7556 23.75C32.7556 24.5437 32.7128 25.3281 32.6343 26.094L35.7249 29.7301C36.2174 30.3022 36.4102 31.1974 36.1817 32.0003C35.8677 33.0985 35.4894 34.1505 35.054 35.1657L34.7185 35.9132C34.2474 36.9283 33.7192 37.8881 33.141 38.7925C32.7199 39.4569 32.0204 39.6784 31.3923 39.42L27.4165 37.7866C26.4601 38.7371 25.4037 39.5308 24.2759 40.1306L23.3837 45.4001C23.2409 46.2399 22.7413 46.9043 22.0846 47.0428C21.0996 47.255 20.086 47.3658 19.0511 47.3658C18.0161 47.3658 17.0025 47.255 16.0175 47.0428C15.3608 46.9043 14.8612 46.2399 14.7184 45.4001L13.8262 40.1306C12.6984 39.5308 11.642 38.7371 10.6856 37.7866L6.71697 39.4292C6.08885 39.6876 5.38934 39.4569 4.96821 38.8017C4.39005 37.8973 3.86186 36.9375 3.39076 35.9224L3.05529 35.1749C2.61988 34.1598 2.24158 33.1077 1.92752 32.0095C1.69911 31.2066 1.89183 30.3115 2.38434 29.7393L5.475 26.1033C5.39648 25.3281 5.35365 24.5437 5.35365 23.75C5.35365 22.9563 5.39648 22.1719 5.475 21.406L2.38434 17.7699C1.89183 17.1978 1.69911 16.3026 1.92752 15.4997C2.24158 14.4015 2.61988 13.3495 3.05529 12.3343L3.39076 11.5868C3.86186 10.5717 4.39005 9.61191 4.96821 8.70752C5.38934 8.04307 6.08885 7.82158 6.71697 8.07998L10.6927 9.71343C11.6492 8.76289 12.7056 7.96924 13.8333 7.36938L14.7256 2.0999C14.8683 1.26011 15.368 0.595654 16.0246 0.457227C17.0097 0.235742 18.0232 0.125 19.0582 0.125C20.0932 0.125 21.1067 0.235742 22.0918 0.447998C22.7484 0.586426 23.2481 1.25088 23.3908 2.09067L24.2831 7.36016C25.4108 7.96001 26.4672 8.75366 27.4237 9.7042L31.3994 8.07075C32.0276 7.81235 32.7271 8.04307 33.1482 8.69829C33.7263 9.60269 34.2545 10.5625 34.7256 11.5776L35.0611 12.3251C35.4965 13.3402 35.8748 14.3923 36.1889 15.4905L36.1817 15.4997ZM19.0582 31.1328C20.5726 31.1328 22.0251 30.355 23.0959 28.9704C24.1668 27.5859 24.7684 25.708 24.7684 23.75C24.7684 21.792 24.1668 19.9141 23.0959 18.5296C22.0251 17.145 20.5726 16.3672 19.0582 16.3672C17.5438 16.3672 16.0913 17.145 15.0205 18.5296C13.9496 19.9141 13.348 21.792 13.348 23.75C13.348 25.708 13.9496 27.5859 15.0205 28.9704C16.0913 30.355 17.5438 31.1328 19.0582 31.1328Z" fill="white"/>
</g>
<defs>
<clipPath id="clip0_379_518">
<rect width="36.5455" height="47.25" fill="white" transform="translate(0.785156 0.125)"/>
</clipPath>
</defs>
</svg>
