<svg width="55" height="54" viewBox="0 0 55 54" fill="none" xmlns="http://www.w3.org/2000/svg">
<g clip-path="url(#clip0_424_1793)">
<path d="M53.2697 17.3422C53.6134 18.2478 53.3234 19.2575 52.5822 19.9029L47.9308 24.0042C48.049 24.8682 48.1134 25.753 48.1134 26.6482C48.1134 27.5434 48.049 28.4282 47.9308 29.2922L52.5822 33.3936C53.3234 34.0389 53.6134 35.0487 53.2697 35.9543C52.797 37.193 52.2277 38.3797 51.5724 39.5247L51.0675 40.3679C50.3585 41.5129 49.5636 42.5955 48.6935 43.6157C48.0597 44.3651 47.007 44.615 46.0617 44.3235L40.0783 42.481C38.6388 43.5532 37.049 44.4484 35.3517 45.125L34.0089 51.0688C33.7941 52.0161 33.0421 52.7656 32.0539 52.9217C30.5714 53.1611 29.046 53.286 27.4884 53.286C25.9308 53.286 24.4054 53.1611 22.923 52.9217C21.9347 52.7656 21.1828 52.0161 20.9679 51.0688L19.6251 45.125C17.9279 44.4484 16.338 43.5532 14.8986 42.481L8.92593 44.3339C7.98062 44.6254 6.92788 44.3651 6.2941 43.6261C5.42398 42.6059 4.62906 41.5234 3.92007 40.3783L3.41519 39.5351C2.75992 38.3901 2.19058 37.2034 1.71792 35.9647C1.37417 35.0591 1.66421 34.0494 2.40542 33.404L7.05679 29.3026C6.93863 28.4282 6.87417 27.5434 6.87417 26.6482C6.87417 25.753 6.93863 24.8682 7.05679 24.0042L2.40542 19.9029C1.66421 19.2575 1.37417 18.2478 1.71792 17.3422C2.19058 16.1034 2.75992 14.9168 3.41519 13.7717L3.92007 12.9286C4.62906 11.7835 5.42398 10.7009 6.2941 9.6808C6.92788 8.93132 7.98062 8.68149 8.92593 8.97296L14.9093 10.8154C16.3488 9.74326 17.9386 8.84805 19.6359 8.17143L20.9787 2.22763C21.1935 1.28036 21.9455 0.530883 22.9337 0.374741C24.4162 0.124914 25.9416 0 27.4992 0C29.0568 0 30.5822 0.124914 32.0646 0.364331C33.0529 0.520473 33.8048 1.26995 34.0197 2.21722L35.3625 8.16102C37.0597 8.83764 38.6496 9.73285 40.089 10.805L46.0724 8.96255C47.0177 8.67108 48.0705 8.93132 48.7043 9.67039C49.5744 10.6905 50.3693 11.7731 51.0783 12.9181L51.5832 13.7613C52.2384 14.9064 52.8078 16.093 53.2804 17.3318L53.2697 17.3422ZM27.4992 34.9758C29.7784 34.9758 31.9642 34.0984 33.5759 32.5367C35.1875 30.975 36.0929 28.8568 36.0929 26.6482C36.0929 24.4396 35.1875 22.3215 33.5759 20.7597C31.9642 19.198 29.7784 18.3207 27.4992 18.3207C25.22 18.3207 23.0341 19.198 21.4225 20.7597C19.8108 22.3215 18.9054 24.4396 18.9054 26.6482C18.9054 28.8568 19.8108 30.975 21.4225 32.5367C23.0341 34.0984 25.22 34.9758 27.4992 34.9758Z" fill="black" fill-opacity="0.49"/>
</g>
<defs>
<clipPath id="clip0_424_1793">
<rect width="55" height="53.2965" fill="white"/>
</clipPath>
</defs>
</svg>
