<svg width="22" height="23" viewBox="0 0 22 23" fill="none" xmlns="http://www.w3.org/2000/svg">
<g clip-path="url(#clip0_312_118)">
<path d="M21.1676 9.52973L12.194 9.5293C11.7978 9.5293 11.4766 9.85045 11.4766 10.2467V13.1134C11.4766 13.5095 11.7978 13.8308 12.194 13.8308H17.2474C16.694 15.2668 15.6612 16.4695 14.3435 17.2336L16.4983 20.9637C19.9548 18.9647 21.9983 15.4572 21.9983 11.5308C21.9983 10.9717 21.9571 10.5721 21.8747 10.1221C21.812 9.78015 21.5152 9.52973 21.1676 9.52973Z" fill="#167EE6"/>
<path d="M11.0019 18.1378C8.52885 18.1378 6.36993 16.7866 5.21041 14.7871L1.48047 16.937C3.37861 20.2268 6.93445 22.4421 11.0019 22.4421C12.9972 22.4421 14.88 21.9049 16.5019 20.9686V20.9635L14.3471 17.2334C13.3615 17.8051 12.2209 18.1378 11.0019 18.1378Z" fill="#12B347"/>
<path d="M16.5 20.9677V20.9625L14.3452 17.2324C13.3596 17.804 12.2192 18.1368 11 18.1368V22.4411C12.9953 22.4411 14.8782 21.9039 16.5 20.9677Z" fill="#0F993E"/>
<path d="M4.30435 11.4422C4.30435 10.2232 4.63702 9.08274 5.20854 8.09716L1.4786 5.94727C0.537195 7.56405 0 9.4417 0 11.4422C0 13.4426 0.537195 15.3203 1.4786 16.937L5.20854 14.7871C4.63702 13.8016 4.30435 12.6611 4.30435 11.4422Z" fill="#FFD500"/>
<path d="M11.0019 4.74576C12.6145 4.74576 14.0958 5.31879 15.2529 6.27196C15.5383 6.50709 15.9532 6.49012 16.2146 6.22865L18.2458 4.19752C18.5424 3.90086 18.5213 3.41527 18.2044 3.14036C16.2658 1.45861 13.7436 0.441406 11.0019 0.441406C6.93445 0.441406 3.37861 2.65675 1.48047 5.94652L5.21041 8.09642C6.36993 6.09695 8.52885 4.74576 11.0019 4.74576Z" fill="#FF4B26"/>
<path d="M15.251 6.27196C15.5364 6.50709 15.9513 6.49012 16.2128 6.22865L18.2439 4.19752C18.5405 3.90086 18.5194 3.41527 18.2025 3.14036C16.264 1.45856 13.7417 0.441406 11 0.441406V4.74576C12.6126 4.74576 14.094 5.31879 15.251 6.27196Z" fill="#D93F21"/>
</g>
<defs>
<clipPath id="clip0_312_118">
<rect width="22" height="22" fill="white" transform="translate(0 0.441406)"/>
</clipPath>
</defs>
</svg>
