<svg width="23" height="23" viewBox="0 0 23 23" fill="none" xmlns="http://www.w3.org/2000/svg">
<g clip-path="url(#clip0_303_36)">
<path d="M21.9606 9.58832L12.987 9.58789C12.5907 9.58789 12.2695 9.90904 12.2695 10.3053V13.172C12.2695 13.5681 12.5907 13.8894 12.9869 13.8894H18.0403C17.487 15.3254 16.4542 16.5281 15.1365 17.2922L17.2912 21.0223C20.7477 19.0233 22.7912 15.5158 22.7912 11.5894C22.7912 11.0303 22.75 10.6307 22.6676 10.1806C22.605 9.83874 22.3081 9.58832 21.9606 9.58832Z" fill="#167EE6"/>
<path d="M11.7948 18.1964C9.32182 18.1964 7.16289 16.8452 6.00338 14.8457L2.27344 16.9956C4.17158 20.2854 7.72742 22.5007 11.7948 22.5007C13.7902 22.5007 15.6729 21.9635 17.2948 21.0272V21.0221L15.1401 17.292C14.1545 17.8637 13.0139 18.1964 11.7948 18.1964Z" fill="#12B347"/>
<path d="M17.293 21.0262V21.0211L15.1382 17.291C14.1526 17.8626 13.0121 18.1954 11.793 18.1954V22.4997C13.7883 22.4997 15.6712 21.9625 17.293 21.0262Z" fill="#0F993E"/>
<path d="M5.09732 11.5007C5.09732 10.2818 5.42998 9.14133 6.00151 8.15576L2.27157 6.00586C1.33016 7.62264 0.792969 9.50029 0.792969 11.5007C0.792969 13.5012 1.33016 15.3788 2.27157 16.9956L6.00151 14.8457C5.42998 13.8602 5.09732 12.7197 5.09732 11.5007Z" fill="#FFD500"/>
<path d="M11.7948 4.80435C13.4075 4.80435 14.8888 5.37738 16.0458 6.33056C16.3313 6.56568 16.7461 6.54871 17.0076 6.28725L19.0387 4.25611C19.3354 3.95946 19.3142 3.47387 18.9973 3.19895C17.0588 1.5172 14.5365 0.5 11.7948 0.5C7.72742 0.5 4.17158 2.71534 2.27344 6.00511L6.00338 8.15501C7.16289 6.15555 9.32182 4.80435 11.7948 4.80435Z" fill="#FF4B26"/>
<path d="M16.044 6.33056C16.3294 6.56568 16.7443 6.54871 17.0057 6.28725L19.0369 4.25611C19.3335 3.95946 19.3123 3.47387 18.9955 3.19895C17.0569 1.51716 14.5347 0.5 11.793 0.5V4.80435C13.4056 4.80435 14.8869 5.37738 16.044 6.33056Z" fill="#D93F21"/>
</g>
<defs>
<clipPath id="clip0_303_36">
<rect width="22" height="22" fill="white" transform="translate(0.792969 0.5)"/>
</clipPath>
</defs>
</svg>
