<svg width="69" height="50" viewBox="0 0 69 50" fill="none" xmlns="http://www.w3.org/2000/svg">
<rect x="0.300781" y="0.0742188" width="67.7847" height="49.1917" rx="12" transform="rotate(0.213656 0.300781 0.0742188)" fill="#F8DEBD"/>
<path d="M42.2577 11.5441L26.7878 11.4864C25.9233 11.4832 25.1933 12.0088 25.191 12.6361L25.143 25.5137C25.1406 26.1411 25.8667 26.6721 26.7312 26.6753L42.2011 26.733C43.0656 26.7362 43.7955 26.2106 43.7979 25.5833L43.8459 12.7057C43.8482 12.0783 43.1222 11.5473 42.2577 11.5441ZM30.6171 21.7368L26.9771 21.7233L26.9808 20.7327L30.6208 20.7463L30.6171 21.7368ZM36.5321 21.7589L32.4371 21.7436L32.4408 20.753L36.5358 20.7683L36.5321 21.7589ZM41.9921 21.7793L38.3521 21.7657L38.3558 20.7751L41.9958 20.7887L41.9921 21.7793Z" fill="#E79B38"/>
<path d="M44.085 9.56887L24.9751 9.49761C23.6102 9.49252 22.4696 10.3138 22.4659 11.3043L22.4058 27.4178C22.4022 28.3754 22.8994 29.2688 23.7613 29.9654L26.0749 31.8231L26.1203 31.8563C27.7081 33.117 27.8896 33.2497 28.2991 33.2513L31.9391 33.2648L31.9228 37.6234L32.5539 39.2107L36.3304 39.2248L36.9733 37.6422L36.9894 33.3167L40.6294 33.3303C41.0389 33.3318 41.2214 33.2004 42.8186 31.9516L45.1917 30.0453C46.0588 29.3551 46.5627 28.4324 46.5662 27.5079L46.6263 11.3944C46.5845 10.4037 45.45 9.57396 44.085 9.56887ZM29.2127 32.2971L29.2164 31.3065L31.9463 31.3167L31.9426 32.3073L29.2127 32.2971ZM35.1116 36.6117L35.119 34.6305L33.754 34.6254L33.7466 36.6066L33.2916 36.6049L33.3113 31.3218L35.5863 31.3303L35.5666 36.6134L35.1116 36.6117ZM33.5585 38.2569L33.2879 37.5955L35.5174 37.6038L35.242 38.2632L33.5585 38.2569ZM36.9513 31.3354L39.6813 31.3455L39.6776 32.3361L36.9476 32.3259L36.9513 31.3354ZM45.1557 27.5026C45.1531 28.196 44.7866 28.8551 44.1477 29.381L41.8203 31.2214L41.7747 31.2543C41.5464 31.4516 41.2727 31.6487 41.0446 31.8129L41.0483 30.8223C41.0493 30.5582 40.7316 30.3258 40.3676 30.3245L28.5377 30.2804C28.1737 30.279 27.8543 30.509 27.8533 30.7731L27.8496 31.7637C27.6229 31.5647 27.3506 31.3656 27.1237 31.1997L24.7648 29.3087C24.1297 28.778 23.7682 28.1163 23.7708 27.4229L23.8309 11.3094C23.8326 10.8472 24.3345 10.4858 24.9714 10.4882L44.0814 10.5595C44.7183 10.5618 45.2175 10.9269 45.2158 11.3892L45.1557 27.5026Z" fill="#E79B38"/>
<path d="M29.4308 27.8212C28.7894 28.283 28.5855 28.8886 28.9753 29.1737C29.3652 29.4588 30.2011 29.3156 30.8425 28.8538C31.4839 28.392 31.6879 27.7864 31.298 27.5013C30.9082 27.2161 30.0722 27.3594 29.4308 27.8212Z" fill="#E79B38"/>
<path d="M37.6222 27.8524C36.9808 28.3143 36.7769 28.9198 37.1667 29.205C37.5566 29.4901 38.3926 29.3469 39.034 28.885C39.6754 28.4232 39.8793 27.8177 39.4894 27.5325C39.0996 27.2474 38.2636 27.3906 37.6222 27.8524Z" fill="#E79B38"/>
<path d="M33.5284 27.8368C32.887 28.2986 32.6831 28.9042 33.073 29.1893C33.4628 29.4745 34.2988 29.3312 34.9402 28.8694C35.5816 28.4076 35.7855 27.802 35.3957 27.5169C35.0058 27.2318 34.1698 27.375 33.5284 27.8368Z" fill="#E79B38"/>
</svg>
