<svg width="191" height="56" viewBox="0 0 191 56" fill="none" xmlns="http://www.w3.org/2000/svg">
<path d="M40.1026 24.7437C24.8486 23.0684 14.6909 24.2989 1.14453 29.4634V55.8248H190.853V0.751953C178.947 4.43825 172.832 7.55485 160.364 10.1913C140.231 14.4488 125.034 6.50734 106.726 13.7311C90.784 20.0215 94.9441 37.117 76.8021 38.9027C60.5799 40.4995 56.2861 26.5211 40.1026 24.7437Z" fill="url(#paint0_linear_345_1927)" fill-opacity="0.4"/>
<path d="M1.14453 29.4633C14.6909 24.2989 24.8486 23.0684 40.1026 24.7437C56.2861 26.5211 60.5799 40.4994 76.8021 38.9027C94.9441 37.117 90.784 20.0215 106.726 13.7311C125.034 6.50734 140.231 14.4488 160.364 10.1913C172.832 7.55485 178.947 4.43825 190.853 0.751953" stroke="#CA6B6E"/>
<defs>
<linearGradient id="paint0_linear_345_1927" x1="96.5535" y1="-14.8715" x2="96.5535" y2="53.0907" gradientUnits="userSpaceOnUse">
<stop stop-color="#DA8184"/>
<stop offset="1" stop-color="#CA6B6E" stop-opacity="0"/>
</linearGradient>
</defs>
</svg>
