<svg width="13" height="8" viewBox="0 0 13 8" fill="none" xmlns="http://www.w3.org/2000/svg">
<mask id="mask0_405_2336" style="mask-type:alpha" maskUnits="userSpaceOnUse" x="0" y="0" width="13" height="8">
<path d="M6.63091 7.66707C9.74942 7.66707 12.2775 6.11773 12.2775 4.20656C12.2775 2.29539 9.74942 0.746094 6.63091 0.746094C3.51241 0.746094 0.984375 2.29539 0.984375 4.20656C0.984375 6.11773 3.51241 7.66707 6.63091 7.66707Z" fill="url(#paint0_linear_405_2336)"/>
</mask>
<g mask="url(#mask0_405_2336)">
<path d="M6.63091 7.66707C9.74942 7.66707 12.2775 6.11773 12.2775 4.20656C12.2775 2.29539 9.74942 0.746094 6.63091 0.746094C3.51241 0.746094 0.984375 2.29539 0.984375 4.20656C0.984375 6.11773 3.51241 7.66707 6.63091 7.66707Z" fill="url(#paint1_linear_405_2336)"/>
</g>
<defs>
<linearGradient id="paint0_linear_405_2336" x1="60.3789" y1="87.804" x2="28.5974" y2="-43.837" gradientUnits="userSpaceOnUse">
<stop stop-color="white"/>
<stop offset="1" stop-color="white"/>
</linearGradient>
<linearGradient id="paint1_linear_405_2336" x1="60.3789" y1="87.804" x2="28.5974" y2="-43.837" gradientUnits="userSpaceOnUse">
<stop stop-color="white"/>
<stop offset="1" stop-color="white"/>
</linearGradient>
</defs>
</svg>
