<svg width="12" height="8" viewBox="0 0 12 8" fill="none" xmlns="http://www.w3.org/2000/svg">
<mask id="mask0_405_2308" style="mask-type:alpha" maskUnits="userSpaceOnUse" x="0" y="0" width="12" height="8">
<path d="M5.91999 7.58114C9.0385 7.58114 11.5665 6.03179 11.5665 4.12062C11.5665 2.20946 9.0385 0.660156 5.91999 0.660156C2.80149 0.660156 0.273438 2.20946 0.273438 4.12062C0.273438 6.03179 2.80149 7.58114 5.91999 7.58114Z" fill="url(#paint0_linear_405_2308)"/>
</mask>
<g mask="url(#mask0_405_2308)">
<path d="M5.91999 7.58114C9.0385 7.58114 11.5665 6.03179 11.5665 4.12062C11.5665 2.20946 9.0385 0.660156 5.91999 0.660156C2.80149 0.660156 0.273438 2.20946 0.273438 4.12062C0.273438 6.03179 2.80149 7.58114 5.91999 7.58114Z" fill="url(#paint1_linear_405_2308)"/>
</g>
<defs>
<linearGradient id="paint0_linear_405_2308" x1="59.668" y1="87.718" x2="27.8865" y2="-43.9229" gradientUnits="userSpaceOnUse">
<stop stop-color="white"/>
<stop offset="1" stop-color="white"/>
</linearGradient>
<linearGradient id="paint1_linear_405_2308" x1="59.668" y1="87.718" x2="27.8865" y2="-43.9229" gradientUnits="userSpaceOnUse">
<stop stop-color="white"/>
<stop offset="1" stop-color="white"/>
</linearGradient>
</defs>
</svg>
