<svg width="21" height="20" viewBox="0 0 21 20" fill="none" xmlns="http://www.w3.org/2000/svg">
<path d="M3.53874 13.0898C3.86424 13.4152 4.39184 13.4151 4.71722 13.0896C5.04259 12.7641 5.04252 12.2365 4.71702 11.9111L2.80486 9.99964L5.69542 7.10908C7.44021 5.3643 9.91711 4.65339 12.2875 5.15282C12.7378 5.2477 13.1798 4.95955 13.2746 4.50921C13.3695 4.05888 13.0814 3.6169 12.631 3.52202C9.71513 2.90767 6.66426 3.78326 4.51691 5.93061L1.03703 9.41049C0.711575 9.73594 0.711614 10.2637 1.03715 10.589L3.53874 13.0898Z" fill="#5E807F"/>
<path d="M20.5485 9.41073L18.047 6.91C17.7215 6.58462 17.1939 6.5847 16.8685 6.91019C16.5431 7.23569 16.5432 7.76329 16.8687 8.08867L18.7808 10.0002L15.8903 12.8907C14.1455 14.6355 11.6686 15.3464 9.29823 14.847C8.8479 14.7521 8.40592 15.0403 8.31104 15.4906C8.21616 15.9409 8.50431 16.3829 8.95465 16.4778C11.8706 17.0921 14.9214 16.2165 17.0688 14.0692L20.5487 10.5893C20.8741 10.2638 20.8741 9.73611 20.5485 9.41073Z" fill="#5E807F"/>
<path d="M6.625 10.0005C6.625 10.4607 6.99807 10.8338 7.45829 10.8338C7.91851 10.8338 8.29158 10.4607 8.29158 10.0005C8.29158 8.61994 9.41096 7.50057 10.7915 7.50057C11.2517 7.50057 11.6248 7.12749 11.6248 6.66728C11.6248 6.20706 11.2517 5.83398 10.7915 5.83398C8.49052 5.83395 6.625 7.69947 6.625 10.0005Z" fill="#5E807F"/>
<path d="M13.2941 9.99935C13.2941 11.3799 12.1748 12.4993 10.7942 12.4993C10.334 12.4993 9.96094 12.8723 9.96094 13.3325C9.96094 13.7928 10.334 14.1658 10.7942 14.1658C13.0952 14.1658 14.9608 12.3003 14.9608 9.99931C14.9608 9.53909 14.5877 9.16602 14.1275 9.16602C13.6672 9.16602 13.2941 9.53913 13.2941 9.99935Z" fill="#5E807F"/>
<path d="M20.5482 0.244064C20.2228 -0.0813546 19.6951 -0.0813546 19.3697 0.244064L1.03703 18.5767C0.711614 18.9022 0.711614 19.4298 1.03703 19.7552C1.36245 20.0806 1.89009 20.0806 2.21551 19.7552L20.5482 1.42254C20.8736 1.09712 20.8736 0.569482 20.5482 0.244064Z" fill="#5E807F"/>
</svg>
