<svg width="28" height="35" viewBox="0 0 28 35" fill="none" xmlns="http://www.w3.org/2000/svg">
<path d="M26.0199 33.375V29.875C26.0199 28.0185 25.3782 26.238 24.2359 24.9253C23.0936 23.6125 21.5444 22.875 19.929 22.875H7.74716C6.13175 22.875 4.5825 23.6125 3.44024 24.9253C2.29797 26.238 1.65625 28.0185 1.65625 29.875V33.375" fill="#FFFEFE"/>
<path d="M26.0199 33.375V29.875C26.0199 28.0185 25.3782 26.238 24.2359 24.9253C23.0936 23.6125 21.5444 22.875 19.929 22.875H7.74716C6.13175 22.875 4.5825 23.6125 3.44024 24.9253C2.29797 26.238 1.65625 28.0185 1.65625 29.875V33.375" stroke="#828282" stroke-width="2" stroke-linecap="round" stroke-linejoin="round"/>
<path d="M13.837 15.875C17.2009 15.875 19.9279 12.741 19.9279 8.875C19.9279 5.00901 17.2009 1.875 13.837 1.875C10.4731 1.875 7.74609 5.00901 7.74609 8.875C7.74609 12.741 10.4731 15.875 13.837 15.875Z" fill="#FFFEFE" stroke="#828282" stroke-width="2" stroke-linecap="round" stroke-linejoin="round"/>
</svg>
