<svg width="26" height="26" viewBox="0 0 26 26" fill="none" xmlns="http://www.w3.org/2000/svg">
<path d="M24.9009 24.7346V22.1213C24.9009 20.735 24.2816 19.4056 23.1791 18.4254C22.0767 17.4452 20.5814 16.8945 19.0224 16.8945H7.26527C5.70618 16.8945 4.21095 17.4452 3.10851 18.4254C2.00606 19.4056 1.38672 20.735 1.38672 22.1213V24.7346" fill="#FFFEFE"/>
<path d="M24.9009 24.7346V22.1213C24.9009 20.735 24.2816 19.4056 23.1791 18.4254C22.0767 17.4452 20.5815 16.8945 19.0224 16.8945H7.26527C5.70618 16.8945 4.21095 17.4452 3.10851 18.4254C2.00606 19.4056 1.38672 20.735 1.38672 22.1213V24.7346" stroke="#828282" stroke-width="2" stroke-linecap="round" stroke-linejoin="round"/>
<path d="M13.1442 11.6663C16.3908 11.6663 19.0227 9.32626 19.0227 6.43962C19.0227 3.55298 16.3908 1.21289 13.1442 1.21289C9.89754 1.21289 7.26562 3.55298 7.26562 6.43962C7.26562 9.32626 9.89754 11.6663 13.1442 11.6663Z" fill="#FFFEFE" stroke="#828282" stroke-width="2" stroke-linecap="round" stroke-linejoin="round"/>
</svg>
