<svg width="191" height="58" viewBox="0 0 191 58" fill="none" xmlns="http://www.w3.org/2000/svg">
<path d="M40.3687 24.365C22.488 25.653 0.675781 39.9885 0.675781 39.9885V57.3871H190.384V20.4591C190.384 20.4591 175.68 24.8824 165.868 24.365C145.932 23.3135 148.266 3.00436 128.51 0.929745C102.271 -1.8257 102.442 28.3363 75.9755 29.8332C61.7593 30.6372 54.5536 23.3432 40.3687 24.365Z" fill="url(#paint0_linear_345_1866)"/>
<path d="M0.675781 39.9885C0.675781 39.9885 22.488 25.653 40.3687 24.365C54.5536 23.3432 61.7593 30.6372 75.9755 29.8332C102.442 28.3363 102.271 -1.8257 128.51 0.929745C148.266 3.00436 145.932 23.3135 165.868 24.365C175.68 24.8824 190.384 20.4591 190.384 20.4591" stroke="#F3A53F" stroke-linecap="round"/>
<defs>
<linearGradient id="paint0_linear_345_1866" x1="95.5301" y1="0.751953" x2="95.5301" y2="57.3871" gradientUnits="userSpaceOnUse">
<stop stop-color="#F8DEBD"/>
<stop offset="1" stop-color="#FBEBD6" stop-opacity="0"/>
</linearGradient>
</defs>
</svg>
