<svg width="69" height="51" viewBox="0 0 69 51" fill="none" xmlns="http://www.w3.org/2000/svg">
<rect x="0.402344" y="0.949219" width="67.7847" height="49.1917" rx="12" fill="#F8DEBD"/>
<path d="M42.4024 12.2617H26.9323C26.0678 12.2617 25.3398 12.79 25.3398 13.4174V26.2951C25.3398 26.9224 26.0678 27.4507 26.9323 27.4507H42.4024C43.2669 27.4507 43.9949 26.9224 43.9949 26.2951V13.4174C43.9949 12.79 43.2669 12.2617 42.4024 12.2617ZM30.7999 22.4978H27.1598V21.5072H30.7999V22.4978ZM36.7149 22.4978H32.6199V21.5072H36.7149V22.4978ZM42.1749 22.4978H38.5349V21.5072H42.1749V22.4978Z" fill="#E79B38"/>
<path d="M44.2219 10.2793H25.1119C23.7469 10.2793 22.6094 11.1048 22.6094 12.0954V28.2089C22.6094 29.1665 23.1099 30.058 23.9744 30.7515L26.2949 32.6006L26.3404 32.6336C27.9329 33.8883 28.1149 34.0204 28.5244 34.0204H32.1644V38.379L32.8014 39.9639H36.5779L37.2149 38.379V34.0534H40.8549C41.2644 34.0534 41.4464 33.9213 43.0389 32.6666L45.4049 30.7515C46.2694 30.058 46.7699 29.1335 46.7699 28.2089V12.0954C46.7244 11.1048 45.5869 10.2793 44.2219 10.2793ZM29.4344 33.0628V32.0722H32.1644V33.0628H29.4344ZM35.3494 37.3554V35.3742H33.9844V37.3554H33.5294V32.0722H35.8044V37.3554H35.3494ZM33.8024 39.0064L33.5294 38.346H35.7589L35.4859 39.0064H33.8024ZM37.1694 32.0722H39.8994V33.0628H37.1694V32.0722ZM45.3594 28.2089C45.3594 28.9024 44.9954 29.5627 44.3584 30.0911L42.0379 31.9402L41.9924 31.9732C41.7649 32.1713 41.4919 32.3694 41.2644 32.5345V31.5439C41.2644 31.2798 40.9459 31.0486 40.5819 31.0486H28.7519C28.3879 31.0486 28.0694 31.2798 28.0694 31.5439V32.5345C27.8419 32.3364 27.5689 32.1383 27.3414 31.9732L24.9754 30.0911C24.3384 29.5627 23.9744 28.9024 23.9744 28.2089V12.0954C23.9744 11.6331 24.4749 11.2699 25.1119 11.2699H44.2219C44.8589 11.2699 45.3594 11.6331 45.3594 12.0954V28.2089Z" fill="#E79B38"/>
<path d="M29.6371 28.5867C28.9974 29.0509 28.7958 29.6572 29.1867 29.9408C29.5776 30.2245 30.413 30.0782 31.0527 29.614C31.6924 29.1498 31.894 28.5435 31.5031 28.2598C31.1122 27.9761 30.2768 28.1224 29.6371 28.5867Z" fill="#E79B38"/>
<path d="M37.8246 28.5867C37.1849 29.0509 36.9833 29.6572 37.3742 29.9408C37.7651 30.2245 38.6005 30.0782 39.2402 29.614C39.8799 29.1498 40.0815 28.5435 39.6906 28.2598C39.2997 27.9761 38.4643 28.1224 37.8246 28.5867Z" fill="#E79B38"/>
<path d="M33.7308 28.5867C33.0912 29.0509 32.8895 29.6572 33.2804 29.9408C33.6713 30.2245 34.5068 30.0782 35.1465 29.614C35.7861 29.1498 35.9878 28.5435 35.5969 28.2598C35.206 27.9761 34.3705 28.1224 33.7308 28.5867Z" fill="#E79B38"/>
</svg>
