<svg width="69" height="51" viewBox="0 0 69 51" fill="none" xmlns="http://www.w3.org/2000/svg">
<rect x="0.300781" y="0.939453" width="67.7847" height="49.1917" rx="12" transform="rotate(0.213656 0.300781 0.939453)" fill="#F8DEBD"/>
<path d="M42.2577 12.4093L26.7878 12.3516C25.9233 12.3484 25.1933 12.874 25.191 13.5014L25.143 26.3789C25.1406 27.0063 25.8667 27.5373 26.7312 27.5406L42.2011 27.5982C43.0656 27.6015 43.7955 27.0759 43.7979 26.4485L43.8459 13.5709C43.8482 12.9436 43.1222 12.4126 42.2577 12.4093ZM30.6171 22.6021L26.9771 22.5885L26.9808 21.5979L30.6208 21.6115L30.6171 22.6021ZM36.5321 22.6241L32.4371 22.6089L32.4408 21.6183L36.5358 21.6335L36.5321 22.6241ZM41.9921 22.6445L38.3521 22.6309L38.3558 21.6403L41.9958 21.6539L41.9921 22.6445Z" fill="#E79B38"/>
<path d="M44.085 10.4341L24.9751 10.3628C23.6102 10.3578 22.4696 11.179 22.4659 12.1696L22.4058 28.283C22.4022 29.2406 22.8994 30.134 23.7613 30.8306L26.0749 32.6884L26.1203 32.7215C27.7081 33.9822 27.8896 34.115 28.2991 34.1165L31.9391 34.1301L31.9228 38.4886L32.5539 40.0759L36.3304 40.09L36.9733 38.5075L36.9894 34.1819L40.6294 34.1955C41.0389 34.197 41.2214 34.0656 42.8186 32.8168L45.1917 30.9105C46.0588 30.2204 46.5627 29.2977 46.5662 28.3731L46.6263 12.2597C46.5845 11.2689 45.45 10.4392 44.085 10.4341ZM29.2127 33.1623L29.2164 32.1718L31.9463 32.1819L31.9426 33.1725L29.2127 33.1623ZM35.1116 37.4769L35.119 35.4958L33.754 35.4907L33.7466 37.4718L33.2916 37.4701L33.3113 32.187L35.5863 32.1955L35.5666 37.4786L35.1116 37.4769ZM33.5585 39.1221L33.2879 38.4607L35.5174 38.469L35.242 39.1284L33.5585 39.1221ZM36.9513 32.2006L39.6813 32.2108L39.6776 33.2014L36.9476 33.1912L36.9513 32.2006ZM45.1557 28.3679C45.1531 29.0613 44.7866 29.7203 44.1477 30.2462L41.8203 32.0867L41.7747 32.1195C41.5464 32.3168 41.2727 32.5139 41.0446 32.6781L41.0483 31.6876C41.0493 31.4234 40.7316 31.1911 40.3676 31.1897L28.5377 31.1456C28.1737 31.1443 27.8543 31.3742 27.8533 31.6384L27.8496 32.6289C27.6229 32.43 27.3506 32.2308 27.1237 32.0649L24.7648 30.174C24.1297 29.6433 23.7682 28.9815 23.7708 28.2881L23.8309 12.1747C23.8326 11.7124 24.3345 11.3511 24.9714 11.3534L44.0814 11.4247C44.7183 11.4271 45.2175 11.7921 45.2158 12.2544L45.1557 28.3679Z" fill="#E79B38"/>
<path d="M29.4308 28.6864C28.7894 29.1483 28.5855 29.7538 28.9753 30.0389C29.3652 30.3241 30.2011 30.1808 30.8425 29.719C31.4839 29.2572 31.6879 28.6517 31.298 28.3665C30.9082 28.0814 30.0722 28.2246 29.4308 28.6864Z" fill="#E79B38"/>
<path d="M37.6222 28.7177C36.9808 29.1795 36.7769 29.785 37.1667 30.0702C37.5566 30.3553 38.3926 30.2121 39.034 29.7503C39.6754 29.2884 39.8793 28.6829 39.4894 28.3978C39.0996 28.1126 38.2636 28.2559 37.6222 28.7177Z" fill="#E79B38"/>
<path d="M33.5284 28.7021C32.887 29.1639 32.6831 29.7694 33.073 30.0546C33.4628 30.3397 34.2988 30.1965 34.9402 29.7346C35.5816 29.2728 35.7855 28.6673 35.3957 28.3821C35.0058 28.097 34.1698 28.2402 33.5284 28.7021Z" fill="#E79B38"/>
</svg>
