<svg width="10" height="11" viewBox="0 0 10 11" fill="none" xmlns="http://www.w3.org/2000/svg">
<mask id="mask0_342_632" style="mask-type:alpha" maskUnits="userSpaceOnUse" x="0" y="0" width="10" height="11">
<path d="M5.26095 10.425C7.78463 10.425 9.83048 8.09126 9.83048 5.21248C9.83048 2.3337 7.78463 0 5.26095 0C2.73726 0 0.691406 2.3337 0.691406 5.21248C0.691406 8.09126 2.73726 10.425 5.26095 10.425Z" fill="url(#paint0_linear_342_632)"/>
</mask>
<g mask="url(#mask0_342_632)">
<path d="M5.26095 10.425C7.78463 10.425 9.83048 8.09126 9.83048 5.21248C9.83048 2.3337 7.78463 0 5.26095 0C2.73726 0 0.691406 2.3337 0.691406 5.21248C0.691406 8.09126 2.73726 10.425 5.26095 10.425Z" fill="url(#paint1_linear_342_632)"/>
</g>
<defs>
<linearGradient id="paint0_linear_342_632" x1="48.7572" y1="131.134" x2="-29.6981" y2="-43.4571" gradientUnits="userSpaceOnUse">
<stop stop-color="white"/>
<stop offset="1" stop-color="white"/>
</linearGradient>
<linearGradient id="paint1_linear_342_632" x1="48.7572" y1="131.134" x2="-29.6981" y2="-43.4571" gradientUnits="userSpaceOnUse">
<stop stop-color="white"/>
<stop offset="1" stop-color="white"/>
</linearGradient>
</defs>
</svg>
