<svg width="42" height="29" viewBox="0 0 42 29" fill="none" xmlns="http://www.w3.org/2000/svg">
<path d="M16.6406 12.7509C21.1926 12.7509 24.8827 10.0155 24.8827 6.64108C24.8827 3.26672 21.1926 0.53125 16.6406 0.53125C12.0886 0.53125 8.39844 3.26672 8.39844 6.64108C8.39844 10.0155 12.0886 12.7509 16.6406 12.7509Z" fill="black"/>
<path d="M17.3617 15.8204C11.7365 15.6676 0.15625 17.745 0.15625 21.9149L0.15625 24.9698L19.8138 24.9698C14.7242 20.754 17.2793 15.9731 17.3617 15.8204Z" fill="black"/>
<path d="M36.0715 21.9453C36.8133 21.0441 37.246 19.9902 37.246 18.8598C37.246 15.4842 33.5576 12.75 29.0039 12.75C24.4501 12.75 20.7617 15.4842 20.7617 18.8598C20.7617 22.2355 24.4501 24.9697 29.0039 24.9697C30.5287 24.9697 31.9504 24.6336 33.1661 24.099L38.4617 28.0246L41.3671 25.8709L36.0715 21.9453ZM29.0039 21.9148C26.7373 21.9148 24.8828 20.54 24.8828 18.8598C24.8828 17.1796 26.7373 15.8049 29.0039 15.8049C31.2704 15.8049 33.1249 17.1796 33.1249 18.8598C33.1249 20.54 31.2704 21.9148 29.0039 21.9148Z" fill="black"/>
</svg>
