<svg width="27" height="28" viewBox="0 0 27 28" fill="none" xmlns="http://www.w3.org/2000/svg">
<path d="M25.1953 26.4879L25.1956 23.6833C25.1957 22.1956 24.5785 20.7689 23.4797 19.7171C22.3809 18.6652 20.8906 18.0744 19.3365 18.0745L7.61738 18.0756C6.06333 18.0758 4.57287 18.6669 3.47389 19.7189C2.37491 20.771 1.75744 22.1978 1.7573 23.6855L1.75705 26.4901" fill="#828282"/>
<path d="M25.1953 26.4879L25.1956 23.6833C25.1957 22.1956 24.5785 20.7689 23.4797 19.7171C22.3809 18.6652 20.8906 18.0744 19.3365 18.0745L7.61738 18.0756C6.06333 18.0758 4.57287 18.6669 3.47389 19.7189C2.37491 20.771 1.75744 22.1978 1.7573 23.6855L1.75705 26.4901" stroke="#828282" stroke-width="2" stroke-linecap="round" stroke-linejoin="round"/>
<path d="M13.4757 12.4661C16.7119 12.4658 19.3355 9.95419 19.3358 6.85626C19.3361 3.75833 16.7129 1.2472 13.4768 1.2475C10.2406 1.2478 7.61696 3.75942 7.61668 6.85735C7.61639 9.95529 10.2396 12.4664 13.4757 12.4661Z" fill="#828282" stroke="#828282" stroke-width="2" stroke-linecap="round" stroke-linejoin="round"/>
</svg>
