<svg width="188" height="54" viewBox="0 0 188 54" fill="none" xmlns="http://www.w3.org/2000/svg">
<path d="M39.731 22.8138C22.1903 24.019 0.792969 37.4329 0.792969 37.4329V53.7131H186.894V19.159C186.894 19.159 172.469 23.298 162.844 22.8138C143.287 21.8299 145.577 2.82636 126.196 0.885112C100.456 -1.69319 100.624 26.5298 74.6607 27.9305C60.7149 28.6828 53.6461 21.8577 39.731 22.8138Z" fill="url(#paint0_linear_345_1866)"/>
<path d="M0.792969 37.4329C0.792969 37.4329 22.1903 24.019 39.731 22.8138C53.6461 21.8577 60.7149 28.6828 74.6607 27.9305C100.624 26.5298 100.456 -1.69319 126.196 0.885112C145.577 2.82636 143.287 21.8299 162.844 22.8138C172.469 23.298 186.894 19.159 186.894 19.159" stroke="#F3A53F" stroke-linecap="round"/>
<defs>
<linearGradient id="paint0_linear_345_1866" x1="93.8434" y1="0.71875" x2="93.8434" y2="53.7131" gradientUnits="userSpaceOnUse">
<stop stop-color="#F8DEBD"/>
<stop offset="1" stop-color="#FBEBD6" stop-opacity="0"/>
</linearGradient>
</defs>
</svg>
