<svg width="63" height="63" viewBox="0 0 63 63" fill="none" xmlns="http://www.w3.org/2000/svg">
<rect x="0.773438" y="0.103516" width="62.14" height="62.14" rx="12" fill="#F8DEBD"/>
<path d="M39.2706 14.3887H25.0888C24.2963 14.3887 23.6289 15.056 23.6289 15.8486V32.1159C23.6289 32.9084 24.2963 33.5758 25.0888 33.5758H39.2706C40.0631 33.5758 40.7305 32.9084 40.7305 32.1159V15.8486C40.7305 15.056 40.0631 14.3887 39.2706 14.3887ZM28.6342 27.3191H25.2974V26.0678H28.6342V27.3191ZM34.0567 27.3191H30.3027V26.0678H34.0567V27.3191ZM39.062 27.3191H35.7251V26.0678H39.062V27.3191Z" fill="#E79B38"/>
<path d="M40.9417 11.8867H23.423C22.1717 11.8867 21.1289 12.9295 21.1289 14.1808V34.5358C21.1289 35.7455 21.5877 36.8717 22.3802 37.7476L24.5075 40.0834L24.5492 40.1251C26.0091 41.7101 26.1759 41.877 26.5513 41.877H29.8882V47.3829L30.4722 49.385H33.9342L34.5182 47.3829V41.9187H37.8551C38.2305 41.9187 38.3973 41.7519 39.8572 40.1668L42.0262 37.7476C42.8187 36.8717 43.2775 35.7038 43.2775 34.5358V14.1808C43.2358 12.9295 42.193 11.8867 40.9417 11.8867ZM27.3856 40.6674V39.416H29.8882V40.6674H27.3856ZM32.808 46.0898V43.5872H31.5567V46.0898H31.1396V39.416H33.2251V46.0898H32.808ZM31.3898 48.1754L31.1396 47.3411H33.1834L32.9331 48.1754H31.3898ZM34.4765 39.416H36.9791V40.6674H34.4765V39.416ZM41.9845 34.5358C41.9845 35.4118 41.6508 36.246 41.0668 36.9134L38.9395 39.2492L38.8978 39.2909C38.6893 39.5412 38.439 39.7914 38.2305 40V38.7487C38.2305 38.415 37.9385 38.123 37.6048 38.123H26.7599C26.4262 38.123 26.1342 38.415 26.1342 38.7487V40C25.9257 39.7497 25.6754 39.4995 25.4669 39.2909L23.2979 36.9134C22.7139 36.246 22.3802 35.4118 22.3802 34.5358V14.1808C22.3802 13.5969 22.8391 13.1381 23.423 13.1381H40.9417C41.5256 13.1381 41.9845 13.5969 41.9845 14.1808V34.5358Z" fill="#E79B38"/>
<path d="M27.5702 35.014C26.9838 35.6005 26.7989 36.3663 27.1573 36.7247C27.5156 37.0831 28.2815 36.8982 28.8679 36.3118C29.4543 35.7254 29.6392 34.9595 29.2808 34.6011C28.9225 34.2428 28.1566 34.4276 27.5702 35.014Z" fill="#E79B38"/>
<path d="M35.078 35.014C34.4916 35.6005 34.3067 36.3663 34.6651 36.7247C35.0234 37.0831 35.7893 36.8982 36.3757 36.3118C36.9621 35.7254 37.147 34.9595 36.7886 34.6011C36.4303 34.2428 35.6644 34.4276 35.078 35.014Z" fill="#E79B38"/>
<path d="M31.3241 35.014C30.7377 35.6005 30.5528 36.3663 30.9112 36.7247C31.2695 37.0831 32.0354 36.8982 32.6218 36.3118C33.2082 35.7254 33.3931 34.9595 33.0347 34.6011C32.6764 34.2428 31.9105 34.4276 31.3241 35.014Z" fill="#E79B38"/>
</svg>
