<svg width="187" height="53" viewBox="0 0 187 53" fill="none" xmlns="http://www.w3.org/2000/svg">
<path d="M38.4164 23.1681C23.4525 21.6005 13.488 22.752 0.199219 27.5844V52.2512H186.3V0.71875C174.62 4.16807 168.622 7.08432 156.391 9.5513C136.64 13.535 121.733 6.10415 103.773 12.8635C88.134 18.7495 92.215 34.7461 74.418 36.417C58.5042 37.911 54.2921 24.8313 38.4164 23.1681Z" fill="url(#paint0_linear_345_1927)" fill-opacity="0.4"/>
<path d="M0.199219 27.5844C13.488 22.752 23.4525 21.6005 38.4164 23.1681C54.2921 24.8313 58.5042 37.911 74.418 36.417C92.215 34.7461 88.134 18.7495 103.773 12.8635C121.733 6.10415 136.64 13.535 156.391 9.5513C168.622 7.08432 174.62 4.16807 186.3 0.71875" stroke="#CA6B6E"/>
<defs>
<linearGradient id="paint0_linear_345_1927" x1="93.7938" y1="-13.9004" x2="93.7938" y2="49.6928" gradientUnits="userSpaceOnUse">
<stop stop-color="#DA8184"/>
<stop offset="1" stop-color="#CA6B6E" stop-opacity="0"/>
</linearGradient>
</defs>
</svg>
