<svg width="12" height="8" viewBox="0 0 12 8" fill="none" xmlns="http://www.w3.org/2000/svg">
<mask id="mask0_405_2324" style="mask-type:alpha" maskUnits="userSpaceOnUse" x="0" y="0" width="12" height="8">
<path d="M5.91999 7.29207C9.0385 7.29207 11.5665 5.74276 11.5665 3.83158C11.5665 1.9204 9.0385 0.371094 5.91999 0.371094C2.80149 0.371094 0.273438 1.9204 0.273438 3.83158C0.273438 5.74276 2.80149 7.29207 5.91999 7.29207Z" fill="url(#paint0_linear_405_2324)"/>
</mask>
<g mask="url(#mask0_405_2324)">
<path d="M5.91999 7.29207C9.0385 7.29207 11.5665 5.74276 11.5665 3.83158C11.5665 1.9204 9.0385 0.371094 5.91999 0.371094C2.80149 0.371094 0.273438 1.9204 0.273438 3.83158C0.273438 5.74276 2.80149 7.29207 5.91999 7.29207Z" fill="url(#paint1_linear_405_2324)"/>
</g>
<defs>
<linearGradient id="paint0_linear_405_2324" x1="59.668" y1="87.429" x2="27.8865" y2="-44.212" gradientUnits="userSpaceOnUse">
<stop stop-color="white"/>
<stop offset="1" stop-color="white"/>
</linearGradient>
<linearGradient id="paint1_linear_405_2324" x1="59.668" y1="87.429" x2="27.8865" y2="-44.212" gradientUnits="userSpaceOnUse">
<stop stop-color="white"/>
<stop offset="1" stop-color="white"/>
</linearGradient>
</defs>
</svg>
