<svg width="88" height="153" viewBox="0 0 88 153" fill="none" xmlns="http://www.w3.org/2000/svg">
<mask id="mask0_342_764" style="mask-type:alpha" maskUnits="userSpaceOnUse" x="0" y="0" width="10" height="10">
<path d="M4.56953 9.43939C7.09321 9.43939 9.13907 7.32627 9.13907 4.71967C9.13907 2.11306 7.09321 0 4.56953 0C2.04585 0 0 2.11306 0 4.71967C0 7.32627 2.04585 9.43939 4.56953 9.43939Z" fill="url(#paint0_linear_342_764)"/>
</mask>
<g mask="url(#mask0_342_764)">
<path d="M4.56953 9.43939C7.09321 9.43939 9.13907 7.32627 9.13907 4.71967C9.13907 2.11306 7.09321 0 4.56953 0C2.04585 0 0 2.11306 0 4.71967C0 7.32627 2.04585 9.43939 4.56953 9.43939Z" fill="url(#paint1_linear_342_764)"/>
</g>
<mask id="mask1_342_764" style="mask-type:alpha" maskUnits="userSpaceOnUse" x="26" y="0" width="10" height="10">
<path d="M30.7102 9.43939C33.2338 9.43939 35.2797 7.32627 35.2797 4.71967C35.2797 2.11306 33.2338 0 30.7102 0C28.1865 0 26.1406 2.11306 26.1406 4.71967C26.1406 7.32627 28.1865 9.43939 30.7102 9.43939Z" fill="url(#paint2_linear_342_764)"/>
</mask>
<g mask="url(#mask1_342_764)">
<path d="M30.7102 9.43939C33.2338 9.43939 35.2797 7.32627 35.2797 4.71967C35.2797 2.11306 33.2338 0 30.7102 0C28.1865 0 26.1406 2.11306 26.1406 4.71967C26.1406 7.32627 28.1865 9.43939 30.7102 9.43939Z" fill="url(#paint3_linear_342_764)"/>
</g>
<mask id="mask2_342_764" style="mask-type:alpha" maskUnits="userSpaceOnUse" x="52" y="0" width="10" height="10">
<path d="M56.8469 9.43939C59.3706 9.43939 61.4164 7.32627 61.4164 4.71967C61.4164 2.11306 59.3706 0 56.8469 0C54.3232 0 52.2773 2.11306 52.2773 4.71967C52.2773 7.32627 54.3232 9.43939 56.8469 9.43939Z" fill="url(#paint4_linear_342_764)"/>
</mask>
<g mask="url(#mask2_342_764)">
<path d="M56.8469 9.43939C59.3706 9.43939 61.4164 7.32627 61.4164 4.71967C61.4164 2.11306 59.3706 0 56.8469 0C54.3232 0 52.2773 2.11306 52.2773 4.71967C52.2773 7.32627 54.3232 9.43939 56.8469 9.43939Z" fill="url(#paint5_linear_342_764)"/>
</g>
<mask id="mask3_342_764" style="mask-type:alpha" maskUnits="userSpaceOnUse" x="78" y="0" width="10" height="10">
<path d="M82.9875 9.43939C85.5112 9.43939 87.557 7.32627 87.557 4.71967C87.557 2.11306 85.5112 0 82.9875 0C80.4638 0 78.418 2.11306 78.418 4.71967C78.418 7.32627 80.4638 9.43939 82.9875 9.43939Z" fill="url(#paint6_linear_342_764)"/>
</mask>
<g mask="url(#mask3_342_764)">
<path d="M82.9875 9.43939C85.5112 9.43939 87.557 7.32627 87.557 4.71967C87.557 2.11306 85.5112 0 82.9875 0C80.4638 0 78.418 2.11306 78.418 4.71967C78.418 7.32627 80.4638 9.43939 82.9875 9.43939Z" fill="url(#paint7_linear_342_764)"/>
</g>
<mask id="mask4_342_764" style="mask-type:alpha" maskUnits="userSpaceOnUse" x="0" y="23" width="10" height="11">
<path d="M4.56953 33.3652C7.09322 33.3652 9.13908 31.2521 9.13908 28.6454C9.13908 26.0388 7.09322 23.9258 4.56953 23.9258C2.04584 23.9258 0 26.0388 0 28.6454C0 31.2521 2.04584 33.3652 4.56953 33.3652Z" fill="url(#paint8_linear_342_764)"/>
</mask>
<g mask="url(#mask4_342_764)">
<path d="M4.56953 33.3652C7.09322 33.3652 9.13908 31.2521 9.13908 28.6454C9.13908 26.0388 7.09322 23.9258 4.56953 23.9258C2.04584 23.9258 0 26.0388 0 28.6454C0 31.2521 2.04584 33.3652 4.56953 33.3652Z" fill="url(#paint9_linear_342_764)"/>
</g>
<mask id="mask5_342_764" style="mask-type:alpha" maskUnits="userSpaceOnUse" x="26" y="23" width="10" height="11">
<path d="M30.7102 33.3651C33.2338 33.3651 35.2797 31.252 35.2797 28.6454C35.2797 26.0388 33.2338 23.9258 30.7102 23.9258C28.1865 23.9258 26.1406 26.0388 26.1406 28.6454C26.1406 31.252 28.1865 33.3651 30.7102 33.3651Z" fill="url(#paint10_linear_342_764)"/>
</mask>
<g mask="url(#mask5_342_764)">
<path d="M30.7102 33.3651C33.2338 33.3651 35.2797 31.252 35.2797 28.6454C35.2797 26.0388 33.2338 23.9258 30.7102 23.9258C28.1865 23.9258 26.1406 26.0388 26.1406 28.6454C26.1406 31.252 28.1865 33.3651 30.7102 33.3651Z" fill="url(#paint11_linear_342_764)"/>
</g>
<mask id="mask6_342_764" style="mask-type:alpha" maskUnits="userSpaceOnUse" x="52" y="23" width="10" height="11">
<path d="M56.8469 33.3651C59.3706 33.3651 61.4164 31.252 61.4164 28.6454C61.4164 26.0388 59.3706 23.9258 56.8469 23.9258C54.3232 23.9258 52.2773 26.0388 52.2773 28.6454C52.2773 31.252 54.3232 33.3651 56.8469 33.3651Z" fill="url(#paint12_linear_342_764)"/>
</mask>
<g mask="url(#mask6_342_764)">
<path d="M56.8469 33.3651C59.3706 33.3651 61.4164 31.252 61.4164 28.6454C61.4164 26.0388 59.3706 23.9258 56.8469 23.9258C54.3232 23.9258 52.2773 26.0388 52.2773 28.6454C52.2773 31.252 54.3232 33.3651 56.8469 33.3651Z" fill="url(#paint13_linear_342_764)"/>
</g>
<mask id="mask7_342_764" style="mask-type:alpha" maskUnits="userSpaceOnUse" x="78" y="23" width="10" height="11">
<path d="M82.9875 33.3651C85.5112 33.3651 87.557 31.252 87.557 28.6454C87.557 26.0388 85.5112 23.9258 82.9875 23.9258C80.4638 23.9258 78.418 26.0388 78.418 28.6454C78.418 31.252 80.4638 33.3651 82.9875 33.3651Z" fill="url(#paint14_linear_342_764)"/>
</mask>
<g mask="url(#mask7_342_764)">
<path d="M82.9875 33.3651C85.5112 33.3651 87.557 31.252 87.557 28.6454C87.557 26.0388 85.5112 23.9258 82.9875 23.9258C80.4638 23.9258 78.418 26.0388 78.418 28.6454C78.418 31.252 80.4638 33.3651 82.9875 33.3651Z" fill="url(#paint15_linear_342_764)"/>
</g>
<mask id="mask8_342_764" style="mask-type:alpha" maskUnits="userSpaceOnUse" x="0" y="47" width="10" height="11">
<path d="M4.56955 57.2928C7.09324 57.2928 9.13908 55.1798 9.13908 52.5732C9.13908 49.9666 7.09324 47.8535 4.56955 47.8535C2.04586 47.8535 0 49.9666 0 52.5732C0 55.1798 2.04586 57.2928 4.56955 57.2928Z" fill="url(#paint16_linear_342_764)"/>
</mask>
<g mask="url(#mask8_342_764)">
<path d="M4.56955 57.2928C7.09324 57.2928 9.13908 55.1798 9.13908 52.5732C9.13908 49.9666 7.09324 47.8535 4.56955 47.8535C2.04586 47.8535 0 49.9666 0 52.5732C0 55.1798 2.04586 57.2928 4.56955 57.2928Z" fill="url(#paint17_linear_342_764)"/>
</g>
<mask id="mask9_342_764" style="mask-type:alpha" maskUnits="userSpaceOnUse" x="26" y="47" width="10" height="11">
<path d="M30.7102 57.2928C33.2338 57.2928 35.2797 55.1798 35.2797 52.5732C35.2797 49.9666 33.2338 47.8535 30.7102 47.8535C28.1865 47.8535 26.1406 49.9666 26.1406 52.5732C26.1406 55.1798 28.1865 57.2928 30.7102 57.2928Z" fill="url(#paint18_linear_342_764)"/>
</mask>
<g mask="url(#mask9_342_764)">
<path d="M30.7102 57.2928C33.2338 57.2928 35.2797 55.1798 35.2797 52.5732C35.2797 49.9666 33.2338 47.8535 30.7102 47.8535C28.1865 47.8535 26.1406 49.9666 26.1406 52.5732C26.1406 55.1798 28.1865 57.2928 30.7102 57.2928Z" fill="url(#paint19_linear_342_764)"/>
</g>
<mask id="mask10_342_764" style="mask-type:alpha" maskUnits="userSpaceOnUse" x="52" y="47" width="10" height="11">
<path d="M56.8469 57.2929C59.3706 57.2929 61.4164 55.1798 61.4164 52.5732C61.4164 49.9666 59.3706 47.8535 56.8469 47.8535C54.3232 47.8535 52.2773 49.9666 52.2773 52.5732C52.2773 55.1798 54.3232 57.2929 56.8469 57.2929Z" fill="url(#paint20_linear_342_764)"/>
</mask>
<g mask="url(#mask10_342_764)">
<path d="M56.8469 57.2929C59.3706 57.2929 61.4164 55.1798 61.4164 52.5732C61.4164 49.9666 59.3706 47.8535 56.8469 47.8535C54.3232 47.8535 52.2773 49.9666 52.2773 52.5732C52.2773 55.1798 54.3232 57.2929 56.8469 57.2929Z" fill="url(#paint21_linear_342_764)"/>
</g>
<mask id="mask11_342_764" style="mask-type:alpha" maskUnits="userSpaceOnUse" x="78" y="47" width="10" height="11">
<path d="M82.9875 57.2929C85.5112 57.2929 87.557 55.1798 87.557 52.5732C87.557 49.9666 85.5112 47.8535 82.9875 47.8535C80.4638 47.8535 78.418 49.9666 78.418 52.5732C78.418 55.1798 80.4638 57.2929 82.9875 57.2929Z" fill="url(#paint22_linear_342_764)"/>
</mask>
<g mask="url(#mask11_342_764)">
<path d="M82.9875 57.2929C85.5112 57.2929 87.557 55.1798 87.557 52.5732C87.557 49.9666 85.5112 47.8535 82.9875 47.8535C80.4638 47.8535 78.418 49.9666 78.418 52.5732C78.418 55.1798 80.4638 57.2929 82.9875 57.2929Z" fill="url(#paint23_linear_342_764)"/>
</g>
<mask id="mask12_342_764" style="mask-type:alpha" maskUnits="userSpaceOnUse" x="0" y="71" width="10" height="11">
<path d="M4.56954 81.2206C7.09322 81.2206 9.13908 79.1076 9.13908 76.5009C9.13908 73.8943 7.09322 71.7812 4.56954 71.7812C2.04585 71.7812 0 73.8943 0 76.5009C0 79.1076 2.04585 81.2206 4.56954 81.2206Z" fill="url(#paint24_linear_342_764)"/>
</mask>
<g mask="url(#mask12_342_764)">
<path d="M4.56954 81.2206C7.09322 81.2206 9.13908 79.1076 9.13908 76.5009C9.13908 73.8943 7.09322 71.7812 4.56954 71.7812C2.04585 71.7812 0 73.8943 0 76.5009C0 79.1076 2.04585 81.2206 4.56954 81.2206Z" fill="url(#paint25_linear_342_764)"/>
</g>
<mask id="mask13_342_764" style="mask-type:alpha" maskUnits="userSpaceOnUse" x="26" y="71" width="10" height="11">
<path d="M30.7102 81.2206C33.2339 81.2206 35.2797 79.1076 35.2797 76.5009C35.2797 73.8943 33.2339 71.7812 30.7102 71.7812C28.1865 71.7812 26.1406 73.8943 26.1406 76.5009C26.1406 79.1076 28.1865 81.2206 30.7102 81.2206Z" fill="url(#paint26_linear_342_764)"/>
</mask>
<g mask="url(#mask13_342_764)">
<path d="M30.7102 81.2206C33.2339 81.2206 35.2797 79.1076 35.2797 76.5009C35.2797 73.8943 33.2339 71.7812 30.7102 71.7812C28.1865 71.7812 26.1406 73.8943 26.1406 76.5009C26.1406 79.1076 28.1865 81.2206 30.7102 81.2206Z" fill="url(#paint27_linear_342_764)"/>
</g>
<mask id="mask14_342_764" style="mask-type:alpha" maskUnits="userSpaceOnUse" x="52" y="71" width="10" height="11">
<path d="M56.8469 81.2206C59.3706 81.2206 61.4164 79.1076 61.4164 76.5009C61.4164 73.8943 59.3706 71.7812 56.8469 71.7812C54.3232 71.7812 52.2773 73.8943 52.2773 76.5009C52.2773 79.1076 54.3232 81.2206 56.8469 81.2206Z" fill="url(#paint28_linear_342_764)"/>
</mask>
<g mask="url(#mask14_342_764)">
<path d="M56.8469 81.2206C59.3706 81.2206 61.4164 79.1076 61.4164 76.5009C61.4164 73.8943 59.3706 71.7812 56.8469 71.7812C54.3232 71.7812 52.2773 73.8943 52.2773 76.5009C52.2773 79.1076 54.3232 81.2206 56.8469 81.2206Z" fill="url(#paint29_linear_342_764)"/>
</g>
<mask id="mask15_342_764" style="mask-type:alpha" maskUnits="userSpaceOnUse" x="78" y="71" width="10" height="11">
<path d="M82.9875 81.2206C85.5112 81.2206 87.557 79.1075 87.557 76.5009C87.557 73.8943 85.5112 71.7812 82.9875 71.7812C80.4638 71.7812 78.418 73.8943 78.418 76.5009C78.418 79.1075 80.4638 81.2206 82.9875 81.2206Z" fill="url(#paint30_linear_342_764)"/>
</mask>
<g mask="url(#mask15_342_764)">
<path d="M82.9875 81.2206C85.5112 81.2206 87.557 79.1075 87.557 76.5009C87.557 73.8943 85.5112 71.7812 82.9875 71.7812C80.4638 71.7812 78.418 73.8943 78.418 76.5009C78.418 79.1075 80.4638 81.2206 82.9875 81.2206Z" fill="url(#paint31_linear_342_764)"/>
</g>
<defs>
<linearGradient id="paint0_linear_342_764" x1="48.0657" y1="118.737" x2="-18.2641" y2="-44.2824" gradientUnits="userSpaceOnUse">
<stop stop-color="white"/>
<stop offset="1" stop-color="white"/>
</linearGradient>
<linearGradient id="paint1_linear_342_764" x1="48.0657" y1="118.737" x2="-18.2641" y2="-44.2824" gradientUnits="userSpaceOnUse">
<stop stop-color="white"/>
<stop offset="1" stop-color="white"/>
</linearGradient>
<linearGradient id="paint2_linear_342_764" x1="74.2064" y1="118.737" x2="7.87666" y2="-44.2824" gradientUnits="userSpaceOnUse">
<stop stop-color="white"/>
<stop offset="1" stop-color="white"/>
</linearGradient>
<linearGradient id="paint3_linear_342_764" x1="74.2064" y1="118.737" x2="7.87666" y2="-44.2824" gradientUnits="userSpaceOnUse">
<stop stop-color="white"/>
<stop offset="1" stop-color="white"/>
</linearGradient>
<linearGradient id="paint4_linear_342_764" x1="100.343" y1="118.737" x2="34.0134" y2="-44.2824" gradientUnits="userSpaceOnUse">
<stop stop-color="white"/>
<stop offset="1" stop-color="white"/>
</linearGradient>
<linearGradient id="paint5_linear_342_764" x1="100.343" y1="118.737" x2="34.0134" y2="-44.2824" gradientUnits="userSpaceOnUse">
<stop stop-color="white"/>
<stop offset="1" stop-color="white"/>
</linearGradient>
<linearGradient id="paint6_linear_342_764" x1="126.484" y1="118.737" x2="60.154" y2="-44.2824" gradientUnits="userSpaceOnUse">
<stop stop-color="white"/>
<stop offset="1" stop-color="white"/>
</linearGradient>
<linearGradient id="paint7_linear_342_764" x1="126.484" y1="118.737" x2="60.154" y2="-44.2824" gradientUnits="userSpaceOnUse">
<stop stop-color="white"/>
<stop offset="1" stop-color="white"/>
</linearGradient>
<linearGradient id="paint8_linear_342_764" x1="48.0658" y1="142.662" x2="-18.264" y2="-20.3566" gradientUnits="userSpaceOnUse">
<stop stop-color="white"/>
<stop offset="1" stop-color="white"/>
</linearGradient>
<linearGradient id="paint9_linear_342_764" x1="48.0658" y1="142.662" x2="-18.264" y2="-20.3566" gradientUnits="userSpaceOnUse">
<stop stop-color="white"/>
<stop offset="1" stop-color="white"/>
</linearGradient>
<linearGradient id="paint10_linear_342_764" x1="74.2064" y1="142.661" x2="7.87765" y2="-20.3566" gradientUnits="userSpaceOnUse">
<stop stop-color="white"/>
<stop offset="1" stop-color="white"/>
</linearGradient>
<linearGradient id="paint11_linear_342_764" x1="74.2064" y1="142.661" x2="7.87765" y2="-20.3566" gradientUnits="userSpaceOnUse">
<stop stop-color="white"/>
<stop offset="1" stop-color="white"/>
</linearGradient>
<linearGradient id="paint12_linear_342_764" x1="100.343" y1="142.661" x2="34.0145" y2="-20.3567" gradientUnits="userSpaceOnUse">
<stop stop-color="white"/>
<stop offset="1" stop-color="white"/>
</linearGradient>
<linearGradient id="paint13_linear_342_764" x1="100.343" y1="142.661" x2="34.0145" y2="-20.3567" gradientUnits="userSpaceOnUse">
<stop stop-color="white"/>
<stop offset="1" stop-color="white"/>
</linearGradient>
<linearGradient id="paint14_linear_342_764" x1="126.484" y1="142.661" x2="60.1551" y2="-20.3567" gradientUnits="userSpaceOnUse">
<stop stop-color="white"/>
<stop offset="1" stop-color="white"/>
</linearGradient>
<linearGradient id="paint15_linear_342_764" x1="126.484" y1="142.661" x2="60.1551" y2="-20.3567" gradientUnits="userSpaceOnUse">
<stop stop-color="white"/>
<stop offset="1" stop-color="white"/>
</linearGradient>
<linearGradient id="paint16_linear_342_764" x1="48.0658" y1="166.589" x2="-18.2628" y2="3.57107" gradientUnits="userSpaceOnUse">
<stop stop-color="white"/>
<stop offset="1" stop-color="white"/>
</linearGradient>
<linearGradient id="paint17_linear_342_764" x1="48.0658" y1="166.589" x2="-18.2628" y2="3.57107" gradientUnits="userSpaceOnUse">
<stop stop-color="white"/>
<stop offset="1" stop-color="white"/>
</linearGradient>
<linearGradient id="paint18_linear_342_764" x1="74.2064" y1="166.589" x2="7.87778" y2="3.57107" gradientUnits="userSpaceOnUse">
<stop stop-color="white"/>
<stop offset="1" stop-color="white"/>
</linearGradient>
<linearGradient id="paint19_linear_342_764" x1="74.2064" y1="166.589" x2="7.87778" y2="3.57107" gradientUnits="userSpaceOnUse">
<stop stop-color="white"/>
<stop offset="1" stop-color="white"/>
</linearGradient>
<linearGradient id="paint20_linear_342_764" x1="100.343" y1="166.59" x2="34.0132" y2="3.57115" gradientUnits="userSpaceOnUse">
<stop stop-color="white"/>
<stop offset="1" stop-color="white"/>
</linearGradient>
<linearGradient id="paint21_linear_342_764" x1="100.343" y1="166.59" x2="34.0132" y2="3.57115" gradientUnits="userSpaceOnUse">
<stop stop-color="white"/>
<stop offset="1" stop-color="white"/>
</linearGradient>
<linearGradient id="paint22_linear_342_764" x1="126.484" y1="166.59" x2="60.154" y2="3.57109" gradientUnits="userSpaceOnUse">
<stop stop-color="white"/>
<stop offset="1" stop-color="white"/>
</linearGradient>
<linearGradient id="paint23_linear_342_764" x1="126.484" y1="166.59" x2="60.154" y2="3.57109" gradientUnits="userSpaceOnUse">
<stop stop-color="white"/>
<stop offset="1" stop-color="white"/>
</linearGradient>
<linearGradient id="paint24_linear_342_764" x1="48.0658" y1="190.518" x2="-18.264" y2="27.4988" gradientUnits="userSpaceOnUse">
<stop stop-color="white"/>
<stop offset="1" stop-color="white"/>
</linearGradient>
<linearGradient id="paint25_linear_342_764" x1="48.0658" y1="190.518" x2="-18.264" y2="27.4988" gradientUnits="userSpaceOnUse">
<stop stop-color="white"/>
<stop offset="1" stop-color="white"/>
</linearGradient>
<linearGradient id="paint26_linear_342_764" x1="74.2064" y1="190.518" x2="7.87666" y2="27.4988" gradientUnits="userSpaceOnUse">
<stop stop-color="white"/>
<stop offset="1" stop-color="white"/>
</linearGradient>
<linearGradient id="paint27_linear_342_764" x1="74.2064" y1="190.518" x2="7.87666" y2="27.4988" gradientUnits="userSpaceOnUse">
<stop stop-color="white"/>
<stop offset="1" stop-color="white"/>
</linearGradient>
<linearGradient id="paint28_linear_342_764" x1="100.343" y1="190.518" x2="34.0134" y2="27.4988" gradientUnits="userSpaceOnUse">
<stop stop-color="white"/>
<stop offset="1" stop-color="white"/>
</linearGradient>
<linearGradient id="paint29_linear_342_764" x1="100.343" y1="190.518" x2="34.0134" y2="27.4988" gradientUnits="userSpaceOnUse">
<stop stop-color="white"/>
<stop offset="1" stop-color="white"/>
</linearGradient>
<linearGradient id="paint30_linear_342_764" x1="126.484" y1="190.518" x2="60.1539" y2="27.4989" gradientUnits="userSpaceOnUse">
<stop stop-color="white"/>
<stop offset="1" stop-color="white"/>
</linearGradient>
<linearGradient id="paint31_linear_342_764" x1="126.484" y1="190.518" x2="60.1539" y2="27.4989" gradientUnits="userSpaceOnUse">
<stop stop-color="white"/>
<stop offset="1" stop-color="white"/>
</linearGradient>
</defs>
</svg>
