<svg width="13" height="8" viewBox="0 0 13 8" fill="none" xmlns="http://www.w3.org/2000/svg">
<mask id="mask0_405_2312" style="mask-type:alpha" maskUnits="userSpaceOnUse" x="0" y="0" width="13" height="8">
<path d="M6.63091 7.58114C9.74942 7.58114 12.2775 6.03179 12.2775 4.12062C12.2775 2.20946 9.74942 0.660156 6.63091 0.660156C3.51241 0.660156 0.984375 2.20946 0.984375 4.12062C0.984375 6.03179 3.51241 7.58114 6.63091 7.58114Z" fill="url(#paint0_linear_405_2312)"/>
</mask>
<g mask="url(#mask0_405_2312)">
<path d="M6.63091 7.58114C9.74942 7.58114 12.2775 6.03179 12.2775 4.12062C12.2775 2.20946 9.74942 0.660156 6.63091 0.660156C3.51241 0.660156 0.984375 2.20946 0.984375 4.12062C0.984375 6.03179 3.51241 7.58114 6.63091 7.58114Z" fill="url(#paint1_linear_405_2312)"/>
</g>
<defs>
<linearGradient id="paint0_linear_405_2312" x1="60.3789" y1="87.718" x2="28.5974" y2="-43.9229" gradientUnits="userSpaceOnUse">
<stop stop-color="white"/>
<stop offset="1" stop-color="white"/>
</linearGradient>
<linearGradient id="paint1_linear_405_2312" x1="60.3789" y1="87.718" x2="28.5974" y2="-43.9229" gradientUnits="userSpaceOnUse">
<stop stop-color="white"/>
<stop offset="1" stop-color="white"/>
</linearGradient>
</defs>
</svg>
