<svg width="63" height="64" viewBox="0 0 63 64" fill="none" xmlns="http://www.w3.org/2000/svg">
<rect x="0.304688" y="0.939453" width="62.14" height="62.14" rx="12" fill="#F8DEBD"/>
<path d="M38.8018 15.2246H24.62C23.8275 15.2246 23.1602 15.892 23.1602 16.6845V32.9518C23.1602 33.7443 23.8275 34.4117 24.62 34.4117H38.8018C39.5943 34.4117 40.2617 33.7443 40.2617 32.9518V16.6845C40.2617 15.892 39.5943 15.2246 38.8018 15.2246ZM28.1655 28.155H24.8286V26.9037H28.1655V28.155ZM33.5879 28.155H29.8339V26.9037H33.5879V28.155ZM38.5933 28.155H35.2564V26.9037H38.5933V28.155Z" fill="#E79B38"/>
<path d="M40.4729 12.7227H22.9543C21.7029 12.7227 20.6602 13.7654 20.6602 15.0168V35.3718C20.6602 36.5814 21.119 37.7076 21.9115 38.5835L24.0388 40.9194L24.0805 40.9611C25.5404 42.5461 25.7072 42.7129 26.0826 42.7129H29.4195V48.2188L30.0034 50.2209H33.4655L34.0494 48.2188V42.7546H37.3863C37.7617 42.7546 37.9286 42.5878 39.3884 41.0028L41.5574 38.5835C42.3499 37.7076 42.8087 36.5397 42.8087 35.3718V15.0168C42.767 13.7654 41.7243 12.7227 40.4729 12.7227ZM26.9168 41.5033V40.252H29.4195V41.5033H26.9168ZM32.3393 46.9258V44.4231H31.0879V46.9258H30.6708V40.252H32.7564V46.9258H32.3393ZM30.9211 49.0113L30.6708 48.1771H32.7147L32.4644 49.0113H30.9211ZM34.0077 40.252H36.5104V41.5033H34.0077V40.252ZM41.5157 35.3718C41.5157 36.2477 41.182 37.0819 40.5981 37.7493L38.4708 40.0851L38.4291 40.1268C38.2205 40.3771 37.9703 40.6274 37.7617 40.8359V39.5846C37.7617 39.2509 37.4697 38.9589 37.136 38.9589H26.2912C25.9575 38.9589 25.6655 39.2509 25.6655 39.5846V40.8359C25.4569 40.5857 25.2067 40.3354 24.9981 40.1268L22.8291 37.7493C22.2452 37.0819 21.9115 36.2477 21.9115 35.3718V15.0168C21.9115 14.4328 22.3703 13.974 22.9543 13.974H40.4729C41.0569 13.974 41.5157 14.4328 41.5157 15.0168V35.3718Z" fill="#E79B38"/>
<path d="M27.1014 35.85C26.515 36.4364 26.3302 37.2023 26.6885 37.5606C27.0469 37.919 27.8128 37.7341 28.3992 37.1477C28.9856 36.5613 29.1704 35.7954 28.8121 35.4371C28.4537 35.0787 27.6878 35.2636 27.1014 35.85Z" fill="#E79B38"/>
<path d="M34.6092 35.85C34.0228 36.4364 33.838 37.2023 34.1963 37.5606C34.5547 37.919 35.3206 37.7341 35.907 37.1477C36.4934 36.5613 36.6782 35.7954 36.3199 35.4371C35.9615 35.0787 35.1956 35.2636 34.6092 35.85Z" fill="#E79B38"/>
<path d="M30.8553 35.85C30.2689 36.4364 30.0841 37.2023 30.4424 37.5606C30.8008 37.919 31.5667 37.7341 32.1531 37.1477C32.7395 36.5613 32.9243 35.7954 32.566 35.4371C32.2076 35.0787 31.4417 35.2636 30.8553 35.85Z" fill="#E79B38"/>
</svg>
