<svg width="10" height="11" viewBox="0 0 10 11" fill="none" xmlns="http://www.w3.org/2000/svg">
<mask id="mask0_342_628" style="mask-type:alpha" maskUnits="userSpaceOnUse" x="0" y="0" width="10" height="11">
<path d="M5.12031 10.425C7.64399 10.425 9.68985 8.09126 9.68985 5.21248C9.68985 2.3337 7.64399 0 5.12031 0C2.59663 0 0.550781 2.3337 0.550781 5.21248C0.550781 8.09126 2.59663 10.425 5.12031 10.425Z" fill="url(#paint0_linear_342_628)"/>
</mask>
<g mask="url(#mask0_342_628)">
<path d="M5.12031 10.425C7.64399 10.425 9.68985 8.09126 9.68985 5.21248C9.68985 2.3337 7.64399 0 5.12031 0C2.59663 0 0.550781 2.3337 0.550781 5.21248C0.550781 8.09126 2.59663 10.425 5.12031 10.425Z" fill="url(#paint1_linear_342_628)"/>
</g>
<defs>
<linearGradient id="paint0_linear_342_628" x1="48.6165" y1="131.134" x2="-29.8389" y2="-43.4571" gradientUnits="userSpaceOnUse">
<stop stop-color="white"/>
<stop offset="1" stop-color="white"/>
</linearGradient>
<linearGradient id="paint1_linear_342_628" x1="48.6165" y1="131.134" x2="-29.8389" y2="-43.4571" gradientUnits="userSpaceOnUse">
<stop stop-color="white"/>
<stop offset="1" stop-color="white"/>
</linearGradient>
</defs>
</svg>
