<svg width="10" height="12" viewBox="0 0 10 12" fill="none" xmlns="http://www.w3.org/2000/svg">
<mask id="mask0_342_660" style="mask-type:alpha" maskUnits="userSpaceOnUse" x="0" y="0" width="10" height="12">
<path d="M5.26095 11.2746C7.78464 11.2746 9.83048 8.94082 9.83048 6.06206C9.83048 3.18329 7.78464 0.849609 5.26095 0.849609C2.73726 0.849609 0.691406 3.18329 0.691406 6.06206C0.691406 8.94082 2.73726 11.2746 5.26095 11.2746Z" fill="url(#paint0_linear_342_660)"/>
</mask>
<g mask="url(#mask0_342_660)">
<path d="M5.26095 11.2746C7.78464 11.2746 9.83048 8.94082 9.83048 6.06206C9.83048 3.18329 7.78464 0.849609 5.26095 0.849609C2.73726 0.849609 0.691406 3.18329 0.691406 6.06206C0.691406 8.94082 2.73726 11.2746 5.26095 11.2746Z" fill="url(#paint1_linear_342_660)"/>
</g>
<defs>
<linearGradient id="paint0_linear_342_660" x1="48.7572" y1="131.983" x2="-29.6981" y2="-42.6075" gradientUnits="userSpaceOnUse">
<stop stop-color="white"/>
<stop offset="1" stop-color="white"/>
</linearGradient>
<linearGradient id="paint1_linear_342_660" x1="48.7572" y1="131.983" x2="-29.6981" y2="-42.6075" gradientUnits="userSpaceOnUse">
<stop stop-color="white"/>
<stop offset="1" stop-color="white"/>
</linearGradient>
</defs>
</svg>
