<svg width="10" height="11" viewBox="0 0 10 11" fill="none" xmlns="http://www.w3.org/2000/svg">
<mask id="mask0_342_636" style="mask-type:alpha" maskUnits="userSpaceOnUse" x="0" y="0" width="10" height="11">
<path d="M5.39766 10.425C7.92135 10.425 9.9672 8.09126 9.9672 5.21248C9.9672 2.3337 7.92135 0 5.39766 0C2.87398 0 0.828125 2.3337 0.828125 5.21248C0.828125 8.09126 2.87398 10.425 5.39766 10.425Z" fill="url(#paint0_linear_342_636)"/>
</mask>
<g mask="url(#mask0_342_636)">
<path d="M5.39766 10.425C7.92135 10.425 9.9672 8.09126 9.9672 5.21248C9.9672 2.3337 7.92135 0 5.39766 0C2.87398 0 0.828125 2.3337 0.828125 5.21248C0.828125 8.09126 2.87398 10.425 5.39766 10.425Z" fill="url(#paint1_linear_342_636)"/>
</g>
<defs>
<linearGradient id="paint0_linear_342_636" x1="48.8939" y1="131.134" x2="-29.5614" y2="-43.4571" gradientUnits="userSpaceOnUse">
<stop stop-color="white"/>
<stop offset="1" stop-color="white"/>
</linearGradient>
<linearGradient id="paint1_linear_342_636" x1="48.8939" y1="131.134" x2="-29.5614" y2="-43.4571" gradientUnits="userSpaceOnUse">
<stop stop-color="white"/>
<stop offset="1" stop-color="white"/>
</linearGradient>
</defs>
</svg>
