<svg width="29" height="27" viewBox="0 0 29 27" fill="none" xmlns="http://www.w3.org/2000/svg">
<path d="M27.2622 25.2106V22.5493C27.2622 21.1376 26.5895 19.7837 25.3921 18.7855C24.1947 17.7873 22.5707 17.2266 20.8773 17.2266H8.10754C6.41416 17.2266 4.79014 17.7873 3.59274 18.7855C2.39535 19.7837 1.72266 21.1376 1.72266 22.5493V25.2106" fill="#828282"/>
<path d="M27.2622 25.2106V22.5493C27.2622 21.1376 26.5895 19.7837 25.3921 18.7855C24.1947 17.7873 22.5707 17.2266 20.8773 17.2266H8.10754C6.41416 17.2266 4.79014 17.7873 3.59274 18.7855C2.39535 19.7837 1.72266 21.1376 1.72266 22.5493V25.2106" stroke="#828282" stroke-width="2" stroke-linecap="round" stroke-linejoin="round"/>
<path d="M14.4904 11.9032C18.0166 11.9032 20.8752 9.52015 20.8752 6.58051C20.8752 3.64086 18.0166 1.25781 14.4904 1.25781C10.9641 1.25781 8.10547 3.64086 8.10547 6.58051C8.10547 9.52015 10.9641 11.9032 14.4904 11.9032Z" fill="#828282" stroke="#828282" stroke-width="2" stroke-linecap="round" stroke-linejoin="round"/>
</svg>
