<svg width="13" height="8" viewBox="0 0 13 8" fill="none" xmlns="http://www.w3.org/2000/svg">
<mask id="mask0_405_2328" style="mask-type:alpha" maskUnits="userSpaceOnUse" x="0" y="0" width="13" height="8">
<path d="M6.63091 7.29207C9.74942 7.29207 12.2775 5.74276 12.2775 3.83158C12.2775 1.9204 9.74942 0.371094 6.63091 0.371094C3.51241 0.371094 0.984375 1.9204 0.984375 3.83158C0.984375 5.74276 3.51241 7.29207 6.63091 7.29207Z" fill="url(#paint0_linear_405_2328)"/>
</mask>
<g mask="url(#mask0_405_2328)">
<path d="M6.63091 7.29207C9.74942 7.29207 12.2775 5.74276 12.2775 3.83158C12.2775 1.9204 9.74942 0.371094 6.63091 0.371094C3.51241 0.371094 0.984375 1.9204 0.984375 3.83158C0.984375 5.74276 3.51241 7.29207 6.63091 7.29207Z" fill="url(#paint1_linear_405_2328)"/>
</g>
<defs>
<linearGradient id="paint0_linear_405_2328" x1="60.3789" y1="87.429" x2="28.5974" y2="-44.212" gradientUnits="userSpaceOnUse">
<stop stop-color="white"/>
<stop offset="1" stop-color="white"/>
</linearGradient>
<linearGradient id="paint1_linear_405_2328" x1="60.3789" y1="87.429" x2="28.5974" y2="-44.212" gradientUnits="userSpaceOnUse">
<stop stop-color="white"/>
<stop offset="1" stop-color="white"/>
</linearGradient>
</defs>
</svg>
