<svg width="69" height="51" viewBox="0 0 69 51" fill="none" xmlns="http://www.w3.org/2000/svg">
<rect x="0.308594" y="0.949219" width="67.7847" height="49.1917" rx="12" fill="#F8DEBD"/>
<path d="M42.3086 12.2617H26.8386C25.9741 12.2617 25.2461 12.79 25.2461 13.4174V26.2951C25.2461 26.9224 25.9741 27.4507 26.8386 27.4507H42.3086C43.1731 27.4507 43.9011 26.9224 43.9011 26.2951V13.4174C43.9011 12.79 43.1731 12.2617 42.3086 12.2617ZM30.7061 22.4978H27.0661V21.5072H30.7061V22.4978ZM36.6211 22.4978H32.5261V21.5072H36.6211V22.4978ZM42.0811 22.4978H38.4411V21.5072H42.0811V22.4978Z" fill="#E79B38"/>
<path d="M44.1282 10.2793H25.0181C23.6531 10.2793 22.5156 11.1048 22.5156 12.0954V28.2089C22.5156 29.1665 23.0161 30.058 23.8806 30.7515L26.2011 32.6006L26.2466 32.6336C27.8391 33.8883 28.0211 34.0204 28.4306 34.0204H32.0706V38.379L32.7076 39.9639H36.4842L37.1212 38.379V34.0534H40.7612C41.1707 34.0534 41.3527 33.9213 42.9452 32.6666L45.3112 30.7515C46.1757 30.058 46.6762 29.1335 46.6762 28.2089V12.0954C46.6307 11.1048 45.4932 10.2793 44.1282 10.2793ZM29.3406 33.0628V32.0722H32.0706V33.0628H29.3406ZM35.2556 37.3554V35.3742H33.8906V37.3554H33.4356V32.0722H35.7107V37.3554H35.2556ZM33.7086 39.0064L33.4356 38.346H35.6652L35.3922 39.0064H33.7086ZM37.0757 32.0722H39.8057V33.0628H37.0757V32.0722ZM45.2657 28.2089C45.2657 28.9024 44.9017 29.5627 44.2647 30.0911L41.9442 31.9402L41.8987 31.9732C41.6712 32.1713 41.3982 32.3694 41.1707 32.5345V31.5439C41.1707 31.2798 40.8522 31.0486 40.4882 31.0486H28.6581C28.2941 31.0486 27.9756 31.2798 27.9756 31.5439V32.5345C27.7481 32.3364 27.4751 32.1383 27.2476 31.9732L24.8816 30.0911C24.2446 29.5627 23.8806 28.9024 23.8806 28.2089V12.0954C23.8806 11.6331 24.3811 11.2699 25.0181 11.2699H44.1282C44.7652 11.2699 45.2657 11.6331 45.2657 12.0954V28.2089Z" fill="#E79B38"/>
<path d="M29.5433 28.5867C28.9037 29.0509 28.702 29.6572 29.0929 29.9408C29.4838 30.2245 30.3193 30.0782 30.959 29.614C31.5986 29.1498 31.8003 28.5435 31.4094 28.2598C31.0185 27.9761 30.183 28.1224 29.5433 28.5867Z" fill="#E79B38"/>
<path d="M37.7308 28.5867C37.0912 29.0509 36.8895 29.6572 37.2804 29.9408C37.6713 30.2245 38.5068 30.0782 39.1465 29.614C39.7861 29.1498 39.9878 28.5435 39.5969 28.2598C39.206 27.9761 38.3705 28.1224 37.7308 28.5867Z" fill="#E79B38"/>
<path d="M33.6371 28.5867C32.9974 29.0509 32.7958 29.6572 33.1867 29.9408C33.5776 30.2245 34.413 30.0782 35.0527 29.614C35.6924 29.1498 35.894 28.5435 35.5031 28.2598C35.1122 27.9761 34.2768 28.1224 33.6371 28.5867Z" fill="#E79B38"/>
</svg>
