<svg width="68" height="51" viewBox="0 0 68 51" fill="none" xmlns="http://www.w3.org/2000/svg">
<rect x="0.0859375" y="0.949219" width="67.7847" height="49.1917" rx="12" fill="#F8DEBD"/>
<path d="M42.0821 12.2617H26.612C25.7475 12.2617 25.0195 12.79 25.0195 13.4174V26.2951C25.0195 26.9224 25.7475 27.4507 26.612 27.4507H42.0821C42.9466 27.4507 43.6746 26.9224 43.6746 26.2951V13.4174C43.6746 12.79 42.9466 12.2617 42.0821 12.2617ZM30.4795 22.4978H26.8395V21.5072H30.4795V22.4978ZM36.3946 22.4978H32.2995V21.5072H36.3946V22.4978ZM41.8546 22.4978H38.2146V21.5072H41.8546V22.4978Z" fill="#E79B38"/>
<path d="M43.9016 10.2793H24.7916C23.4266 10.2793 22.2891 11.1048 22.2891 12.0954V28.2089C22.2891 29.1665 22.7896 30.058 23.6541 30.7515L25.9746 32.6006L26.0201 32.6336C27.6126 33.8883 27.7946 34.0204 28.2041 34.0204H31.8441V38.379L32.4811 39.9639H36.2576L36.8946 38.379V34.0534H40.5346C40.9441 34.0534 41.1261 33.9213 42.7186 32.6666L45.0846 30.7515C45.9491 30.058 46.4496 29.1335 46.4496 28.2089V12.0954C46.4041 11.1048 45.2666 10.2793 43.9016 10.2793ZM29.1141 33.0628V32.0722H31.8441V33.0628H29.1141ZM35.0291 37.3554V35.3742H33.6641V37.3554H33.2091V32.0722H35.4841V37.3554H35.0291ZM33.4821 39.0064L33.2091 38.346H35.4386L35.1656 39.0064H33.4821ZM36.8491 32.0722H39.5791V33.0628H36.8491V32.0722ZM45.0391 28.2089C45.0391 28.9024 44.6751 29.5627 44.0381 30.0911L41.7176 31.9402L41.6721 31.9732C41.4446 32.1713 41.1716 32.3694 40.9441 32.5345V31.5439C40.9441 31.2798 40.6256 31.0486 40.2616 31.0486H28.4316C28.0676 31.0486 27.7491 31.2798 27.7491 31.5439V32.5345C27.5216 32.3364 27.2486 32.1383 27.0211 31.9732L24.6551 30.0911C24.0181 29.5627 23.6541 28.9024 23.6541 28.2089V12.0954C23.6541 11.6331 24.1546 11.2699 24.7916 11.2699H43.9016C44.5386 11.2699 45.0391 11.6331 45.0391 12.0954V28.2089Z" fill="#E79B38"/>
<path d="M29.3168 28.5867C28.6771 29.0509 28.4754 29.6572 28.8664 29.9408C29.2573 30.2245 30.0927 30.0782 30.7324 29.614C31.3721 29.1498 31.5737 28.5435 31.1828 28.2598C30.7919 27.9761 29.9565 28.1224 29.3168 28.5867Z" fill="#E79B38"/>
<path d="M37.5043 28.5867C36.8646 29.0509 36.6629 29.6572 37.0539 29.9408C37.4448 30.2245 38.2802 30.0782 38.9199 29.614C39.5596 29.1498 39.7612 28.5435 39.3703 28.2598C38.9794 27.9761 38.144 28.1224 37.5043 28.5867Z" fill="#E79B38"/>
<path d="M33.4105 28.5867C32.7709 29.0509 32.5692 29.6572 32.9601 29.9408C33.351 30.2245 34.1865 30.0782 34.8261 29.614C35.4658 29.1498 35.6675 28.5435 35.2766 28.2598C34.8857 27.9761 34.0502 28.1224 33.4105 28.5867Z" fill="#E79B38"/>
</svg>
