<svg width="28" height="31" viewBox="0 0 28 31" fill="none" xmlns="http://www.w3.org/2000/svg">
<path d="M26.0238 29.6695V26.4958C26.0238 24.8124 25.3821 23.1979 24.2398 22.0075C23.0975 20.8172 21.5483 20.1484 19.9329 20.1484H7.75107C6.13566 20.1484 4.58641 20.8172 3.44414 22.0075C2.30187 23.1979 1.66016 24.8124 1.66016 26.4958V29.6695" fill="#FFFEFE"/>
<path d="M26.0238 29.6695V26.4958C26.0238 24.8124 25.3821 23.1979 24.2398 22.0075C23.0975 20.8172 21.5483 20.1484 19.9329 20.1484H7.75107C6.13566 20.1484 4.58641 20.8172 3.44414 22.0075C2.30187 23.1979 1.66016 24.8124 1.66016 26.4958V29.6695" stroke="#828282" stroke-width="2" stroke-linecap="round" stroke-linejoin="round"/>
<path d="M13.8409 13.812C17.2048 13.812 19.9318 10.9701 19.9318 7.46458C19.9318 3.95901 17.2048 1.11719 13.8409 1.11719C10.477 1.11719 7.75 3.95901 7.75 7.46458C7.75 10.9701 10.477 13.812 13.8409 13.812Z" fill="#FFFEFE" stroke="#828282" stroke-width="2" stroke-linecap="round" stroke-linejoin="round"/>
</svg>
