<svg width="69" height="51" viewBox="0 0 69 51" fill="none" xmlns="http://www.w3.org/2000/svg">
<rect x="0.304688" y="0.810547" width="67.7847" height="49.1917" rx="12" transform="rotate(0.213656 0.304688 0.810547)" fill="#F8DEBD"/>
<path d="M42.2616 12.2804L26.7917 12.2227C25.9272 12.2195 25.1972 12.7451 25.1949 13.3725L25.1469 26.25C25.1445 26.8774 25.8706 27.4084 26.7351 27.4116L42.205 27.4693C43.0695 27.4726 43.7995 26.947 43.8018 26.3196L43.8498 13.442C43.8522 12.8147 43.1261 12.2836 42.2616 12.2804ZM30.621 22.4732L26.981 22.4596L26.9847 21.469L30.6247 21.4826L30.621 22.4732ZM36.536 22.4952L32.441 22.48L32.4447 21.4894L36.5397 21.5046L36.536 22.4952ZM41.996 22.5156L38.356 22.502L38.3597 21.5114L41.9997 21.525L41.996 22.5156Z" fill="#E79B38"/>
<path d="M44.089 10.3052L24.979 10.2339C23.6141 10.2289 22.4735 11.0501 22.4698 12.0407L22.4097 28.1541C22.4061 29.1117 22.9033 30.0051 23.7652 30.7017L26.0788 32.5595L26.1242 32.5926C27.712 33.8533 27.8935 33.9861 28.303 33.9876L31.943 34.0012L31.9267 38.3597L32.5578 39.947L36.3343 39.9611L36.9772 38.3786L36.9933 34.053L40.6333 34.0666C41.0428 34.0681 41.2253 33.9367 42.8225 32.6879L45.1956 30.7816C46.0627 30.0914 46.5666 29.1688 46.5701 28.2442L46.6302 12.1308C46.5884 11.14 45.4539 10.3103 44.089 10.3052ZM29.2166 33.0334L29.2203 32.0429L31.9502 32.053L31.9466 33.0436L29.2166 33.0334ZM35.1155 37.348L35.1229 35.3668L33.7579 35.3618L33.7505 37.3429L33.2955 37.3412L33.3152 32.0581L35.5902 32.0666L35.5705 37.3497L35.1155 37.348ZM33.5624 38.9932L33.2918 38.3318L35.5213 38.3401L35.2459 38.9995L33.5624 38.9932ZM36.9552 32.0717L39.6852 32.0819L39.6815 33.0725L36.9515 33.0623L36.9552 32.0717ZM45.1596 28.239C45.157 28.9324 44.7905 29.5914 44.1516 30.1173L41.8242 31.9578L41.7786 31.9906C41.5503 32.1879 41.2766 32.385 41.0485 32.5492L41.0522 31.5587C41.0532 31.2945 40.7355 31.0622 40.3715 31.0608L28.5416 31.0167C28.1776 31.0153 27.8582 31.2453 27.8572 31.5095L27.8535 32.5C27.6268 32.3011 27.3545 32.1019 27.1276 31.936L24.7687 30.0451C24.1336 29.5144 23.7721 28.8526 23.7747 28.1592L23.8348 12.0458C23.8365 11.5835 24.3384 11.2221 24.9754 11.2245L44.0853 11.2958C44.7223 11.2982 45.2214 11.6632 45.2197 12.1255L45.1596 28.239Z" fill="#E79B38"/>
<path d="M29.4347 28.5575C28.7933 29.0193 28.5894 29.6249 28.9792 29.91C29.3691 30.1952 30.2051 30.0519 30.8465 29.5901C31.4879 29.1283 31.6918 28.5228 31.3019 28.2376C30.9121 27.9525 30.0761 28.0957 29.4347 28.5575Z" fill="#E79B38"/>
<path d="M37.6261 28.5888C36.9847 29.0506 36.7808 29.6561 37.1706 29.9413C37.5605 30.2264 38.3965 30.0832 39.0379 29.6214C39.6793 29.1595 39.8832 28.554 39.4933 28.2689C39.1035 27.9837 38.2675 28.1269 37.6261 28.5888Z" fill="#E79B38"/>
<path d="M33.5323 28.5731C32.8909 29.035 32.687 29.6405 33.0769 29.9257C33.4667 30.2108 34.3027 30.0676 34.9441 29.6057C35.5855 29.1439 35.7894 28.5384 35.3996 28.2532C35.0097 27.9681 34.1737 28.1113 33.5323 28.5731Z" fill="#E79B38"/>
</svg>
