<svg width="13" height="7" viewBox="0 0 13 7" fill="none" xmlns="http://www.w3.org/2000/svg">
<mask id="mask0_405_2320" style="mask-type:alpha" maskUnits="userSpaceOnUse" x="0" y="0" width="13" height="7">
<path d="M6.63091 6.95411C9.74942 6.95411 12.2775 5.40482 12.2775 3.49366C12.2775 1.5825 9.74942 0.0332031 6.63091 0.0332031C3.51241 0.0332031 0.984375 1.5825 0.984375 3.49366C0.984375 5.40482 3.51241 6.95411 6.63091 6.95411Z" fill="url(#paint0_linear_405_2320)"/>
</mask>
<g mask="url(#mask0_405_2320)">
<path d="M6.63091 6.95411C9.74942 6.95411 12.2775 5.40482 12.2775 3.49366C12.2775 1.5825 9.74942 0.0332031 6.63091 0.0332031C3.51241 0.0332031 0.984375 1.5825 0.984375 3.49366C0.984375 5.40482 3.51241 6.95411 6.63091 6.95411Z" fill="url(#paint1_linear_405_2320)"/>
</g>
<defs>
<linearGradient id="paint0_linear_405_2320" x1="60.3789" y1="87.0902" x2="28.598" y2="-44.5496" gradientUnits="userSpaceOnUse">
<stop stop-color="white"/>
<stop offset="1" stop-color="white"/>
</linearGradient>
<linearGradient id="paint1_linear_405_2320" x1="60.3789" y1="87.0902" x2="28.598" y2="-44.5496" gradientUnits="userSpaceOnUse">
<stop stop-color="white"/>
<stop offset="1" stop-color="white"/>
</linearGradient>
</defs>
</svg>
