<svg width="88" height="153" viewBox="0 0 88 153" fill="none" xmlns="http://www.w3.org/2000/svg">
<mask id="mask0_342_689" style="mask-type:alpha" maskUnits="userSpaceOnUse" x="0" y="0" width="10" height="10">
<path d="M4.75703 9.43939C7.28071 9.43939 9.32657 7.32627 9.32657 4.71967C9.32657 2.11306 7.28071 0 4.75703 0C2.23335 0 0.1875 2.11306 0.1875 4.71967C0.1875 7.32627 2.23335 9.43939 4.75703 9.43939Z" fill="url(#paint0_linear_342_689)"/>
</mask>
<g mask="url(#mask0_342_689)">
<path d="M4.75703 9.43939C7.28071 9.43939 9.32657 7.32627 9.32657 4.71967C9.32657 2.11306 7.28071 0 4.75703 0C2.23335 0 0.1875 2.11306 0.1875 4.71967C0.1875 7.32627 2.23335 9.43939 4.75703 9.43939Z" fill="url(#paint1_linear_342_689)"/>
</g>
<mask id="mask1_342_689" style="mask-type:alpha" maskUnits="userSpaceOnUse" x="26" y="0" width="10" height="10">
<path d="M30.8977 9.43939C33.4213 9.43939 35.4672 7.32627 35.4672 4.71967C35.4672 2.11306 33.4213 0 30.8977 0C28.374 0 26.3281 2.11306 26.3281 4.71967C26.3281 7.32627 28.374 9.43939 30.8977 9.43939Z" fill="url(#paint2_linear_342_689)"/>
</mask>
<g mask="url(#mask1_342_689)">
<path d="M30.8977 9.43939C33.4213 9.43939 35.4672 7.32627 35.4672 4.71967C35.4672 2.11306 33.4213 0 30.8977 0C28.374 0 26.3281 2.11306 26.3281 4.71967C26.3281 7.32627 28.374 9.43939 30.8977 9.43939Z" fill="url(#paint3_linear_342_689)"/>
</g>
<mask id="mask2_342_689" style="mask-type:alpha" maskUnits="userSpaceOnUse" x="52" y="0" width="10" height="10">
<path d="M57.0344 9.43939C59.5581 9.43939 61.6039 7.32627 61.6039 4.71967C61.6039 2.11306 59.5581 0 57.0344 0C54.5107 0 52.4648 2.11306 52.4648 4.71967C52.4648 7.32627 54.5107 9.43939 57.0344 9.43939Z" fill="url(#paint4_linear_342_689)"/>
</mask>
<g mask="url(#mask2_342_689)">
<path d="M57.0344 9.43939C59.5581 9.43939 61.6039 7.32627 61.6039 4.71967C61.6039 2.11306 59.5581 0 57.0344 0C54.5107 0 52.4648 2.11306 52.4648 4.71967C52.4648 7.32627 54.5107 9.43939 57.0344 9.43939Z" fill="url(#paint5_linear_342_689)"/>
</g>
<mask id="mask3_342_689" style="mask-type:alpha" maskUnits="userSpaceOnUse" x="78" y="0" width="10" height="10">
<path d="M83.175 9.43939C85.6987 9.43939 87.7445 7.32627 87.7445 4.71967C87.7445 2.11306 85.6987 0 83.175 0C80.6513 0 78.6055 2.11306 78.6055 4.71967C78.6055 7.32627 80.6513 9.43939 83.175 9.43939Z" fill="url(#paint6_linear_342_689)"/>
</mask>
<g mask="url(#mask3_342_689)">
<path d="M83.175 9.43939C85.6987 9.43939 87.7445 7.32627 87.7445 4.71967C87.7445 2.11306 85.6987 0 83.175 0C80.6513 0 78.6055 2.11306 78.6055 4.71967C78.6055 7.32627 80.6513 9.43939 83.175 9.43939Z" fill="url(#paint7_linear_342_689)"/>
</g>
<mask id="mask4_342_689" style="mask-type:alpha" maskUnits="userSpaceOnUse" x="0" y="23" width="10" height="11">
<path d="M4.75703 33.3652C7.28072 33.3652 9.32658 31.2521 9.32658 28.6454C9.32658 26.0388 7.28072 23.9258 4.75703 23.9258C2.23334 23.9258 0.1875 26.0388 0.1875 28.6454C0.1875 31.2521 2.23334 33.3652 4.75703 33.3652Z" fill="url(#paint8_linear_342_689)"/>
</mask>
<g mask="url(#mask4_342_689)">
<path d="M4.75703 33.3652C7.28072 33.3652 9.32658 31.2521 9.32658 28.6454C9.32658 26.0388 7.28072 23.9258 4.75703 23.9258C2.23334 23.9258 0.1875 26.0388 0.1875 28.6454C0.1875 31.2521 2.23334 33.3652 4.75703 33.3652Z" fill="url(#paint9_linear_342_689)"/>
</g>
<mask id="mask5_342_689" style="mask-type:alpha" maskUnits="userSpaceOnUse" x="26" y="23" width="10" height="11">
<path d="M30.8977 33.3651C33.4213 33.3651 35.4672 31.252 35.4672 28.6454C35.4672 26.0388 33.4213 23.9258 30.8977 23.9258C28.374 23.9258 26.3281 26.0388 26.3281 28.6454C26.3281 31.252 28.374 33.3651 30.8977 33.3651Z" fill="url(#paint10_linear_342_689)"/>
</mask>
<g mask="url(#mask5_342_689)">
<path d="M30.8977 33.3651C33.4213 33.3651 35.4672 31.252 35.4672 28.6454C35.4672 26.0388 33.4213 23.9258 30.8977 23.9258C28.374 23.9258 26.3281 26.0388 26.3281 28.6454C26.3281 31.252 28.374 33.3651 30.8977 33.3651Z" fill="url(#paint11_linear_342_689)"/>
</g>
<mask id="mask6_342_689" style="mask-type:alpha" maskUnits="userSpaceOnUse" x="52" y="23" width="10" height="11">
<path d="M57.0344 33.3651C59.5581 33.3651 61.6039 31.252 61.6039 28.6454C61.6039 26.0388 59.5581 23.9258 57.0344 23.9258C54.5107 23.9258 52.4648 26.0388 52.4648 28.6454C52.4648 31.252 54.5107 33.3651 57.0344 33.3651Z" fill="url(#paint12_linear_342_689)"/>
</mask>
<g mask="url(#mask6_342_689)">
<path d="M57.0344 33.3651C59.5581 33.3651 61.6039 31.252 61.6039 28.6454C61.6039 26.0388 59.5581 23.9258 57.0344 23.9258C54.5107 23.9258 52.4648 26.0388 52.4648 28.6454C52.4648 31.252 54.5107 33.3651 57.0344 33.3651Z" fill="url(#paint13_linear_342_689)"/>
</g>
<mask id="mask7_342_689" style="mask-type:alpha" maskUnits="userSpaceOnUse" x="78" y="23" width="10" height="11">
<path d="M83.175 33.3651C85.6987 33.3651 87.7445 31.252 87.7445 28.6454C87.7445 26.0388 85.6987 23.9258 83.175 23.9258C80.6513 23.9258 78.6055 26.0388 78.6055 28.6454C78.6055 31.252 80.6513 33.3651 83.175 33.3651Z" fill="url(#paint14_linear_342_689)"/>
</mask>
<g mask="url(#mask7_342_689)">
<path d="M83.175 33.3651C85.6987 33.3651 87.7445 31.252 87.7445 28.6454C87.7445 26.0388 85.6987 23.9258 83.175 23.9258C80.6513 23.9258 78.6055 26.0388 78.6055 28.6454C78.6055 31.252 80.6513 33.3651 83.175 33.3651Z" fill="url(#paint15_linear_342_689)"/>
</g>
<mask id="mask8_342_689" style="mask-type:alpha" maskUnits="userSpaceOnUse" x="0" y="47" width="10" height="11">
<path d="M4.75705 57.2928C7.28074 57.2928 9.32658 55.1798 9.32658 52.5732C9.32658 49.9666 7.28074 47.8535 4.75705 47.8535C2.23336 47.8535 0.1875 49.9666 0.1875 52.5732C0.1875 55.1798 2.23336 57.2928 4.75705 57.2928Z" fill="url(#paint16_linear_342_689)"/>
</mask>
<g mask="url(#mask8_342_689)">
<path d="M4.75705 57.2928C7.28074 57.2928 9.32658 55.1798 9.32658 52.5732C9.32658 49.9666 7.28074 47.8535 4.75705 47.8535C2.23336 47.8535 0.1875 49.9666 0.1875 52.5732C0.1875 55.1798 2.23336 57.2928 4.75705 57.2928Z" fill="url(#paint17_linear_342_689)"/>
</g>
<mask id="mask9_342_689" style="mask-type:alpha" maskUnits="userSpaceOnUse" x="26" y="47" width="10" height="11">
<path d="M30.8977 57.2928C33.4213 57.2928 35.4672 55.1798 35.4672 52.5732C35.4672 49.9666 33.4213 47.8535 30.8977 47.8535C28.374 47.8535 26.3281 49.9666 26.3281 52.5732C26.3281 55.1798 28.374 57.2928 30.8977 57.2928Z" fill="url(#paint18_linear_342_689)"/>
</mask>
<g mask="url(#mask9_342_689)">
<path d="M30.8977 57.2928C33.4213 57.2928 35.4672 55.1798 35.4672 52.5732C35.4672 49.9666 33.4213 47.8535 30.8977 47.8535C28.374 47.8535 26.3281 49.9666 26.3281 52.5732C26.3281 55.1798 28.374 57.2928 30.8977 57.2928Z" fill="url(#paint19_linear_342_689)"/>
</g>
<mask id="mask10_342_689" style="mask-type:alpha" maskUnits="userSpaceOnUse" x="52" y="47" width="10" height="11">
<path d="M57.0344 57.2929C59.5581 57.2929 61.6039 55.1798 61.6039 52.5732C61.6039 49.9666 59.5581 47.8535 57.0344 47.8535C54.5107 47.8535 52.4648 49.9666 52.4648 52.5732C52.4648 55.1798 54.5107 57.2929 57.0344 57.2929Z" fill="url(#paint20_linear_342_689)"/>
</mask>
<g mask="url(#mask10_342_689)">
<path d="M57.0344 57.2929C59.5581 57.2929 61.6039 55.1798 61.6039 52.5732C61.6039 49.9666 59.5581 47.8535 57.0344 47.8535C54.5107 47.8535 52.4648 49.9666 52.4648 52.5732C52.4648 55.1798 54.5107 57.2929 57.0344 57.2929Z" fill="url(#paint21_linear_342_689)"/>
</g>
<mask id="mask11_342_689" style="mask-type:alpha" maskUnits="userSpaceOnUse" x="78" y="47" width="10" height="11">
<path d="M83.175 57.2929C85.6987 57.2929 87.7445 55.1798 87.7445 52.5732C87.7445 49.9666 85.6987 47.8535 83.175 47.8535C80.6513 47.8535 78.6055 49.9666 78.6055 52.5732C78.6055 55.1798 80.6513 57.2929 83.175 57.2929Z" fill="url(#paint22_linear_342_689)"/>
</mask>
<g mask="url(#mask11_342_689)">
<path d="M83.175 57.2929C85.6987 57.2929 87.7445 55.1798 87.7445 52.5732C87.7445 49.9666 85.6987 47.8535 83.175 47.8535C80.6513 47.8535 78.6055 49.9666 78.6055 52.5732C78.6055 55.1798 80.6513 57.2929 83.175 57.2929Z" fill="url(#paint23_linear_342_689)"/>
</g>
<mask id="mask12_342_689" style="mask-type:alpha" maskUnits="userSpaceOnUse" x="0" y="71" width="10" height="11">
<path d="M4.75704 81.2206C7.28072 81.2206 9.32658 79.1076 9.32658 76.5009C9.32658 73.8943 7.28072 71.7812 4.75704 71.7812C2.23335 71.7812 0.1875 73.8943 0.1875 76.5009C0.1875 79.1076 2.23335 81.2206 4.75704 81.2206Z" fill="url(#paint24_linear_342_689)"/>
</mask>
<g mask="url(#mask12_342_689)">
<path d="M4.75704 81.2206C7.28072 81.2206 9.32658 79.1076 9.32658 76.5009C9.32658 73.8943 7.28072 71.7812 4.75704 71.7812C2.23335 71.7812 0.1875 73.8943 0.1875 76.5009C0.1875 79.1076 2.23335 81.2206 4.75704 81.2206Z" fill="url(#paint25_linear_342_689)"/>
</g>
<mask id="mask13_342_689" style="mask-type:alpha" maskUnits="userSpaceOnUse" x="26" y="71" width="10" height="11">
<path d="M30.8977 81.2206C33.4214 81.2206 35.4672 79.1076 35.4672 76.5009C35.4672 73.8943 33.4214 71.7812 30.8977 71.7812C28.374 71.7812 26.3281 73.8943 26.3281 76.5009C26.3281 79.1076 28.374 81.2206 30.8977 81.2206Z" fill="url(#paint26_linear_342_689)"/>
</mask>
<g mask="url(#mask13_342_689)">
<path d="M30.8977 81.2206C33.4214 81.2206 35.4672 79.1076 35.4672 76.5009C35.4672 73.8943 33.4214 71.7812 30.8977 71.7812C28.374 71.7812 26.3281 73.8943 26.3281 76.5009C26.3281 79.1076 28.374 81.2206 30.8977 81.2206Z" fill="url(#paint27_linear_342_689)"/>
</g>
<mask id="mask14_342_689" style="mask-type:alpha" maskUnits="userSpaceOnUse" x="52" y="71" width="10" height="11">
<path d="M57.0344 81.2206C59.5581 81.2206 61.6039 79.1076 61.6039 76.5009C61.6039 73.8943 59.5581 71.7812 57.0344 71.7812C54.5107 71.7812 52.4648 73.8943 52.4648 76.5009C52.4648 79.1076 54.5107 81.2206 57.0344 81.2206Z" fill="url(#paint28_linear_342_689)"/>
</mask>
<g mask="url(#mask14_342_689)">
<path d="M57.0344 81.2206C59.5581 81.2206 61.6039 79.1076 61.6039 76.5009C61.6039 73.8943 59.5581 71.7812 57.0344 71.7812C54.5107 71.7812 52.4648 73.8943 52.4648 76.5009C52.4648 79.1076 54.5107 81.2206 57.0344 81.2206Z" fill="url(#paint29_linear_342_689)"/>
</g>
<mask id="mask15_342_689" style="mask-type:alpha" maskUnits="userSpaceOnUse" x="78" y="71" width="10" height="11">
<path d="M83.175 81.2206C85.6987 81.2206 87.7445 79.1075 87.7445 76.5009C87.7445 73.8943 85.6987 71.7812 83.175 71.7812C80.6513 71.7812 78.6055 73.8943 78.6055 76.5009C78.6055 79.1075 80.6513 81.2206 83.175 81.2206Z" fill="url(#paint30_linear_342_689)"/>
</mask>
<g mask="url(#mask15_342_689)">
<path d="M83.175 81.2206C85.6987 81.2206 87.7445 79.1075 87.7445 76.5009C87.7445 73.8943 85.6987 71.7812 83.175 71.7812C80.6513 71.7812 78.6055 73.8943 78.6055 76.5009C78.6055 79.1075 80.6513 81.2206 83.175 81.2206Z" fill="url(#paint31_linear_342_689)"/>
</g>
<defs>
<linearGradient id="paint0_linear_342_689" x1="48.2532" y1="118.737" x2="-18.0766" y2="-44.2824" gradientUnits="userSpaceOnUse">
<stop stop-color="white"/>
<stop offset="1" stop-color="white"/>
</linearGradient>
<linearGradient id="paint1_linear_342_689" x1="48.2532" y1="118.737" x2="-18.0766" y2="-44.2824" gradientUnits="userSpaceOnUse">
<stop stop-color="white"/>
<stop offset="1" stop-color="white"/>
</linearGradient>
<linearGradient id="paint2_linear_342_689" x1="74.3939" y1="118.737" x2="8.06416" y2="-44.2824" gradientUnits="userSpaceOnUse">
<stop stop-color="white"/>
<stop offset="1" stop-color="white"/>
</linearGradient>
<linearGradient id="paint3_linear_342_689" x1="74.3939" y1="118.737" x2="8.06416" y2="-44.2824" gradientUnits="userSpaceOnUse">
<stop stop-color="white"/>
<stop offset="1" stop-color="white"/>
</linearGradient>
<linearGradient id="paint4_linear_342_689" x1="100.531" y1="118.737" x2="34.2009" y2="-44.2824" gradientUnits="userSpaceOnUse">
<stop stop-color="white"/>
<stop offset="1" stop-color="white"/>
</linearGradient>
<linearGradient id="paint5_linear_342_689" x1="100.531" y1="118.737" x2="34.2009" y2="-44.2824" gradientUnits="userSpaceOnUse">
<stop stop-color="white"/>
<stop offset="1" stop-color="white"/>
</linearGradient>
<linearGradient id="paint6_linear_342_689" x1="126.671" y1="118.737" x2="60.3415" y2="-44.2824" gradientUnits="userSpaceOnUse">
<stop stop-color="white"/>
<stop offset="1" stop-color="white"/>
</linearGradient>
<linearGradient id="paint7_linear_342_689" x1="126.671" y1="118.737" x2="60.3415" y2="-44.2824" gradientUnits="userSpaceOnUse">
<stop stop-color="white"/>
<stop offset="1" stop-color="white"/>
</linearGradient>
<linearGradient id="paint8_linear_342_689" x1="48.2533" y1="142.662" x2="-18.0765" y2="-20.3566" gradientUnits="userSpaceOnUse">
<stop stop-color="white"/>
<stop offset="1" stop-color="white"/>
</linearGradient>
<linearGradient id="paint9_linear_342_689" x1="48.2533" y1="142.662" x2="-18.0765" y2="-20.3566" gradientUnits="userSpaceOnUse">
<stop stop-color="white"/>
<stop offset="1" stop-color="white"/>
</linearGradient>
<linearGradient id="paint10_linear_342_689" x1="74.3939" y1="142.661" x2="8.06515" y2="-20.3566" gradientUnits="userSpaceOnUse">
<stop stop-color="white"/>
<stop offset="1" stop-color="white"/>
</linearGradient>
<linearGradient id="paint11_linear_342_689" x1="74.3939" y1="142.661" x2="8.06515" y2="-20.3566" gradientUnits="userSpaceOnUse">
<stop stop-color="white"/>
<stop offset="1" stop-color="white"/>
</linearGradient>
<linearGradient id="paint12_linear_342_689" x1="100.531" y1="142.661" x2="34.202" y2="-20.3567" gradientUnits="userSpaceOnUse">
<stop stop-color="white"/>
<stop offset="1" stop-color="white"/>
</linearGradient>
<linearGradient id="paint13_linear_342_689" x1="100.531" y1="142.661" x2="34.202" y2="-20.3567" gradientUnits="userSpaceOnUse">
<stop stop-color="white"/>
<stop offset="1" stop-color="white"/>
</linearGradient>
<linearGradient id="paint14_linear_342_689" x1="126.671" y1="142.661" x2="60.3426" y2="-20.3567" gradientUnits="userSpaceOnUse">
<stop stop-color="white"/>
<stop offset="1" stop-color="white"/>
</linearGradient>
<linearGradient id="paint15_linear_342_689" x1="126.671" y1="142.661" x2="60.3426" y2="-20.3567" gradientUnits="userSpaceOnUse">
<stop stop-color="white"/>
<stop offset="1" stop-color="white"/>
</linearGradient>
<linearGradient id="paint16_linear_342_689" x1="48.2533" y1="166.589" x2="-18.0753" y2="3.57107" gradientUnits="userSpaceOnUse">
<stop stop-color="white"/>
<stop offset="1" stop-color="white"/>
</linearGradient>
<linearGradient id="paint17_linear_342_689" x1="48.2533" y1="166.589" x2="-18.0753" y2="3.57107" gradientUnits="userSpaceOnUse">
<stop stop-color="white"/>
<stop offset="1" stop-color="white"/>
</linearGradient>
<linearGradient id="paint18_linear_342_689" x1="74.3939" y1="166.589" x2="8.06528" y2="3.57107" gradientUnits="userSpaceOnUse">
<stop stop-color="white"/>
<stop offset="1" stop-color="white"/>
</linearGradient>
<linearGradient id="paint19_linear_342_689" x1="74.3939" y1="166.589" x2="8.06528" y2="3.57107" gradientUnits="userSpaceOnUse">
<stop stop-color="white"/>
<stop offset="1" stop-color="white"/>
</linearGradient>
<linearGradient id="paint20_linear_342_689" x1="100.531" y1="166.59" x2="34.2007" y2="3.57115" gradientUnits="userSpaceOnUse">
<stop stop-color="white"/>
<stop offset="1" stop-color="white"/>
</linearGradient>
<linearGradient id="paint21_linear_342_689" x1="100.531" y1="166.59" x2="34.2007" y2="3.57115" gradientUnits="userSpaceOnUse">
<stop stop-color="white"/>
<stop offset="1" stop-color="white"/>
</linearGradient>
<linearGradient id="paint22_linear_342_689" x1="126.671" y1="166.59" x2="60.3415" y2="3.57109" gradientUnits="userSpaceOnUse">
<stop stop-color="white"/>
<stop offset="1" stop-color="white"/>
</linearGradient>
<linearGradient id="paint23_linear_342_689" x1="126.671" y1="166.59" x2="60.3415" y2="3.57109" gradientUnits="userSpaceOnUse">
<stop stop-color="white"/>
<stop offset="1" stop-color="white"/>
</linearGradient>
<linearGradient id="paint24_linear_342_689" x1="48.2533" y1="190.518" x2="-18.0765" y2="27.4988" gradientUnits="userSpaceOnUse">
<stop stop-color="white"/>
<stop offset="1" stop-color="white"/>
</linearGradient>
<linearGradient id="paint25_linear_342_689" x1="48.2533" y1="190.518" x2="-18.0765" y2="27.4988" gradientUnits="userSpaceOnUse">
<stop stop-color="white"/>
<stop offset="1" stop-color="white"/>
</linearGradient>
<linearGradient id="paint26_linear_342_689" x1="74.3939" y1="190.518" x2="8.06416" y2="27.4988" gradientUnits="userSpaceOnUse">
<stop stop-color="white"/>
<stop offset="1" stop-color="white"/>
</linearGradient>
<linearGradient id="paint27_linear_342_689" x1="74.3939" y1="190.518" x2="8.06416" y2="27.4988" gradientUnits="userSpaceOnUse">
<stop stop-color="white"/>
<stop offset="1" stop-color="white"/>
</linearGradient>
<linearGradient id="paint28_linear_342_689" x1="100.531" y1="190.518" x2="34.2009" y2="27.4988" gradientUnits="userSpaceOnUse">
<stop stop-color="white"/>
<stop offset="1" stop-color="white"/>
</linearGradient>
<linearGradient id="paint29_linear_342_689" x1="100.531" y1="190.518" x2="34.2009" y2="27.4988" gradientUnits="userSpaceOnUse">
<stop stop-color="white"/>
<stop offset="1" stop-color="white"/>
</linearGradient>
<linearGradient id="paint30_linear_342_689" x1="126.671" y1="190.518" x2="60.3414" y2="27.4989" gradientUnits="userSpaceOnUse">
<stop stop-color="white"/>
<stop offset="1" stop-color="white"/>
</linearGradient>
<linearGradient id="paint31_linear_342_689" x1="126.671" y1="190.518" x2="60.3414" y2="27.4989" gradientUnits="userSpaceOnUse">
<stop stop-color="white"/>
<stop offset="1" stop-color="white"/>
</linearGradient>
</defs>
</svg>
