<svg width="34" height="32" viewBox="0 0 34 32" fill="none" xmlns="http://www.w3.org/2000/svg">
<path d="M10.6156 3.52539C13.0622 3.52539 14.2856 6.26407 12.5674 7.86163C10.8355 9.44651 7.86649 8.31807 7.86649 6.0612C7.86649 5.38866 8.15612 4.74367 8.67167 4.26811C9.18722 3.79256 9.88645 3.52539 10.6156 3.52539ZM8.55375 9.86492H12.6774C13.4064 9.86492 14.1057 10.1321 14.6212 10.6076C15.1368 11.0832 15.4264 11.7282 15.4264 12.4007V19.3742H13.3646V28.8835H7.86649V19.3742H5.80469V12.4007C5.80469 11.7282 6.09432 11.0832 6.60987 10.6076C7.12542 10.1321 7.82466 9.86492 8.55375 9.86492ZM29.859 11.1328H21.6118V13.6686H29.859M29.859 14.9365H25.7354V17.4723H29.859M29.859 3.52539H21.6118V6.0612H29.859M29.859 7.32911H25.7354V9.86492H29.859M29.859 18.7403H21.6118V21.2761H29.859M29.859 26.3477H21.6118V28.8835H29.859M29.859 22.544H25.7354V25.0798H29.859" fill="black"/>
</svg>
