<svg width="34" height="32" viewBox="0 0 34 32" fill="none" xmlns="http://www.w3.org/2000/svg">
<path d="M9.7937 3.52539C12.2396 3.52539 13.4625 6.2641 11.7449 7.86167C10.0136 9.44657 7.04551 8.31812 7.04551 6.06123C7.04551 5.38868 7.33505 4.74368 7.85044 4.26812C8.36582 3.79256 9.06483 3.52539 9.7937 3.52539ZM7.73256 9.86499H11.8548C12.5837 9.86499 13.2827 10.1322 13.7981 10.6077C14.3135 11.0833 14.603 11.7283 14.603 12.4008V19.3744H12.5419V28.8838H7.04551V19.3744H4.98438V12.4008C4.98438 11.7283 5.27391 11.0833 5.7893 10.6077C6.30468 10.1322 7.00369 9.86499 7.73256 9.86499ZM29.031 11.1329H20.7864V13.6687H29.031M29.031 14.9367H24.9087V17.4725H29.031M29.031 3.52539H20.7864V6.06123H29.031M29.031 7.32915H24.9087V9.86499H29.031M29.031 18.7404H20.7864V21.2763H29.031M29.031 26.3479H20.7864V28.8838H29.031M29.031 22.5442H24.9087V25.08H29.031" fill="white"/>
</svg>
