<svg width="35" height="33" viewBox="0 0 35 33" fill="none" xmlns="http://www.w3.org/2000/svg">
<path d="M10.508 2.88867C13.0013 2.88867 14.248 5.81553 12.4971 7.52287C10.7321 9.21665 7.70656 8.01068 7.70656 5.59873C7.70656 4.87998 8.00172 4.19066 8.52709 3.68243C9.05247 3.17419 9.76503 2.88867 10.508 2.88867ZM8.40693 9.66381H12.6091C13.3521 9.66381 14.0647 9.94933 14.59 10.4576C15.1154 10.9658 15.4106 11.6551 15.4106 12.3739V19.8265H13.3095V29.9892H7.70656V19.8265H5.60547V12.3739C5.60547 11.6551 5.90062 10.9658 6.426 10.4576C6.95137 9.94933 7.66393 9.66381 8.40693 9.66381ZM30.1182 11.0188H21.7139V13.7289H30.1182M30.1182 15.0839H25.916V17.794H30.1182M30.1182 2.88867H21.7139V5.59873H30.1182M30.1182 6.95376H25.916V9.66381H30.1182M30.1182 19.149H21.7139V21.8591H30.1182M30.1182 27.2792H21.7139V29.9892H30.1182M30.1182 23.2141H25.916V25.9241H30.1182" fill="white"/>
</svg>
