<svg width="35" height="33" viewBox="0 0 35 33" fill="none" xmlns="http://www.w3.org/2000/svg">
<path d="M10.5291 2.88867C13.0232 2.88867 14.2703 5.8155 12.5188 7.52282C10.7533 9.21659 7.72677 8.01062 7.72677 5.5987C7.72677 4.87996 8.02202 4.19065 8.54756 3.68242C9.07311 3.17419 9.7859 2.88867 10.5291 2.88867ZM8.42736 9.66374H12.6309C13.3741 9.66374 14.0869 9.94926 14.6125 10.4575C15.138 10.9657 15.4333 11.655 15.4333 12.3738V19.8263H13.3315V29.9889H7.72677V19.8263H5.625V12.3738C5.625 11.655 5.92025 10.9657 6.44579 10.4575C6.97134 9.94926 7.68413 9.66374 8.42736 9.66374ZM30.1456 11.0188H21.7386V13.7288H30.1456M30.1456 15.0838H25.9421V17.7938H30.1456M30.1456 2.88867H21.7386V5.5987H30.1456M30.1456 6.95371H25.9421V9.66374H30.1456M30.1456 19.1488H21.7386V21.8589H30.1456M30.1456 27.2789H21.7386V29.9889H30.1456M30.1456 23.2139H25.9421V25.9239H30.1456" fill="black"/>
</svg>
