<svg width="401" height="460" viewBox="0 0 401 460" fill="none" xmlns="http://www.w3.org/2000/svg">
<path d="M0.5 24C0.5 10.7452 11.2452 0 24.5 0H376.5C389.755 0 400.5 10.7452 400.5 24V436C400.5 449.255 389.755 460 376.5 460H24.5C11.2452 460 0.5 449.255 0.5 436V24Z" fill="url(#paint0_linear_342_395)"/>
<path d="M0.5 24C0.5 10.7452 11.2452 0 24.5 0H376.5C389.755 0 400.5 10.7452 400.5 24V436C400.5 449.255 389.755 460 376.5 460H24.5C11.2452 460 0.5 449.255 0.5 436V24Z" fill="#E7F0FA"/>
<defs>
<linearGradient id="paint0_linear_342_395" x1="389.25" y1="49.247" x2="52.8143" y2="445.045" gradientUnits="userSpaceOnUse">
<stop stop-color="#E6EEF8"/>
<stop offset="1" stop-color="#5A98F2"/>
</linearGradient>
</defs>
</svg>
