<svg width="40" height="40" viewBox="0 0 40 40" fill="none" xmlns="http://www.w3.org/2000/svg">
<path d="M2.22222 22.2222H15.5556C16.1449 22.2222 16.7102 21.9881 17.1269 21.5713C17.5437 21.1546 17.7778 20.5894 17.7778 20V2.22222C17.7778 1.63285 17.5437 1.06762 17.1269 0.650874C16.7102 0.234126 16.1449 0 15.5556 0H2.22222C1.63285 0 1.06762 0.234126 0.650874 0.650874C0.234126 1.06762 0 1.63285 0 2.22222V20C0 20.5894 0.234126 21.1546 0.650874 21.5713C1.06762 21.9881 1.63285 22.2222 2.22222 22.2222ZM0 37.7778C0 38.3671 0.234126 38.9324 0.650874 39.3491C1.06762 39.7659 1.63285 40 2.22222 40H15.5556C16.1449 40 16.7102 39.7659 17.1269 39.3491C17.5437 38.9324 17.7778 38.3671 17.7778 37.7778V28.8889C17.7778 28.2995 17.5437 27.7343 17.1269 27.3175C16.7102 26.9008 16.1449 26.6667 15.5556 26.6667H2.22222C1.63285 26.6667 1.06762 26.9008 0.650874 27.3175C0.234126 27.7343 0 28.2995 0 28.8889V37.7778ZM22.2222 37.7778C22.2222 38.3671 22.4563 38.9324 22.8731 39.3491C23.2898 39.7659 23.8551 40 24.4444 40H37.7778C38.3671 40 38.9324 39.7659 39.3491 39.3491C39.7659 38.9324 40 38.3671 40 37.7778V22.2222C40 21.6329 39.7659 21.0676 39.3491 20.6509C38.9324 20.2341 38.3671 20 37.7778 20H24.4444C23.8551 20 23.2898 20.2341 22.8731 20.6509C22.4563 21.0676 22.2222 21.6329 22.2222 22.2222V37.7778ZM24.4444 15.5556H37.7778C38.3671 15.5556 38.9324 15.3214 39.3491 14.9047C39.7659 14.4879 40 13.9227 40 13.3333V2.22222C40 1.63285 39.7659 1.06762 39.3491 0.650874C38.9324 0.234126 38.3671 0 37.7778 0H24.4444C23.8551 0 23.2898 0.234126 22.8731 0.650874C22.4563 1.06762 22.2222 1.63285 22.2222 2.22222V13.3333C22.2222 13.9227 22.4563 14.4879 22.8731 14.9047C23.2898 15.3214 23.8551 15.5556 24.4444 15.5556Z" fill="#828282"/>
</svg>
