<svg width="41" height="39" viewBox="0 0 41 39" fill="none" xmlns="http://www.w3.org/2000/svg">
<path d="M2.55667 21.6314H16.0686C16.6658 21.6314 17.2386 21.409 17.6609 21.0132C18.0833 20.6173 18.3205 20.0805 18.3205 19.5206V2.63424C18.3205 2.07442 18.0833 1.53753 17.6609 1.14168C17.2386 0.745825 16.6658 0.523438 16.0686 0.523438H2.55667C1.95941 0.523438 1.38661 0.745825 0.964277 1.14168C0.541949 1.53753 0.304688 2.07442 0.304688 2.63424V19.5206C0.304688 20.0805 0.541949 20.6173 0.964277 21.0132C1.38661 21.409 1.95941 21.6314 2.55667 21.6314ZM0.304688 36.407C0.304688 36.9668 0.541949 37.5037 0.964277 37.8996C1.38661 38.2954 1.95941 38.5178 2.55667 38.5178H16.0686C16.6658 38.5178 17.2386 38.2954 17.6609 37.8996C18.0833 37.5037 18.3205 36.9668 18.3205 36.407V27.9638C18.3205 27.404 18.0833 26.8671 17.6609 26.4713C17.2386 26.0754 16.6658 25.853 16.0686 25.853H2.55667C1.95941 25.853 1.38661 26.0754 0.964277 26.4713C0.541949 26.8671 0.304688 27.404 0.304688 27.9638V36.407ZM22.8245 36.407C22.8245 36.9668 23.0618 37.5037 23.4841 37.8996C23.9064 38.2954 24.4792 38.5178 25.0765 38.5178H38.5884C39.1856 38.5178 39.7584 38.2954 40.1808 37.8996C40.6031 37.5037 40.8403 36.9668 40.8403 36.407V21.6314C40.8403 21.0716 40.6031 20.5347 40.1808 20.1389C39.7584 19.743 39.1856 19.5206 38.5884 19.5206H25.0765C24.4792 19.5206 23.9064 19.743 23.4841 20.1389C23.0618 20.5347 22.8245 21.0716 22.8245 21.6314V36.407ZM25.0765 15.299H38.5884C39.1856 15.299 39.7584 15.0766 40.1808 14.6808C40.6031 14.2849 40.8403 13.7481 40.8403 13.1882V2.63424C40.8403 2.07442 40.6031 1.53753 40.1808 1.14168C39.7584 0.745825 39.1856 0.523438 38.5884 0.523438H25.0765C24.4792 0.523438 23.9064 0.745825 23.4841 1.14168C23.0618 1.53753 22.8245 2.07442 22.8245 2.63424V13.1882C22.8245 13.7481 23.0618 14.2849 23.4841 14.6808C23.9064 15.0766 24.4792 15.299 25.0765 15.299Z" fill="#828282"/>
</svg>
