<svg width="38" height="42" viewBox="0 0 38 42" fill="none" xmlns="http://www.w3.org/2000/svg">
<path d="M37.1052 22.9685C38.014 21.8268 38.014 19.9725 37.1052 18.8307L27.7997 7.1388C26.8909 5.99701 25.4151 5.99701 24.5064 7.1388C23.5977 8.28059 23.5977 10.1348 24.5064 11.2766L29.8426 17.9812H14.5247C13.238 17.9812 12.1983 19.2874 12.1983 20.9042C12.1983 22.521 13.238 23.8272 14.5247 23.8272H29.8426L24.5064 30.5317C23.5977 31.6735 23.5977 33.5278 24.5064 34.6696C25.4151 35.8114 26.8909 35.8114 27.7997 34.6696L37.1052 22.9777V22.9685ZM12.1983 6.28931C13.4851 6.28931 14.5247 4.98311 14.5247 3.36633C14.5247 1.74956 13.4851 0.443359 12.1983 0.443359H7.54557C3.69249 0.443359 0.566406 4.37111 0.566406 9.21229V32.5961C0.566406 37.4373 3.69249 41.365 7.54557 41.365H12.1983C13.4851 41.365 14.5247 40.0588 14.5247 38.442C14.5247 36.8253 13.4851 35.5191 12.1983 35.5191H7.54557C6.25879 35.5191 5.21918 34.2129 5.21918 32.5961V9.21229C5.21918 7.59551 6.25879 6.28931 7.54557 6.28931H12.1983Z" fill="black" fill-opacity="0.49"/>
</svg>
