<svg width="52" height="17" viewBox="0 0 52 17" fill="none" xmlns="http://www.w3.org/2000/svg">
<path d="M50.8505 15.9951V11.0085C50.8505 8.36337 49.5461 5.82663 47.2243 3.95627C44.9025 2.08591 41.7535 1.03516 38.4699 1.03516H13.7087C10.4252 1.03516 7.27613 2.08591 4.95432 3.95627C2.63251 5.82663 1.32813 8.36337 1.32812 11.0085V15.9951" fill="#828282"/>
<path d="M50.8505 15.9951V11.0085C50.8505 8.36337 49.5461 5.82663 47.2243 3.95627C44.9025 2.08591 41.7535 1.03516 38.4699 1.03516H13.7087C10.4252 1.03516 7.27613 2.08591 4.95432 3.95627C2.63251 5.82663 1.32813 8.36337 1.32812 11.0085V15.9951" stroke="#828282" stroke-width="2" stroke-linecap="round" stroke-linejoin="round"/>
</svg>
