<svg width="42" height="41" viewBox="0 0 42 41" fill="none" xmlns="http://www.w3.org/2000/svg">
<path d="M40.3735 22.4203C41.3631 21.3044 41.3631 19.4922 40.3735 18.3764L30.2396 6.94976C29.2499 5.83388 27.6427 5.83388 26.6531 6.94976C25.6635 8.06564 25.6635 9.87783 26.6531 10.9937L32.4643 17.5461H15.7829C14.3816 17.5461 13.2494 18.8227 13.2494 20.4028C13.2494 21.9829 14.3816 23.2594 15.7829 23.2594H32.4643L26.6531 29.8119C25.6635 30.9278 25.6635 32.74 26.6531 33.8558C27.6427 34.9717 29.2499 34.9717 30.2396 33.8558L40.3735 22.4292V22.4203ZM13.2494 6.11955C14.6508 6.11955 15.7829 4.84298 15.7829 3.2629C15.7829 1.68282 14.6508 0.40625 13.2494 0.40625H8.18247C3.98639 0.40625 0.582031 4.24487 0.582031 8.9762V31.8294C0.582031 36.5607 3.98639 40.3993 8.18247 40.3993H13.2494C14.6508 40.3993 15.7829 39.1228 15.7829 37.5427C15.7829 35.9626 14.6508 34.686 13.2494 34.686H8.18247C6.78114 34.686 5.64899 33.4095 5.64899 31.8294V8.9762C5.64899 7.39611 6.78114 6.11955 8.18247 6.11955H13.2494Z" fill="black" fill-opacity="0.49"/>
</svg>
