<svg width="50" height="46" viewBox="0 0 50 46" fill="none" xmlns="http://www.w3.org/2000/svg">
<path d="M3.07937 25.5896H19.5868C20.3165 25.5896 21.0163 25.3269 21.5323 24.8593C22.0482 24.3917 22.3381 23.7575 22.3381 23.0963V3.14958C22.3381 2.48831 22.0482 1.85412 21.5323 1.38653C21.0163 0.91894 20.3165 0.65625 19.5868 0.65625H3.07937C2.34969 0.65625 1.6499 0.91894 1.13395 1.38653C0.617987 1.85412 0.328125 2.48831 0.328125 3.14958V23.0963C0.328125 23.7575 0.617987 24.3917 1.13395 24.8593C1.6499 25.3269 2.34969 25.5896 3.07937 25.5896ZM0.328125 43.0429C0.328125 43.7042 0.617987 44.3384 1.13395 44.806C1.6499 45.2736 2.34969 45.5363 3.07937 45.5363H19.5868C20.3165 45.5363 21.0163 45.2736 21.5323 44.806C22.0482 44.3384 22.3381 43.7042 22.3381 43.0429V33.0696C22.3381 32.4083 22.0482 31.7741 21.5323 31.3065C21.0163 30.8389 20.3165 30.5763 19.5868 30.5763H3.07937C2.34969 30.5763 1.6499 30.8389 1.13395 31.3065C0.617987 31.7741 0.328125 32.4083 0.328125 33.0696V43.0429ZM27.8406 43.0429C27.8406 43.7042 28.1304 44.3384 28.6464 44.806C29.1623 45.2736 29.8621 45.5363 30.5918 45.5363H47.0993C47.8289 45.5363 48.5287 45.2736 49.0447 44.806C49.5607 44.3384 49.8505 43.7042 49.8505 43.0429V25.5896C49.8505 24.9283 49.5607 24.2941 49.0447 23.8265C48.5287 23.3589 47.8289 23.0963 47.0993 23.0963H30.5918C29.8621 23.0963 29.1623 23.3589 28.6464 23.8265C28.1304 24.2941 27.8406 24.9283 27.8406 25.5896V43.0429ZM30.5918 18.1096H47.0993C47.8289 18.1096 48.5287 17.8469 49.0447 17.3793C49.5607 16.9117 49.8505 16.2775 49.8505 15.6163V3.14958C49.8505 2.48831 49.5607 1.85412 49.0447 1.38653C48.5287 0.91894 47.8289 0.65625 47.0993 0.65625H30.5918C29.8621 0.65625 29.1623 0.91894 28.6464 1.38653C28.1304 1.85412 27.8406 2.48831 27.8406 3.14958V15.6163C27.8406 16.2775 28.1304 16.9117 28.6464 17.3793C29.1623 17.8469 29.8621 18.1096 30.5918 18.1096Z" fill="#828282"/>
</svg>
