<svg width="38" height="44" viewBox="0 0 38 44" fill="none" xmlns="http://www.w3.org/2000/svg">
<path d="M37.1053 24.0541C38.014 22.8397 38.014 20.8674 37.1053 19.653L27.7997 7.21717C26.891 6.00273 25.4151 6.00273 24.5064 7.21717C23.5977 8.4316 23.5977 10.4039 24.5064 11.6183L29.8426 18.7495H14.5247C13.238 18.7495 12.1984 20.1388 12.1984 21.8584C12.1984 23.5781 13.238 24.9674 14.5247 24.9674H29.8426L24.5064 32.0986C23.5977 33.313 23.5977 35.2852 24.5064 36.4997C25.4151 37.7141 26.891 37.7141 27.7997 36.4997L37.1053 24.0638V24.0541ZM12.1984 6.31362C13.4851 6.31362 14.5247 4.92431 14.5247 3.20466C14.5247 1.48502 13.4851 0.0957031 12.1984 0.0957031H7.54557C3.69249 0.0957031 0.566406 4.27337 0.566406 9.42258V34.2943C0.566406 39.4435 3.69249 43.6211 7.54557 43.6211H12.1984C13.4851 43.6211 14.5247 42.2318 14.5247 40.5122C14.5247 38.7925 13.4851 37.4032 12.1984 37.4032H7.54557C6.25879 37.4032 5.21918 36.0139 5.21918 34.2943V9.42258C5.21918 7.70294 6.25879 6.31362 7.54557 6.31362H12.1984Z" fill="black" fill-opacity="0.49"/>
</svg>
