<svg width="40" height="19" viewBox="0 0 40 19" fill="none" xmlns="http://www.w3.org/2000/svg">
<path d="M38.7574 17.1307V11.9491C38.7574 9.20065 37.777 6.56473 36.0318 4.62125C34.2867 2.67777 31.9198 1.58594 29.4518 1.58594H10.8407C8.37272 1.58594 6.00582 2.67777 4.26069 4.62125C2.51556 6.56473 1.53516 9.20065 1.53516 11.9491V17.1307" fill="#828282"/>
<path d="M38.7574 17.1307V11.9491C38.7574 9.20065 37.777 6.56473 36.0318 4.62125C34.2867 2.67777 31.9198 1.58594 29.4518 1.58594H10.8407C8.37272 1.58594 6.00582 2.67777 4.26069 4.62125C2.51556 6.56473 1.53516 9.20065 1.53516 11.9491V17.1307" stroke="#828282" stroke-width="2" stroke-linecap="round" stroke-linejoin="round"/>
</svg>
