<svg width="38" height="42" viewBox="0 0 38 42" fill="none" xmlns="http://www.w3.org/2000/svg">
<path d="M37.1013 23.3614C38.0101 22.2229 38.0101 20.3739 37.1013 19.2354L27.7958 7.57676C26.887 6.43823 25.4112 6.43823 24.5025 7.57676C23.5937 8.7153 23.5937 10.5643 24.5025 11.7028L29.8386 18.3883H14.5208C13.234 18.3883 12.1944 19.6908 12.1944 21.3029C12.1944 22.9151 13.234 24.2176 14.5208 24.2176H29.8386L24.5025 30.9031C23.5937 32.0416 23.5937 33.8906 24.5025 35.0291C25.4112 36.1677 26.887 36.1677 27.7958 35.0291L37.1013 23.3705V23.3614ZM12.1944 6.72969C13.4812 6.72969 14.5208 5.42721 14.5208 3.81504C14.5208 2.20287 13.4812 0.900391 12.1944 0.900391H7.54167C3.68858 0.900391 0.5625 4.81695 0.5625 9.64434V32.9615C0.5625 37.7889 3.68858 41.7055 7.54167 41.7055H12.1944C13.4812 41.7055 14.5208 40.403 14.5208 38.7908C14.5208 37.1787 13.4812 35.8762 12.1944 35.8762H7.54167C6.25488 35.8762 5.21528 34.5737 5.21528 32.9615V9.64434C5.21528 8.03217 6.25488 6.72969 7.54167 6.72969H12.1944Z" fill="black" fill-opacity="0.49"/>
</svg>
