<svg width="38" height="42" viewBox="0 0 38 42" fill="none" xmlns="http://www.w3.org/2000/svg">
<path d="M37.1053 23.3634C38.014 22.2248 38.014 20.3758 37.1053 19.2373L27.7997 7.57871C26.891 6.44018 25.4151 6.44018 24.5064 7.57871C23.5977 8.71725 23.5977 10.5662 24.5064 11.7048L29.8426 18.3902H14.5247C13.238 18.3902 12.1984 19.6927 12.1984 21.3049C12.1984 22.9171 13.238 24.2195 14.5247 24.2195H29.8426L24.5064 30.905C23.5977 32.0436 23.5977 33.8925 24.5064 35.0311C25.4151 36.1696 26.891 36.1696 27.7997 35.0311L37.1053 23.3725V23.3634ZM12.1984 6.73164C13.4851 6.73164 14.5247 5.42916 14.5247 3.81699C14.5247 2.20483 13.4851 0.902344 12.1984 0.902344H7.54557C3.69249 0.902344 0.566406 4.8189 0.566406 9.64629V32.9635C0.566406 37.7909 3.69249 41.7074 7.54557 41.7074H12.1984C13.4851 41.7074 14.5247 40.405 14.5247 38.7928C14.5247 37.1806 13.4851 35.8781 12.1984 35.8781H7.54557C6.25879 35.8781 5.21918 34.5757 5.21918 32.9635V9.64629C5.21918 8.03413 6.25879 6.73164 7.54557 6.73164H12.1984Z" fill="black" fill-opacity="0.49"/>
</svg>
