<svg width="41" height="18" viewBox="0 0 41 18" fill="none" xmlns="http://www.w3.org/2000/svg">
<path d="M39.6602 16.1463V11.1301C39.6602 8.46931 38.6419 5.91753 36.8293 4.03609C35.0168 2.15464 32.5584 1.09766 29.9951 1.09766H10.665C8.10171 1.09766 5.64337 2.15464 3.83082 4.03609C2.01828 5.91753 1 8.46931 1 11.1301V16.1463" fill="#828282"/>
<path d="M39.6602 16.1463V11.1301C39.6602 8.46931 38.6419 5.91753 36.8293 4.03609C35.0168 2.15464 32.5584 1.09766 29.9951 1.09766H10.665C8.10171 1.09766 5.64337 2.15464 3.83082 4.03609C2.01828 5.91753 1 8.46931 1 11.1301V16.1463" stroke="#828282" stroke-width="2" stroke-linecap="round" stroke-linejoin="round"/>
</svg>
