<svg width="46" height="47" viewBox="0 0 46 47" fill="none" xmlns="http://www.w3.org/2000/svg">
<path d="M3.44922 25.7548H18.4492C19.1123 25.7548 19.7481 25.4855 20.217 25.0063C20.6858 24.527 20.9492 23.877 20.9492 23.1992V2.75477C20.9492 2.077 20.6858 1.42698 20.217 0.947724C19.7481 0.468464 19.1123 0.199219 18.4492 0.199219H3.44922C2.78618 0.199219 2.15029 0.468464 1.68145 0.947724C1.21261 1.42698 0.949219 2.077 0.949219 2.75477V23.1992C0.949219 23.877 1.21261 24.527 1.68145 25.0063C2.15029 25.4855 2.78618 25.7548 3.44922 25.7548ZM0.949219 43.6437C0.949219 44.3214 1.21261 44.9715 1.68145 45.4507C2.15029 45.93 2.78618 46.1992 3.44922 46.1992H18.4492C19.1123 46.1992 19.7481 45.93 20.217 45.4507C20.6858 44.9715 20.9492 44.3214 20.9492 43.6437V33.4214C20.9492 32.7437 20.6858 32.0937 20.217 31.6144C19.7481 31.1351 19.1123 30.8659 18.4492 30.8659H3.44922C2.78618 30.8659 2.15029 31.1351 1.68145 31.6144C1.21261 32.0937 0.949219 32.7437 0.949219 33.4214V43.6437ZM25.9492 43.6437C25.9492 44.3214 26.2126 44.9715 26.6815 45.4507C27.1503 45.93 27.7862 46.1992 28.4492 46.1992H43.4492C44.1123 46.1992 44.7481 45.93 45.217 45.4507C45.6858 44.9715 45.9492 44.3214 45.9492 43.6437V25.7548C45.9492 25.077 45.6858 24.427 45.217 23.9477C44.7481 23.4685 44.1123 23.1992 43.4492 23.1992H28.4492C27.7862 23.1992 27.1503 23.4685 26.6815 23.9477C26.2126 24.427 25.9492 25.077 25.9492 25.7548V43.6437ZM28.4492 18.0881H43.4492C44.1123 18.0881 44.7481 17.8189 45.217 17.3396C45.6858 16.8603 45.9492 16.2103 45.9492 15.5326V2.75477C45.9492 2.077 45.6858 1.42698 45.217 0.947724C44.7481 0.468464 44.1123 0.199219 43.4492 0.199219H28.4492C27.7862 0.199219 27.1503 0.468464 26.6815 0.947724C26.2126 1.42698 25.9492 2.077 25.9492 2.75477V15.5326C25.9492 16.2103 26.2126 16.8603 26.6815 17.3396C27.1503 17.8189 27.7862 18.0881 28.4492 18.0881Z" fill="#828282"/>
</svg>
