<svg width="39" height="47" viewBox="0 0 39 47" fill="none" xmlns="http://www.w3.org/2000/svg">
<path d="M38.7124 15.2933C38.9687 16.092 38.7524 16.9824 38.1999 17.5515L34.7325 21.1683C34.8206 21.9303 34.8687 22.7105 34.8687 23.5C34.8687 24.2894 34.8206 25.0697 34.7325 25.8316L38.1999 29.4484C38.7524 30.0176 38.9687 30.908 38.7124 31.7066C38.3601 32.799 37.9356 33.8455 37.4472 34.8552L37.0708 35.5988C36.5423 36.6086 35.9497 37.5633 35.3011 38.4629C34.8286 39.1238 34.0438 39.3441 33.3392 39.0871L28.8788 37.4623C27.8058 38.4078 26.6206 39.1972 25.3554 39.7939L24.3544 45.0355C24.1942 45.8709 23.6337 46.5318 22.897 46.6695C21.7919 46.8806 20.6548 46.9908 19.4936 46.9908C18.3325 46.9908 17.1954 46.8806 16.0903 46.6695C15.3536 46.5318 14.7931 45.8709 14.6329 45.0355L13.6319 39.7939C12.3667 39.1972 11.1815 38.4078 10.1085 37.4623L5.65615 39.0963C4.95146 39.3533 4.1667 39.1238 3.69423 38.472C3.0456 37.5724 2.45302 36.6177 1.92451 35.608L1.54814 34.8644C1.05966 33.8547 0.63525 32.8082 0.282906 31.7158C0.0266563 30.9172 0.242867 30.0267 0.795406 29.4576L4.26279 25.8408C4.1747 25.0697 4.12666 24.2894 4.12666 23.5C4.12666 22.7105 4.1747 21.9303 4.26279 21.1683L0.795406 17.5515C0.242867 16.9824 0.0266563 16.092 0.282906 15.2933C0.63525 14.201 1.05966 13.1545 1.54814 12.1447L1.92451 11.4012C2.45302 10.3914 3.0456 9.43671 3.69423 8.5371C4.1667 7.87617 4.95146 7.65585 5.65615 7.91288L10.1165 9.53769C11.1895 8.59218 12.3747 7.80273 13.6399 7.20605L14.6409 1.96445C14.8011 1.1291 15.3616 0.468164 16.0983 0.330468C17.2034 0.110156 18.3405 0 19.5017 0C20.6628 0 21.7999 0.110156 22.905 0.321289C23.6417 0.458984 24.2022 1.11992 24.3624 1.95527L25.3634 7.19687C26.6286 7.79355 27.8138 8.583 28.8868 9.52851L33.3472 7.9037C34.0519 7.64667 34.8366 7.87617 35.3091 8.52792C35.9577 9.42753 36.5503 10.3822 37.0788 11.392L37.4552 12.1355C37.9437 13.1453 38.3681 14.1918 38.7204 15.2842L38.7124 15.2933ZM19.5017 30.8437C21.2007 30.8437 22.8302 30.07 24.0316 28.6928C25.233 27.3156 25.9079 25.4477 25.9079 23.5C25.9079 21.5523 25.233 19.6844 24.0316 18.3072C22.8302 16.93 21.2007 16.1562 19.5017 16.1562C17.8026 16.1562 16.1732 16.93 14.9718 18.3072C13.7703 19.6844 13.0954 21.5523 13.0954 23.5C13.0954 25.4477 13.7703 27.3156 14.9718 28.6928C16.1732 30.07 17.8026 30.8437 19.5017 30.8437Z" fill="black" fill-opacity="0.49"/>
</svg>
