<svg width="32" height="42" viewBox="0 0 32 42" fill="none" xmlns="http://www.w3.org/2000/svg">
<path d="M2.2804 23.3204L12.4318 23.3582C12.8806 23.3599 13.3118 23.1259 13.6306 22.7077C13.9495 22.2896 14.1299 21.7215 14.1321 21.1284L14.1988 3.23969C14.201 2.64664 14.0249 2.07722 13.7091 1.65669C13.3934 1.23615 12.9639 0.998962 12.5152 0.997289L2.36378 0.959434C1.91506 0.957761 1.48384 1.19174 1.16498 1.60991C0.846123 2.02808 0.665748 2.59617 0.663537 3.18922L0.596829 21.078C0.594618 21.671 0.770751 22.2404 1.08648 22.661C1.40221 23.0815 1.83168 23.3187 2.2804 23.3204ZM0.530122 38.9667C0.52791 39.5598 0.704043 40.1292 1.01977 40.5497C1.3355 40.9703 1.76497 41.2074 2.21369 41.2091L12.3651 41.247C12.8139 41.2486 13.2451 41.0147 13.5639 40.5965C13.8828 40.1783 14.0632 39.6102 14.0654 39.0172L14.0987 30.0728C14.1009 29.4798 13.9248 28.9103 13.6091 28.4898C13.2934 28.0693 12.8639 27.8321 12.4152 27.8304L2.26372 27.7926C1.815 27.7909 1.38378 28.0249 1.06492 28.443C0.746062 28.8612 0.565687 29.4293 0.563475 30.0223L0.530122 38.9667ZM17.4492 39.0298C17.447 39.6229 17.6231 40.1923 17.9388 40.6128C18.2546 41.0333 18.684 41.2705 19.1328 41.2722L29.2842 41.3101C29.7329 41.3117 30.1642 41.0778 30.483 40.6596C30.8019 40.2414 30.9822 39.6733 30.9845 39.0803L31.0428 23.4276C31.045 22.8346 30.8689 22.2652 30.5532 21.8446C30.2374 21.4241 29.808 21.1869 29.3593 21.1852L19.2078 21.1474C18.7591 21.1457 18.3279 21.3797 18.009 21.7978C17.6902 22.216 17.5098 22.7841 17.5076 23.3772L17.4492 39.0298ZM19.2245 16.6752L29.3759 16.713C29.8247 16.7147 30.2559 16.4807 30.5747 16.0626C30.8936 15.6444 31.074 15.0763 31.0762 14.4833L31.1179 3.30278C31.1201 2.70973 30.944 2.14031 30.6282 1.71978C30.3125 1.29925 29.883 1.06205 29.4343 1.06038L19.2829 1.02253C18.8341 1.02085 18.4029 1.25484 18.0841 1.673C17.7652 2.09117 17.5848 2.65926 17.5826 3.25231L17.5409 14.4328C17.5387 15.0258 17.7148 15.5952 18.0306 16.0158C18.3463 16.4363 18.7758 16.6735 19.2245 16.6752Z" fill="#828282"/>
</svg>
