<svg width="41" height="40" viewBox="0 0 41 40" fill="none" xmlns="http://www.w3.org/2000/svg">
<path d="M40.3017 13.3261C40.5659 13.9899 40.343 14.7299 39.7735 15.2029L36.1993 18.209C36.2901 18.8422 36.3396 19.4908 36.3396 20.1469C36.3396 20.803 36.2901 21.4516 36.1993 22.0848L39.7735 25.0909C40.343 25.5639 40.5659 26.304 40.3017 26.9677C39.9385 27.8756 39.5011 28.7454 38.9975 29.5847L38.6096 30.2027C38.0648 31.0419 37.454 31.8354 36.7853 32.5831C36.2983 33.1324 35.4894 33.3155 34.763 33.1019L30.1653 31.7515C29.0592 32.5373 27.8375 33.1934 26.5333 33.6894L25.5015 38.0458C25.3364 38.7401 24.7586 39.2895 23.9992 39.4039C22.8601 39.5794 21.6879 39.6709 20.491 39.6709C19.2941 39.6709 18.122 39.5794 16.9829 39.4039C16.2235 39.2895 15.6456 38.7401 15.4806 38.0458L14.4487 33.6894C13.1445 33.1934 11.9229 32.5373 10.8168 31.7515L6.2273 33.1095C5.5009 33.3232 4.69197 33.1324 4.20495 32.5907C3.53634 31.843 2.92551 31.0495 2.38072 30.2103L1.99276 29.5923C1.48923 28.753 1.05175 27.8833 0.68855 26.9754C0.424407 26.3116 0.647277 25.5715 1.21684 25.0985L4.79102 22.0924C4.70022 21.4516 4.65069 20.803 4.65069 20.1469C4.65069 19.4908 4.70022 18.8422 4.79102 18.209L1.21684 15.2029C0.647277 14.7299 0.424407 13.9899 0.68855 13.3261C1.05175 12.4182 1.48923 11.5484 1.99276 10.7091L2.38072 10.0911C2.92551 9.25189 3.53634 8.45842 4.20495 7.71072C4.69197 7.1614 5.5009 6.97829 6.2273 7.19191L10.825 8.54235C11.9311 7.7565 13.1528 7.10036 14.457 6.60444L15.4888 2.24796C15.6539 1.55367 16.2317 1.00434 16.9911 0.889898C18.1302 0.706789 19.3024 0.615234 20.4993 0.615234C21.6962 0.615234 22.8683 0.706789 24.0074 0.882269C24.7668 0.996712 25.3446 1.54604 25.5097 2.24033L26.5415 6.59681C27.8458 7.09273 29.0674 7.74887 30.1735 8.53472L34.7713 7.18428C35.4976 6.97066 36.3066 7.1614 36.7936 7.70309C37.4622 8.45079 38.073 9.24426 38.6178 10.0835L39.0058 10.7015C39.5093 11.5408 39.9468 12.4105 40.31 13.3184L40.3017 13.3261ZM20.4993 26.2505C22.2507 26.2505 23.9303 25.6075 25.1687 24.4628C26.4071 23.3182 27.1028 21.7657 27.1028 20.1469C27.1028 18.5281 26.4071 16.9756 25.1687 15.831C23.9303 14.6863 22.2507 14.0433 20.4993 14.0433C18.7479 14.0433 17.0683 14.6863 15.8298 15.831C14.5914 16.9756 13.8957 18.5281 13.8957 20.1469C13.8957 21.7657 14.5914 23.3182 15.8298 24.4628C17.0683 25.6075 18.7479 26.2505 20.4993 26.2505Z" fill="black" fill-opacity="0.49"/>
</svg>
