<svg width="40" height="19" viewBox="0 0 40 19" fill="none" xmlns="http://www.w3.org/2000/svg">
<path d="M38.4023 17.4608L38.4216 12.2793C38.4318 9.5308 37.4613 6.89124 35.7234 4.94127C33.9855 2.9913 31.6227 1.89065 29.1548 1.88144L10.5438 1.81204C8.0758 1.80284 5.70484 2.88584 3.95248 4.8228C2.20011 6.75975 1.20989 9.392 1.19964 12.1405L1.18031 17.322" fill="#828282"/>
<path d="M38.4023 17.4608L38.4216 12.2793C38.4318 9.5308 37.4613 6.89124 35.7234 4.94127C33.9855 2.9913 31.6227 1.89065 29.1548 1.88144L10.5438 1.81204C8.0758 1.80284 5.70484 2.88584 3.95248 4.8228C2.20011 6.75975 1.20989 9.392 1.19964 12.1405L1.18031 17.322" stroke="#828282" stroke-width="2" stroke-linecap="round" stroke-linejoin="round"/>
</svg>
