<svg width="32" height="41" viewBox="0 0 32 41" fill="none" xmlns="http://www.w3.org/2000/svg">
<path d="M2.64114 23.1111H12.7927C13.2414 23.1111 13.6717 22.8755 13.989 22.4562C14.3063 22.0368 14.4846 21.4681 14.4846 20.875V2.98611C14.4846 2.39306 14.3063 1.82429 13.989 1.40494C13.6717 0.98559 13.2414 0.75 12.7927 0.75H2.64114C2.19241 0.75 1.76207 0.98559 1.44477 1.40494C1.12747 1.82429 0.949219 2.39306 0.949219 2.98611V20.875C0.949219 21.4681 1.12747 22.0368 1.44477 22.4562C1.76207 22.8755 2.19241 23.1111 2.64114 23.1111ZM0.949219 38.7639C0.949219 39.3569 1.12747 39.9257 1.44477 40.3451C1.76207 40.7644 2.19241 41 2.64114 41H12.7927C13.2414 41 13.6717 40.7644 13.989 40.3451C14.3063 39.9257 14.4846 39.3569 14.4846 38.7639V29.8194C14.4846 29.2264 14.3063 28.6576 13.989 28.2383C13.6717 27.8189 13.2414 27.5833 12.7927 27.5833H2.64114C2.19241 27.5833 1.76207 27.8189 1.44477 28.2383C1.12747 28.6576 0.949219 29.2264 0.949219 29.8194V38.7639ZM17.8684 38.7639C17.8684 39.3569 18.0467 39.9257 18.364 40.3451C18.6813 40.7644 19.1116 41 19.5603 41H29.7118C30.1606 41 30.5909 40.7644 30.9082 40.3451C31.2255 39.9257 31.4038 39.3569 31.4038 38.7639V23.1111C31.4038 22.5181 31.2255 21.9493 30.9082 21.5299C30.5909 21.1106 30.1606 20.875 29.7118 20.875H19.5603C19.1116 20.875 18.6813 21.1106 18.364 21.5299C18.0467 21.9493 17.8684 22.5181 17.8684 23.1111V38.7639ZM19.5603 16.4028H29.7118C30.1606 16.4028 30.5909 16.1672 30.9082 15.7478C31.2255 15.3285 31.4038 14.7597 31.4038 14.1667V2.98611C31.4038 2.39306 31.2255 1.82429 30.9082 1.40494C30.5909 0.98559 30.1606 0.75 29.7118 0.75H19.5603C19.1116 0.75 18.6813 0.98559 18.364 1.40494C18.0467 1.82429 17.8684 2.39306 17.8684 2.98611V14.1667C17.8684 14.7597 18.0467 15.3285 18.364 15.7478C18.6813 16.1672 19.1116 16.4028 19.5603 16.4028Z" fill="#828282"/>
</svg>
