<svg width="38" height="39" viewBox="0 0 38 39" fill="none" xmlns="http://www.w3.org/2000/svg">
<path d="M37.1555 12.8235C37.3987 13.4753 37.1935 14.202 36.6691 14.6665L33.3783 17.6184C33.4619 18.2402 33.5075 18.877 33.5075 19.5213C33.5075 20.1656 33.4619 20.8025 33.3783 21.4243L36.6691 24.3761C37.1935 24.8406 37.3987 25.5674 37.1555 26.2192C36.8211 27.1107 36.4183 27.9648 35.9547 28.7889L35.5975 29.3958C35.0959 30.2199 34.5335 30.9991 33.9179 31.7333C33.4695 32.2727 32.7248 32.4525 32.056 32.2427L27.8228 30.9167C26.8045 31.6883 25.6797 32.3326 24.4789 32.8196L23.5289 37.0976C23.3769 37.7793 22.8449 38.3187 22.1457 38.4311C21.097 38.6034 20.0178 38.6933 18.9158 38.6933C17.8138 38.6933 16.7346 38.6034 15.6858 38.4311C14.9867 38.3187 14.4547 37.7793 14.3027 37.0976L13.3527 32.8196C12.1519 32.3326 11.0271 31.6883 10.0087 30.9167L5.78321 32.2502C5.11442 32.46 4.36964 32.2727 3.92124 31.7408C3.30565 31.0066 2.74326 30.2274 2.24167 29.4033L1.88448 28.7964C1.42089 27.9723 1.01809 27.1182 0.683699 26.2267C0.440503 25.5749 0.6457 24.8481 1.17009 24.3836L4.46083 21.4318C4.37724 20.8025 4.33164 20.1656 4.33164 19.5213C4.33164 18.877 4.37724 18.2402 4.46083 17.6184L1.17009 14.6665C0.6457 14.202 0.440503 13.4753 0.683699 12.8235C1.01809 11.9319 1.42089 11.0778 1.88448 10.2537L2.24167 9.64686C2.74326 8.82274 3.30565 8.04357 3.92124 7.30936C4.36964 6.76993 5.11442 6.59013 5.78321 6.7999L10.0163 8.12599C11.0347 7.35431 12.1595 6.71 13.3603 6.22302L14.3103 1.94509C14.4623 1.26331 14.9943 0.723889 15.6934 0.611509C16.7422 0.431701 17.8214 0.341797 18.9234 0.341797C20.0254 0.341797 21.1046 0.431701 22.1533 0.604017C22.8525 0.716397 23.3845 1.25582 23.5365 1.93759L24.4865 6.21553C25.6873 6.70251 26.8121 7.34682 27.8304 8.11849L32.0636 6.79241C32.7324 6.58263 33.4771 6.76993 33.9255 7.30187C34.5411 8.03608 35.1035 8.81525 35.6051 9.63937L35.9623 10.2462C36.4259 11.0703 36.8287 11.9244 37.1631 12.816L37.1555 12.8235ZM18.9234 25.5149C20.5359 25.5149 22.0823 24.8835 23.2225 23.7594C24.3627 22.6354 25.0033 21.1109 25.0033 19.5213C25.0033 17.9317 24.3627 16.4072 23.2225 15.2832C22.0823 14.1592 20.5359 13.5277 18.9234 13.5277C17.3109 13.5277 15.7645 14.1592 14.6243 15.2832C13.4841 16.4072 12.8435 17.9317 12.8435 19.5213C12.8435 21.1109 13.4841 22.6354 14.6243 23.7594C15.7645 24.8835 17.3109 25.5149 18.9234 25.5149Z" fill="black" fill-opacity="0.49"/>
</svg>
