<svg width="37" height="51" viewBox="0 0 37 51" fill="none" xmlns="http://www.w3.org/2000/svg">
<path d="M35.9116 17.0493C36.1442 17.8946 35.9479 18.837 35.4463 19.4393L32.2984 23.2672C32.3784 24.0736 32.422 24.8994 32.422 25.735C32.422 26.5705 32.3784 27.3963 32.2984 28.2027L35.4463 32.0306C35.9479 32.633 36.1442 33.5754 35.9116 34.4206C35.5917 35.5768 35.2064 36.6843 34.7629 37.753L34.4213 38.54C33.9414 39.6087 33.4035 40.6191 32.8146 41.5712C32.3857 42.2707 31.6732 42.5039 31.0335 42.2319L26.9841 40.5122C26.0099 41.5129 24.934 42.3485 23.7853 42.98L22.8766 48.5275C22.7312 49.4116 22.2223 50.1112 21.5534 50.2569C20.5502 50.4803 19.5178 50.5969 18.4637 50.5969C17.4095 50.5969 16.3772 50.4803 15.3739 50.2569C14.7051 50.1112 14.1962 49.4116 14.0508 48.5275L13.1421 42.98C11.9934 42.3485 10.9175 41.5129 9.94328 40.5122L5.90118 42.2416C5.26142 42.5136 4.54897 42.2707 4.12004 41.5809C3.53117 40.6288 2.9932 39.6184 2.51338 38.5497L2.17169 37.7628C1.72822 36.694 1.34291 35.5865 1.02304 34.4303C0.790397 33.5851 0.986686 32.6427 1.48831 32.0403L4.63621 28.2124C4.55624 27.3963 4.51262 26.5705 4.51262 25.735C4.51262 24.8994 4.55624 24.0736 4.63621 23.2672L1.48831 19.4393C0.986686 18.837 0.790397 17.8946 1.02304 17.0493C1.34291 15.8932 1.72822 14.7856 2.17169 13.7169L2.51338 12.9299C2.9932 11.8612 3.53117 10.8508 4.12004 9.8987C4.54897 9.19918 5.26142 8.96601 5.90118 9.23804L9.95055 10.9577C10.9247 9.95699 12.0007 9.12146 13.1493 8.48995L14.0581 2.9424C14.2035 2.05829 14.7124 1.35877 15.3812 1.21304C16.3845 0.979867 17.4168 0.863281 18.471 0.863281C19.5251 0.863281 20.5574 0.979867 21.5607 1.20332C22.2295 1.34906 22.7384 2.04857 22.8838 2.93268L23.7926 8.48023C24.9412 9.11174 26.0172 9.94727 26.9914 10.948L31.0407 9.22833C31.6805 8.95629 32.3929 9.19918 32.8219 9.88898C33.4107 10.8411 33.9487 11.8515 34.4285 12.9202L34.7702 13.7072C35.2137 14.7759 35.599 15.8834 35.9189 17.0396L35.9116 17.0493ZM18.471 33.5074C20.0134 33.5074 21.4928 32.6885 22.5835 31.2309C23.6742 29.7733 24.2869 27.7963 24.2869 25.735C24.2869 23.6736 23.6742 21.6967 22.5835 20.239C21.4928 18.7814 20.0134 17.9626 18.471 17.9626C16.9285 17.9626 15.4491 18.7814 14.3584 20.239C13.2677 21.6967 12.655 23.6736 12.655 25.735C12.655 27.7963 13.2677 29.7733 14.3584 31.2309C15.4491 32.6885 16.9285 33.5074 18.471 33.5074Z" fill="black" fill-opacity="0.49"/>
</svg>
