<svg width="45" height="42" viewBox="0 0 45 42" fill="none" xmlns="http://www.w3.org/2000/svg">
<path d="M43.6993 22.7698C44.7741 21.6334 44.7741 19.788 43.6993 18.6516L32.6925 7.01522C31.6176 5.87885 29.872 5.87885 28.7971 7.01522C27.7222 8.15158 27.7222 9.99704 28.7971 11.1334L35.1088 17.8062H16.9906C15.4686 17.8062 14.2389 19.1062 14.2389 20.7153C14.2389 22.3243 15.4686 23.6243 16.9906 23.6243H35.1088L28.7971 30.2971C27.7222 31.4335 27.7222 33.2789 28.7971 34.4153C29.872 35.5517 31.6176 35.5517 32.6925 34.4153L43.6993 22.7789V22.7698ZM14.2389 6.16976C15.761 6.16976 16.9906 4.86976 16.9906 3.26066C16.9906 1.65157 15.761 0.351562 14.2389 0.351562H8.73555C4.17806 0.351562 0.480469 4.26066 0.480469 9.07886V32.3516C0.480469 37.1698 4.17806 41.0789 8.73555 41.0789H14.2389C15.761 41.0789 16.9906 39.7789 16.9906 38.1698C16.9906 36.5607 15.761 35.2607 14.2389 35.2607H8.73555C7.21352 35.2607 5.98386 33.9607 5.98386 32.3516V9.07886C5.98386 7.46976 7.21352 6.16976 8.73555 6.16976H14.2389Z" fill="black" fill-opacity="0.49"/>
</svg>
