<svg width="50" height="40" viewBox="0 0 50 40" fill="none" xmlns="http://www.w3.org/2000/svg">
<path d="M48.9413 21.9598C50.1504 20.8641 50.1504 19.0847 48.9413 17.989L36.5607 6.76895C35.3517 5.67325 33.3882 5.67325 32.1791 6.76895C30.9701 7.86466 30.9701 9.64408 32.1791 10.7398L39.2786 17.1737H18.899C17.187 17.1737 15.8039 18.4272 15.8039 19.9788C15.8039 21.5303 17.187 22.7838 18.899 22.7838H39.2786L32.1791 29.2177C30.9701 30.3134 30.9701 32.0928 32.1791 33.1885C33.3882 34.2843 35.3517 34.2843 36.5607 33.1885L48.9413 21.9685V21.9598ZM15.8039 5.95375C17.5159 5.95375 18.899 4.70027 18.899 3.14875C18.899 1.59723 17.5159 0.34375 15.8039 0.34375H9.61357C4.48723 0.34375 0.328125 4.11297 0.328125 8.75875V31.1988C0.328125 35.8445 4.48723 39.6138 9.61357 39.6138H15.8039C17.5159 39.6138 18.899 38.3603 18.899 36.8088C18.899 35.2572 17.5159 34.0037 15.8039 34.0037H9.61357C7.90157 34.0037 6.51842 32.7503 6.51842 31.1988V8.75875C6.51842 7.20723 7.90157 5.95375 9.61357 5.95375H15.8039Z" fill="black" fill-opacity="0.49"/>
</svg>
